if (_typeface_js && _typeface_js.loadFace) _typeface_js.loadFace({"glyphs":{"\u0000":{"x_min":0,"x_max":0,"ha":1291},"¦":{"x_min":110,"x_max":398.921875,"ha":400,"o":"m 110 -23 l 175 455 l 312 454 l 246 -23 l 110 -23 m 196 609 l 261 1087 l 398 1087 l 333 610 l 196 609 "},"ǻ":{"x_min":103,"x_max":863.703125,"ha":762,"o":"m 770 711 l 667 0 l 564 0 l 560 128 q 519 69 542 96 q 467 24 495 43 q 405 -3 438 6 q 337 -13 372 -13 q 229 8 273 -13 q 156 69 184 30 q 115 159 128 107 q 103 272 103 211 q 116 385 103 326 q 156 502 130 445 q 219 611 182 560 q 301 702 256 663 q 401 764 347 741 q 514 787 454 787 q 578 781 545 787 q 641 766 611 775 q 697 746 672 757 q 739 727 723 736 l 770 711 m 235 280 q 270 136 235 181 q 376 92 304 92 q 436 103 408 92 q 490 131 465 114 q 533 168 514 148 q 563 203 552 187 l 632 659 q 619 664 630 660 q 593 671 609 667 q 558 678 577 675 q 519 681 538 681 q 450 666 485 681 q 384 625 416 651 q 325 560 353 598 q 278 479 298 523 q 246 384 258 434 q 235 280 235 333 m 577 1127 q 539 1118 556 1127 q 508 1094 521 1109 q 487 1060 494 1079 q 479 1020 479 1041 q 500 965 480 987 q 554 943 519 943 q 591 951 573 943 q 622 975 609 960 q 643 1009 636 990 q 651 1049 651 1029 q 630 1104 650 1082 q 577 1127 610 1127 m 406 1008 q 420 1081 406 1047 q 460 1140 435 1114 q 518 1180 485 1165 q 587 1195 551 1195 q 642 1185 617 1195 q 686 1155 667 1174 q 715 1112 704 1137 q 726 1059 725 1087 q 712 987 726 1020 q 672 928 697 953 q 615 888 648 903 q 545 874 582 874 q 489 884 515 874 q 445 911 464 894 q 416 954 427 929 q 406 1008 406 978 m 650 1273 l 549 1273 l 676 1706 l 863 1706 l 650 1273 "},"Ő":{"x_min":134,"x_max":1088.3125,"ha":990,"o":"m 1002 694 q 963 401 1002 534 q 855 174 925 269 q 691 25 786 78 q 483 -27 596 -27 q 338 -3 402 -27 q 228 67 273 19 q 158 188 182 116 q 134 361 134 261 q 151 561 134 465 q 200 737 168 656 q 278 884 232 819 q 380 997 323 950 q 505 1069 437 1044 q 647 1094 572 1094 q 807 1066 740 1094 q 917 987 874 1038 q 981 860 961 935 q 1002 694 1002 786 m 852 696 q 840 807 852 756 q 803 894 828 857 q 735 950 777 930 q 633 971 694 971 q 525 946 574 971 q 438 880 477 922 q 370 780 399 838 q 322 655 341 722 q 294 514 303 587 q 284 364 284 440 q 339 162 284 228 q 501 96 394 96 q 608 119 559 96 q 695 184 656 143 q 763 282 734 225 q 812 406 793 339 q 842 546 832 472 q 852 696 852 620 m 545 1182 l 444 1182 l 571 1615 l 758 1615 l 545 1182 m 806 1182 l 705 1182 l 901 1615 l 1088 1615 l 806 1182 "},"Ž":{"x_min":61.765625,"x_max":876.4375,"ha":766,"o":"m 876 1073 l 860 953 l 227 112 l 743 112 l 728 0 l 61 0 l 80 132 l 704 960 l 195 960 l 210 1073 l 876 1073 m 629 1204 l 534 1204 l 455 1582 l 564 1582 l 609 1367 l 738 1582 l 856 1582 l 629 1204 "},"Á":{"x_min":17.640625,"x_max":860.828125,"ha":893,"o":"m 595 952 l 484 706 l 319 341 l 680 341 l 630 701 l 595 952 m 504 1075 l 708 1075 l 860 0 l 728 0 l 691 262 l 283 262 l 165 0 l 17 0 l 504 1075 m 540 1145 l 439 1145 l 566 1578 l 753 1578 l 540 1145 "},"е":{"x_min":103.953125,"x_max":734.15625,"ha":720,"o":"m 261 440 q 438 466 370 456 q 545 489 507 477 q 595 514 582 501 q 608 545 608 528 q 577 646 608 611 q 492 681 547 681 q 408 663 446 681 q 340 613 370 645 q 291 537 311 581 q 261 440 271 492 m 250 358 q 247 261 243 304 q 294 133 250 174 q 412 92 338 92 q 512 113 463 92 q 607 171 560 135 l 637 68 q 508 7 576 29 q 380 -13 440 -13 q 262 7 313 -13 q 176 66 211 27 q 122 160 141 105 q 104 283 104 215 q 113 399 103 339 q 145 514 124 458 q 199 620 167 570 q 273 707 231 670 q 368 765 316 744 q 483 787 421 787 q 672 726 611 787 q 734 545 733 666 q 729 502 734 522 q 706 464 724 482 q 656 431 688 447 q 567 402 623 415 q 435 380 512 389 q 250 358 357 371 "},"ĥ":{"x_min":86.8125,"x_max":786.515625,"ha":796,"o":"m 386 1125 l 320 661 q 381 716 352 692 q 439 755 409 740 q 500 779 469 771 q 570 787 532 787 q 660 774 620 787 q 728 734 700 761 q 770 666 755 707 q 785 569 785 625 q 782 524 785 546 q 775 477 779 502 l 710 0 l 569 0 l 635 480 q 639 510 637 494 q 642 542 642 526 q 614 647 642 612 q 529 681 587 681 q 459 671 493 681 q 396 645 425 660 q 344 612 367 629 q 309 582 322 595 l 227 0 l 86 0 l 243 1109 l 386 1125 m 602 1231 l 699 1231 l 786 854 l 681 854 l 631 1069 l 509 854 l 385 854 l 602 1231 "},"Î":{"x_min":84.09375,"x_max":634.8125,"ha":583,"o":"m 96 82 l 221 82 l 352 978 l 228 978 l 242 1075 l 634 1075 l 621 978 l 495 978 l 363 82 l 489 82 l 476 0 l 84 0 l 96 82 m 447 1507 l 544 1507 l 631 1130 l 526 1130 l 476 1345 l 354 1130 l 230 1130 l 447 1507 "},"e":{"x_min":103,"x_max":745.15625,"ha":731,"o":"m 267 451 q 414 468 354 461 q 513 483 474 475 q 574 498 553 491 q 605 511 595 505 q 617 523 615 518 q 619 534 619 529 q 586 644 619 607 q 496 682 554 682 q 415 666 453 682 q 349 620 378 649 q 298 547 319 590 q 267 451 278 504 m 644 66 q 517 6 584 26 q 390 -13 450 -13 q 267 6 320 -13 q 176 65 213 27 q 121 158 140 103 q 103 282 103 213 q 114 403 103 342 q 148 519 126 463 q 204 624 171 575 q 281 709 238 673 q 378 767 324 746 q 495 788 432 788 q 684 720 624 788 q 745 525 745 653 q 742 498 745 513 q 724 468 739 483 q 679 438 710 453 q 592 409 648 423 q 454 387 537 396 q 254 365 372 378 q 248 319 250 341 q 246 279 246 298 q 292 138 246 185 q 420 92 338 92 q 522 113 473 92 q 619 171 570 134 l 644 66 "},"»":{"x_min":85.453125,"x_max":972.3125,"ha":1068,"o":"m 574 576 l 596 737 l 972 456 l 952 323 l 499 43 l 522 205 l 837 393 l 574 576 m 160 576 l 183 737 l 558 456 l 539 323 l 85 43 l 107 205 l 423 393 l 160 576 "},"ļ":{"x_min":48.65625,"x_max":398.390625,"ha":346,"o":"m 398 1123 l 237 0 l 102 0 l 259 1107 l 398 1123 m 56 -320 l 88 -99 l 290 -99 l 260 -319 q 240 -393 256 -362 q 201 -446 225 -424 q 146 -483 177 -468 q 79 -508 115 -497 l 48 -440 q 115 -396 88 -426 q 149 -320 143 -365 l 56 -320 "},"Ĕ":{"x_min":85.453125,"x_max":856.59375,"ha":752,"o":"m 714 0 l 85 0 l 237 1075 l 856 1075 l 839 962 l 366 962 l 316 614 l 733 614 l 719 518 l 303 518 l 245 112 l 732 112 l 714 0 m 769 1332 q 767 1320 768 1325 q 764 1308 766 1314 q 698 1195 747 1234 q 561 1156 649 1156 q 443 1190 480 1156 q 406 1289 406 1224 q 406 1309 405 1298 q 408 1332 407 1320 l 499 1332 q 497 1311 497 1320 q 501 1286 496 1297 q 513 1266 505 1274 q 575 1236 529 1236 q 645 1260 618 1236 q 680 1332 672 1285 l 769 1332 "},"Ѓ":{"x_min":86.8125,"x_max":883.71875,"ha":781,"o":"m 405 1164 l 550 1587 l 722 1563 l 497 1152 l 405 1164 m 883 1075 l 868 962 l 375 962 l 238 0 l 86 0 l 238 1075 l 883 1075 "},"ў":{"x_min":43.4375,"x_max":762.890625,"ha":692,"o":"m 637 997 q 635 985 636 990 q 632 973 634 979 q 566 860 615 899 q 429 821 517 821 q 311 855 348 821 q 274 954 274 889 q 274 974 273 963 q 276 997 275 985 l 367 997 q 365 976 365 985 q 369 951 364 962 q 381 931 373 939 q 443 901 397 901 q 513 925 486 901 q 548 997 540 950 l 637 997 m 43 -209 q 117 -188 86 -201 q 173 -152 147 -175 q 238 -85 210 -126 q 288 10 267 -44 q 279 48 284 29 q 271 85 275 67 l 120 773 l 255 773 l 374 201 l 632 773 l 762 773 l 423 45 q 377 -53 401 -2 q 325 -151 353 -104 q 255 -235 296 -197 q 161 -293 215 -272 q 117 -307 140 -301 q 69 -315 94 -312 l 43 -209 "},"ò":{"x_min":104,"x_max":786.671875,"ha":783,"o":"m 104 291 q 114 407 104 348 q 145 521 124 466 q 199 625 167 576 q 276 709 232 673 q 378 766 321 746 q 506 787 435 787 q 639 762 586 787 q 726 696 693 738 q 772 600 758 654 q 786 486 786 545 q 758 294 786 384 q 677 134 729 203 q 550 26 624 66 q 384 -13 475 -13 q 268 7 319 -13 q 179 67 216 27 q 123 163 143 106 q 104 291 104 219 m 400 92 q 483 109 447 92 q 547 156 520 126 q 594 224 575 185 q 625 305 613 262 q 643 392 638 348 q 649 477 649 437 q 640 558 649 521 q 614 623 632 596 q 565 666 595 650 q 490 681 535 681 q 406 663 442 681 q 341 613 369 644 q 294 542 313 582 q 263 459 275 502 q 246 373 251 416 q 241 293 241 329 q 249 214 241 251 q 276 150 257 177 q 325 107 295 123 q 400 92 356 92 m 557 887 l 485 887 l 329 1323 l 530 1323 l 557 887 "},"ﬄ":{"x_min":148.296875,"x_max":1362.59375,"ha":1316,"o":"m 516 965 q 480 957 497 965 q 448 928 463 949 q 421 869 433 906 q 400 773 409 832 l 633 773 l 624 707 l 389 707 l 288 0 l 151 0 l 251 707 l 148 707 l 156 773 l 263 773 q 305 927 280 867 q 363 1021 330 987 q 435 1068 396 1055 q 521 1081 474 1081 q 567 1073 545 1081 q 606 1055 589 1065 q 634 1037 622 1046 q 649 1028 645 1029 l 605 923 q 596 930 603 924 q 578 944 589 937 q 551 958 566 952 q 516 965 535 965 m 1049 1081 q 1164 1071 1109 1081 q 1264 1050 1219 1062 q 1314 1036 1289 1043 q 1362 1020 1339 1029 l 1214 0 l 1079 0 l 1215 953 q 1185 960 1200 957 q 1155 968 1170 964 q 1094 978 1128 973 q 1026 984 1060 984 q 960 971 988 984 q 912 932 932 958 q 880 866 893 906 q 859 774 867 827 l 1057 774 l 1048 708 l 849 708 l 752 0 l 615 0 l 711 708 l 608 708 l 616 774 l 722 774 q 754 894 732 838 q 816 992 777 950 q 912 1057 854 1033 q 1049 1081 969 1081 "},"ţ":{"x_min":131.359375,"x_max":550.328125,"ha":513,"o":"m 340 94 q 388 103 363 94 q 432 123 412 112 q 479 151 457 135 l 524 69 q 505 56 523 69 q 458 29 487 43 q 390 1 428 14 q 312 -11 352 -11 q 251 0 278 -11 q 204 31 224 10 q 173 82 184 52 q 159 151 161 112 q 158 167 158 158 q 160 193 159 177 q 166 264 160 217 l 231 707 l 131 707 l 140 773 l 240 773 l 280 1050 l 419 1088 l 375 773 l 550 773 l 540 707 l 366 707 l 291 174 q 301 115 285 136 q 340 94 316 94 m 147 -320 l 179 -99 l 381 -99 l 351 -319 q 331 -393 347 -362 q 292 -446 316 -424 q 237 -483 268 -468 q 170 -508 206 -497 l 139 -440 q 206 -396 179 -426 q 240 -320 234 -365 l 147 -320 "},"^":{"x_min":322,"x_max":724.1875,"ha":991,"o":"m 538 655 l 635 655 l 724 277 l 619 277 l 568 492 l 445 277 l 322 277 l 538 655 "},"«":{"x_min":122.046875,"x_max":1005.78125,"ha":1096,"o":"m 984 577 l 672 392 l 936 205 l 914 43 l 536 323 l 554 458 l 1005 738 l 984 577 m 570 577 l 258 393 l 522 205 l 501 43 l 122 323 l 139 458 l 591 738 l 570 577 "},"к":{"x_min":86.8125,"x_max":829.875,"ha":736,"o":"m 86 0 l 196 773 l 336 773 l 288 436 l 365 436 l 661 773 l 829 773 l 587 512 q 552 476 573 498 q 507 435 532 455 q 456 401 483 415 q 404 386 429 386 q 430 378 415 384 q 460 362 445 371 q 490 342 476 353 q 514 317 504 330 q 537 286 526 302 q 561 252 549 270 l 723 0 l 573 0 l 414 251 l 352 340 l 275 340 l 227 0 l 86 0 "},"í":{"x_min":124,"x_max":581.796875,"ha":406,"o":"m 260 0 l 124 0 l 234 786 l 371 786 l 260 0 m 317 827 l 259 841 l 414 1268 l 581 1221 l 317 827 "},"ˆ":{"x_min":83,"x_max":484.515625,"ha":602,"o":"m 300 431 l 397 431 l 484 54 l 379 54 l 329 269 l 207 54 l 83 54 l 300 431 "},"ū":{"x_min":121,"x_max":805.0625,"ha":795,"o":"m 335 773 q 330 734 334 764 q 320 661 326 704 q 307 566 314 618 q 293 463 300 515 q 280 365 286 412 q 269 282 274 317 q 265 254 267 265 q 264 239 264 243 q 274 166 263 195 q 311 111 285 129 q 375 92 336 93 q 481 117 430 92 q 583 188 532 141 l 664 773 l 805 773 l 697 0 l 594 0 q 589 59 591 30 q 585 118 587 87 q 473 20 532 54 q 348 -13 414 -13 q 121 212 121 -13 q 126 261 121 222 q 138 353 131 300 q 149 439 144 395 q 161 528 155 484 q 172 612 167 571 q 182 686 178 653 q 190 742 187 719 q 194 773 193 765 l 335 773 m 785 878 l 329 878 l 345 993 l 800 993 l 785 878 "},"Ẅ":{"x_min":188,"x_max":1334.078125,"ha":1341,"o":"m 646 1073 l 849 1073 l 898 127 l 1211 1075 l 1334 1075 l 976 0 l 780 0 l 740 953 l 406 0 l 194 0 l 188 1075 l 320 1075 l 329 125 l 646 1073 m 699 1289 q 690 1248 698 1268 q 667 1214 681 1229 q 636 1190 654 1199 q 600 1182 618 1182 q 570 1188 584 1182 q 545 1205 555 1194 q 529 1230 535 1215 q 524 1262 524 1245 q 532 1304 524 1284 q 554 1340 540 1324 q 587 1364 568 1355 q 625 1373 605 1373 q 678 1351 658 1373 q 699 1294 698 1329 l 699 1289 m 1013 1288 q 1004 1248 1013 1267 q 982 1213 995 1228 q 950 1190 968 1198 q 914 1181 933 1181 q 860 1204 881 1181 q 839 1262 839 1227 q 847 1303 839 1283 q 869 1339 855 1323 q 902 1363 883 1354 q 940 1373 920 1373 q 992 1350 972 1373 q 1013 1293 1013 1327 l 1013 1288 "},"ņ":{"x_min":86.734375,"x_max":779.109375,"ha":789,"o":"m 561 0 q 588 192 576 110 q 607 333 599 274 q 621 432 616 392 q 631 501 627 473 q 635 528 634 519 q 636 543 636 536 q 630 601 636 575 q 613 644 625 626 q 580 672 600 662 q 529 681 559 681 q 471 670 502 681 q 408 643 439 659 q 351 609 377 627 q 311 578 325 592 l 229 0 l 86 0 l 197 773 l 300 773 l 306 655 q 358 703 327 679 q 426 745 390 726 q 501 775 463 763 q 575 787 540 787 q 779 573 779 787 q 778 558 779 565 q 777 542 778 551 q 774 521 775 533 q 770 491 772 509 q 759 414 765 458 q 745 311 753 371 q 727 175 737 252 q 703 0 717 98 l 561 0 m 239 -320 l 271 -99 l 473 -99 l 443 -319 q 423 -393 439 -362 q 384 -446 408 -424 q 329 -483 360 -468 q 262 -508 298 -497 l 231 -440 q 298 -396 271 -426 q 332 -320 326 -365 l 239 -320 "},"µ":{"x_min":48,"x_max":737.703125,"ha":777,"o":"m 142 -197 l 48 -183 l 177 753 l 275 753 q 245 541 257 629 q 225 395 233 454 q 212 302 217 337 q 204 249 207 268 q 201 222 202 230 q 201 209 201 214 q 228 107 201 139 q 314 75 256 75 q 388 86 353 75 q 452 114 423 97 q 504 149 482 130 q 542 184 527 169 l 621 753 l 737 753 l 631 2 l 545 -8 l 545 105 q 301 -21 425 -21 q 247 -14 269 -21 q 210 1 225 -8 q 187 21 195 10 q 175 41 179 32 l 142 -197 "},"ỳ":{"x_min":43.5,"x_max":766.390625,"ha":698,"o":"m 43 -209 q 87 -199 67 -204 q 126 -185 108 -193 q 224 -108 183 -161 q 297 22 265 -54 l 280 97 l 126 773 l 260 773 l 377 197 l 638 773 l 766 773 l 422 46 q 375 -52 400 -1 q 324 -150 351 -103 q 255 -234 297 -197 q 160 -293 214 -272 q 116 -306 139 -301 q 67 -315 93 -312 l 43 -209 m 525 900 l 453 900 l 297 1336 l 498 1336 l 525 900 "},"č":{"x_min":103.984375,"x_max":764.515625,"ha":662,"o":"m 104 287 q 137 493 104 401 q 225 651 170 586 q 351 752 280 716 q 500 787 423 787 q 625 767 570 787 q 729 709 680 748 l 676 606 q 646 633 665 619 q 604 657 627 647 q 555 674 581 668 q 504 681 529 681 q 411 661 451 681 q 341 605 371 640 q 292 524 312 571 q 262 425 273 477 q 250 355 254 389 q 247 291 247 321 q 286 141 246 190 q 402 92 327 92 q 477 103 441 92 q 544 130 514 114 q 576 150 561 139 q 607 172 592 160 l 626 71 q 501 8 563 29 q 370 -13 439 -12 q 265 5 314 -12 q 180 59 216 23 q 123 153 144 96 q 104 287 103 209 m 537 873 l 442 873 l 363 1251 l 472 1251 l 517 1036 l 646 1251 l 764 1251 l 537 873 "},"’":{"x_min":119.5,"x_max":350.109375,"ha":509,"o":"m 127 858 l 148 1079 l 350 1079 l 329 859 q 310 785 325 816 q 271 732 295 754 q 217 695 248 710 q 150 671 186 681 l 119 739 q 186 783 160 753 q 220 858 212 813 l 127 858 "},"-":{"x_min":123,"x_max":552.3125,"ha":592,"o":"m 538 362 l 123 362 l 137 467 l 552 467 l 538 362 "},"ѕ":{"x_min":73.96875,"x_max":658.5,"ha":649,"o":"m 140 573 q 160 665 139 625 q 217 732 180 705 q 304 773 254 759 q 413 787 354 787 q 482 780 448 787 q 547 762 516 773 q 607 737 579 751 q 658 709 635 723 l 608 617 q 571 637 593 626 q 524 658 549 649 q 469 674 498 668 q 412 681 441 681 q 305 658 345 681 q 266 591 266 635 q 270 559 266 572 q 283 535 274 545 q 306 516 291 525 q 342 499 321 508 l 437 460 q 505 428 472 446 q 564 387 538 411 q 605 333 589 363 q 621 262 621 302 q 598 146 621 197 q 533 59 574 94 q 439 5 493 23 q 326 -13 385 -13 q 238 -6 278 -13 q 168 12 199 1 q 114 38 137 24 q 73 67 90 53 l 128 165 q 161 142 141 154 q 207 118 181 129 q 262 99 232 107 q 322 92 291 92 q 389 101 358 92 q 442 129 420 110 q 476 174 464 147 q 489 238 489 201 q 484 266 489 254 q 468 289 479 279 q 440 310 458 300 q 397 330 422 320 l 298 372 q 229 406 258 388 q 179 448 199 425 q 149 502 159 472 q 140 573 140 533 "},"Q":{"x_min":134,"x_max":1005.484375,"ha":988,"o":"m 281 414 q 282 342 279 375 q 290 279 284 308 q 361 140 307 184 q 506 96 415 96 q 637 126 581 96 q 733 210 693 157 q 799 333 774 263 q 838 480 825 402 q 851 586 845 536 q 857 681 857 636 q 800 901 857 830 q 630 972 743 972 q 515 947 565 972 q 426 881 464 923 q 361 784 388 840 q 317 667 335 729 q 291 540 300 605 q 281 414 283 475 m 1005 685 q 999 600 1005 646 q 987 501 994 553 q 967 394 981 448 q 930 287 952 339 q 877 185 907 234 q 804 97 846 137 q 710 27 763 56 q 591 -14 657 0 l 782 -203 l 696 -288 l 432 -23 q 311 12 366 -15 q 217 88 256 39 q 155 209 177 136 q 134 381 134 282 q 139 487 134 430 q 156 603 144 543 q 188 722 168 662 q 237 836 207 781 q 305 938 266 890 q 395 1020 344 985 q 509 1075 446 1055 q 650 1095 573 1095 q 788 1073 724 1095 q 901 1003 853 1052 q 977 876 949 954 q 1005 685 1005 798 "},"Ш":{"x_min":86.8125,"x_max":1546.34375,"ha":1493,"o":"m 831 112 l 1258 112 l 1394 1075 l 1546 1075 l 1394 0 l 86 0 l 238 1075 l 390 1075 l 254 111 l 679 111 l 815 1075 l 967 1075 l 831 112 "},"M":{"x_min":86.8125,"x_max":1252.671875,"ha":1200,"o":"m 519 0 l 479 238 l 360 941 l 225 0 l 86 0 l 201 801 l 240 1075 l 462 1075 l 507 802 l 575 399 l 615 158 l 712 372 l 921 834 l 1030 1075 l 1252 1075 l 1198 682 l 1103 0 l 963 0 l 1090 921 l 735 130 l 676 0 l 519 0 "},"ј":{"x_min":-9.453125,"x_max":403.5625,"ha":381,"o":"m 402 1009 q 395 969 402 988 q 377 937 388 951 q 350 915 365 923 q 317 907 334 907 q 270 928 287 907 q 253 981 253 950 q 259 1020 253 1001 q 278 1053 266 1039 q 306 1077 290 1068 q 339 1086 321 1086 q 385 1065 367 1086 q 403 1014 402 1045 q 402 1009 403 1010 m -9 -152 q 56 -100 29 -127 q 101 -40 83 -73 q 129 33 118 -7 q 147 127 140 74 l 236 773 l 379 773 l 288 112 q 254 -19 278 41 q 194 -126 230 -79 q 113 -205 158 -173 q 15 -250 67 -237 l -9 -152 "},"œ":{"x_min":103,"x_max":1267.15625,"ha":1253,"o":"m 781 358 q 777 305 778 329 q 778 260 776 281 q 792 187 780 217 q 825 138 804 157 q 876 111 846 120 q 943 102 906 102 q 1137 175 1044 102 l 1167 68 q 1101 33 1136 48 q 1033 7 1067 18 q 966 -8 998 -2 q 909 -13 935 -13 q 825 -2 865 -13 q 755 30 786 9 q 705 84 724 52 q 682 155 686 115 q 573 45 631 84 q 448 -5 515 6 q 404 -10 426 -8 q 359 -10 381 -11 q 253 14 301 -7 q 173 75 206 36 q 121 168 139 114 q 103 291 103 223 q 111 397 103 341 q 139 509 119 453 q 189 614 158 564 q 265 703 220 664 q 369 764 309 742 q 505 787 429 787 q 598 772 557 787 q 667 733 638 757 q 714 678 697 709 q 737 614 731 647 q 795 692 762 659 q 866 746 828 725 q 942 777 903 767 q 1017 787 981 787 q 1206 726 1145 787 q 1267 544 1267 665 q 1261 478 1267 507 q 1247 424 1255 449 q 1037 375 1154 391 q 781 358 920 359 m 400 97 q 482 117 446 99 q 546 164 519 135 q 593 230 574 192 q 624 308 612 267 q 642 393 637 350 q 648 477 648 436 q 639 556 648 519 q 613 618 631 592 q 564 660 594 645 q 489 674 534 674 q 405 656 441 674 q 340 608 368 638 q 293 538 312 578 q 262 456 274 499 q 245 372 250 414 q 240 293 240 329 q 248 215 240 251 q 275 153 256 179 q 325 112 294 127 q 400 97 355 97 m 793 444 q 872 444 830 444 q 957 447 913 445 q 1045 452 1001 448 q 1128 462 1088 456 q 1138 510 1135 491 q 1141 544 1141 528 q 1110 645 1141 610 q 1025 680 1080 680 q 867 617 925 680 q 793 444 810 554 "},"ě":{"x_min":103,"x_max":770.515625,"ha":731,"o":"m 267 451 q 414 468 354 461 q 513 483 474 475 q 574 498 553 491 q 605 511 595 505 q 617 523 615 518 q 619 534 619 529 q 586 644 619 607 q 496 682 554 682 q 415 666 453 682 q 349 620 378 649 q 298 547 319 590 q 267 451 278 504 m 644 66 q 517 6 584 26 q 390 -13 450 -13 q 267 6 320 -13 q 176 65 213 27 q 121 158 140 103 q 103 282 103 213 q 114 403 103 342 q 148 519 126 463 q 204 624 171 575 q 281 709 238 673 q 378 767 324 746 q 495 788 432 788 q 684 720 624 788 q 745 525 745 653 q 742 498 745 513 q 724 468 739 483 q 679 438 710 453 q 592 409 648 423 q 454 387 537 396 q 254 365 372 378 q 248 319 250 341 q 246 279 246 298 q 292 138 246 185 q 420 92 338 92 q 522 113 473 92 q 619 171 570 134 l 644 66 m 543 873 l 448 873 l 369 1251 l 478 1251 l 523 1036 l 652 1251 l 770 1251 l 543 873 "},"ũ":{"x_min":121,"x_max":805.0625,"ha":795,"o":"m 335 773 q 330 734 334 764 q 320 661 326 704 q 307 566 314 618 q 293 463 300 515 q 280 365 286 412 q 269 282 274 317 q 265 254 267 265 q 264 239 264 243 q 274 166 263 195 q 311 111 285 129 q 375 92 336 93 q 481 117 430 92 q 583 188 532 141 l 664 773 l 805 773 l 697 0 l 594 0 q 589 59 591 30 q 585 118 587 87 q 473 20 532 54 q 348 -13 414 -13 q 121 212 121 -13 q 126 261 121 222 q 138 353 131 300 q 149 439 144 395 q 161 528 155 484 q 172 612 167 571 q 182 686 178 653 q 190 742 187 719 q 194 773 193 765 l 335 773 m 659 871 q 590 884 623 871 q 526 914 557 898 q 471 944 496 930 q 427 958 446 958 q 409 955 418 958 q 394 946 401 953 q 383 925 387 939 q 379 889 379 912 l 272 889 q 285 969 273 934 q 318 1026 297 1003 q 367 1059 339 1048 q 428 1070 395 1070 q 492 1054 463 1070 q 548 1024 521 1039 q 600 996 575 1009 q 648 983 624 983 q 668 985 659 983 q 683 995 677 988 q 692 1015 689 1002 q 697 1048 696 1028 l 804 1048 q 791 966 803 1000 q 760 911 779 932 q 714 880 740 890 q 659 871 688 871 "},"ŭ":{"x_min":121,"x_max":805.0625,"ha":795,"o":"m 335 773 q 330 734 334 764 q 320 661 326 704 q 307 566 314 618 q 293 463 300 515 q 280 365 286 412 q 269 282 274 317 q 265 254 267 265 q 264 239 264 243 q 274 166 263 195 q 311 111 285 129 q 375 92 336 93 q 481 117 430 92 q 583 188 532 141 l 664 773 l 805 773 l 697 0 l 594 0 q 589 59 591 30 q 585 118 587 87 q 473 20 532 54 q 348 -13 414 -13 q 121 212 121 -13 q 126 261 121 222 q 138 353 131 300 q 149 439 144 395 q 161 528 155 484 q 172 612 167 571 q 182 686 178 653 q 190 742 187 719 q 194 773 193 765 l 335 773 m 761 1037 q 759 1025 760 1030 q 756 1013 758 1019 q 690 900 739 939 q 553 861 641 861 q 435 895 472 861 q 398 994 398 929 q 398 1014 397 1003 q 400 1037 399 1025 l 491 1037 q 489 1016 489 1025 q 493 991 488 1002 q 505 971 497 979 q 567 941 521 941 q 637 965 610 941 q 672 1037 664 990 l 761 1037 "},"{":{"x_min":142.140625,"x_max":570.265625,"ha":605,"o":"m 391 679 q 369 585 383 626 q 336 515 355 544 q 293 467 317 486 q 242 439 269 449 q 304 380 279 422 q 330 267 329 339 q 326 203 330 235 q 321 136 321 171 q 323 82 320 108 q 333 36 325 56 q 352 3 340 16 q 385 -12 365 -9 q 393 -20 387 -18 q 405 -24 398 -23 q 417 -24 411 -25 q 425 -24 423 -24 l 408 -143 q 401 -143 406 -143 q 390 -144 396 -143 q 377 -145 383 -145 q 365 -145 370 -145 q 294 -126 325 -144 q 240 -75 263 -107 q 205 1 218 -42 q 193 101 193 46 q 195 178 193 139 q 198 257 197 217 q 198 288 198 274 q 199 316 198 303 q 142 375 187 375 l 160 503 q 226 550 202 503 q 263 700 251 597 q 288 816 271 767 q 328 901 305 866 q 380 959 351 937 q 439 995 408 982 q 503 1013 470 1008 q 570 1018 537 1018 l 554 903 q 518 901 535 903 q 485 894 501 900 q 455 874 469 888 q 430 836 442 860 q 408 773 418 811 q 391 679 398 735 "},"¼":{"x_min":139,"x_max":1132.5,"ha":1238,"o":"m 139 -19 l 957 958 l 1044 895 l 222 -81 l 139 -19 m 1025 659 l 1122 632 l 1032 131 l 1132 131 l 1116 33 l 1015 33 l 984 -138 l 870 -150 l 904 33 l 559 33 l 559 118 l 1025 659 m 689 129 l 923 129 l 986 467 l 689 129 m 238 362 l 338 916 l 222 871 l 205 949 l 383 1016 l 473 997 l 361 362 l 238 362 "},"#":{"x_min":92.390625,"x_max":763.671875,"ha":804,"o":"m 466 312 l 306 312 l 250 81 l 153 81 l 210 312 l 92 312 l 104 384 l 228 384 l 280 598 l 157 598 l 171 669 l 297 669 l 355 905 l 451 905 l 394 669 l 551 669 l 611 904 l 708 904 l 649 669 l 763 669 l 748 598 l 631 598 l 580 384 l 700 384 l 689 312 l 563 312 l 508 81 l 411 81 l 466 312 m 324 384 l 483 384 l 534 598 l 376 598 l 324 384 "},"Ê":{"x_min":85.453125,"x_max":856.59375,"ha":752,"o":"m 714 0 l 85 0 l 237 1075 l 856 1075 l 839 962 l 366 962 l 316 614 l 733 614 l 719 518 l 303 518 l 245 112 l 732 112 l 714 0 m 556 1506 l 653 1506 l 740 1129 l 635 1129 l 585 1344 l 463 1129 l 339 1129 l 556 1506 "},"Џ":{"x_min":86.8125,"x_max":1042.421875,"ha":990,"o":"m 889 0 l 567 0 l 528 -275 l 385 -275 l 424 0 l 86 0 l 238 1075 l 390 1075 l 254 112 l 753 112 l 890 1075 l 1042 1075 l 889 0 "},")":{"x_min":48,"x_max":459.671875,"ha":541,"o":"m 48 -70 q 169 74 117 -6 q 254 246 220 155 q 305 433 288 337 q 322 623 322 529 q 308 774 322 709 q 276 888 295 840 q 236 967 257 935 q 200 1016 215 999 l 280 1102 q 362 1008 328 1062 q 417 892 396 954 q 449 762 439 830 q 459 625 459 694 q 436 400 459 512 q 367 188 412 289 q 256 -1 322 86 q 104 -155 190 -88 l 48 -70 "},"э":{"x_min":76.046875,"x_max":706.109375,"ha":703,"o":"m 310 -13 q 284 -12 297 -13 q 260 -9 272 -12 q 163 16 207 -3 q 76 72 118 36 l 128 173 q 161 144 142 158 q 202 118 179 129 q 252 99 225 106 q 310 92 280 92 q 393 110 354 92 q 463 162 432 129 q 515 243 494 196 q 546 347 537 290 l 308 347 l 322 443 l 560 443 q 562 469 561 457 q 563 493 563 481 q 553 575 562 540 q 526 634 545 611 q 475 669 506 658 q 398 681 444 681 q 347 675 374 681 q 293 657 320 668 q 241 633 266 647 q 197 603 217 619 l 176 702 q 309 767 246 747 q 441 787 373 787 q 549 766 500 787 q 632 705 597 744 q 686 611 667 666 q 706 489 705 556 q 678 292 706 383 q 598 133 650 200 q 473 25 546 65 q 310 -13 400 -13 "},"ș":{"x_min":58.28125,"x_max":646.234375,"ha":629,"o":"m 127 574 q 147 665 127 626 q 205 732 168 705 q 292 773 242 759 q 401 787 343 787 q 470 780 436 787 q 535 763 504 774 q 595 737 567 752 q 646 709 623 723 l 602 615 q 563 636 586 624 q 514 657 541 647 q 458 674 487 668 q 399 681 428 681 q 292 659 332 681 q 253 590 253 636 q 257 558 253 572 q 269 535 261 545 q 293 516 278 524 q 328 498 307 507 l 423 460 q 491 428 458 446 q 549 387 524 410 q 590 333 575 363 q 606 263 606 302 q 582 146 606 198 q 517 59 558 94 q 422 5 476 23 q 309 -13 368 -13 q 227 -6 265 -13 q 156 12 188 0 q 99 38 124 24 q 58 67 74 53 l 101 157 q 134 135 113 147 q 181 114 155 124 q 239 98 208 105 q 307 92 271 92 q 374 101 343 92 q 427 129 405 111 q 461 174 449 147 q 474 235 474 201 q 469 264 474 251 q 453 287 464 276 q 425 309 443 299 q 382 330 407 319 l 282 372 q 214 407 244 388 q 165 449 185 425 q 136 503 146 473 q 127 574 127 533 m 156 -320 l 188 -99 l 390 -99 l 360 -319 q 340 -393 356 -362 q 301 -446 325 -424 q 246 -483 277 -468 q 179 -508 215 -497 l 148 -440 q 215 -396 188 -426 q 249 -320 243 -365 l 156 -320 "},"Å":{"x_min":17.640625,"x_max":860.828125,"ha":893,"o":"m 595 952 l 484 706 l 319 341 l 680 341 l 630 701 l 595 952 m 504 1075 l 708 1075 l 860 0 l 728 0 l 691 262 l 283 262 l 165 0 l 17 0 l 504 1075 m 617 1398 q 579 1389 596 1398 q 548 1365 561 1380 q 527 1331 534 1350 q 519 1291 519 1312 q 540 1236 520 1258 q 594 1214 559 1214 q 631 1222 613 1214 q 662 1246 649 1231 q 683 1280 676 1261 q 691 1320 691 1300 q 670 1375 690 1353 q 617 1398 650 1398 m 446 1279 q 460 1352 446 1318 q 500 1411 475 1385 q 558 1451 525 1436 q 627 1466 591 1466 q 682 1456 657 1466 q 726 1426 707 1445 q 755 1383 744 1408 q 766 1330 765 1358 q 752 1258 766 1291 q 712 1199 737 1224 q 655 1159 688 1174 q 585 1145 622 1145 q 529 1155 555 1145 q 485 1182 504 1165 q 456 1225 467 1200 q 446 1279 446 1249 "},"ǎ":{"x_min":103,"x_max":770.90625,"ha":762,"o":"m 770 711 l 667 0 l 564 0 l 560 128 q 519 69 542 96 q 467 24 495 43 q 405 -3 438 6 q 337 -13 372 -13 q 229 8 273 -13 q 156 69 184 30 q 115 159 128 107 q 103 272 103 211 q 116 385 103 326 q 156 502 130 445 q 219 611 182 560 q 301 702 256 663 q 401 764 347 741 q 514 787 454 787 q 578 781 545 787 q 641 766 611 775 q 697 746 672 757 q 739 727 723 736 l 770 711 m 235 280 q 270 136 235 181 q 376 92 304 92 q 436 103 408 92 q 490 131 465 114 q 533 168 514 148 q 563 203 552 187 l 632 659 q 619 664 630 660 q 593 671 609 667 q 558 678 577 675 q 519 681 538 681 q 450 666 485 681 q 384 625 416 651 q 325 560 353 598 q 278 479 298 523 q 246 384 258 434 q 235 280 235 333 m 530 860 l 435 860 l 356 1238 l 465 1238 l 510 1023 l 639 1238 l 757 1238 l 530 860 "},"ш":{"x_min":154.984375,"x_max":1220.796875,"ha":1163,"o":"m 329 -13 q 196 37 238 -13 q 155 190 154 87 q 156 203 155 196 q 159 231 157 211 q 167 287 162 251 q 180 387 172 324 q 202 544 189 450 q 233 773 215 638 l 369 773 q 338 551 351 642 q 316 399 325 460 q 303 303 308 339 q 295 250 298 268 q 293 223 293 231 q 292 210 292 216 q 309 121 292 151 q 370 92 327 92 q 483 132 428 92 q 581 263 537 173 l 583 282 l 655 773 l 790 773 q 761 567 773 654 q 740 416 749 479 q 725 309 731 352 q 714 236 719 266 q 711 209 711 218 q 711 194 711 201 q 728 117 711 142 q 788 92 745 92 q 846 103 816 92 q 905 137 876 115 q 961 193 934 160 q 1013 267 989 225 q 1014 278 1014 273 q 1016 289 1015 284 l 1085 773 l 1220 773 l 1110 0 l 1009 0 l 1002 157 q 953 83 981 115 q 892 29 925 51 q 823 -2 859 8 q 753 -13 788 -13 q 629 29 671 -13 q 582 163 587 71 q 531 79 561 113 q 468 25 501 45 q 398 -4 434 4 q 329 -13 362 -13 "},"Я":{"x_min":75.96875,"x_max":957.65625,"ha":904,"o":"m 433 544 q 394 547 412 544 q 360 556 376 550 q 237 622 283 573 q 191 750 192 671 q 201 845 190 802 q 235 921 213 887 q 288 980 256 955 q 359 1022 319 1004 q 519 1064 429 1053 q 708 1075 608 1075 l 957 1075 l 805 0 l 653 0 l 723 490 l 616 490 q 473 480 534 490 q 368 447 411 471 q 299 382 325 423 q 265 279 273 342 l 227 0 l 75 0 l 113 267 q 150 384 123 335 q 219 466 178 433 q 315 518 261 499 q 433 544 370 536 m 695 595 l 738 595 l 789 962 l 687 962 q 540 954 604 962 q 433 927 477 947 q 364 873 389 908 q 332 787 339 839 q 329 766 330 776 q 328 744 328 755 q 342 685 329 710 q 377 645 355 661 q 427 619 398 629 q 489 604 456 609 q 557 598 522 599 q 625 596 592 596 l 695 595 "},"¸":{"x_min":7.28125,"x_max":317.921875,"ha":339,"o":"m 7 -345 l 11 -285 q 56 -303 31 -294 q 110 -315 81 -313 q 126 -316 118 -316 q 141 -315 134 -316 q 181 -307 165 -315 q 207 -288 197 -300 q 220 -262 216 -277 q 225 -233 225 -248 q 180 -176 224 -200 q 48 -153 137 -153 l 108 24 l 174 24 q 130 -93 137 -67 q 167 -95 146 -93 q 208 -102 187 -97 q 248 -117 228 -108 q 283 -141 268 -127 q 308 -175 298 -155 q 317 -221 317 -194 l 317 -226 q 301 -299 316 -267 q 261 -353 286 -331 q 202 -388 236 -376 q 130 -399 168 -399 q 58 -389 89 -399 q 7 -365 28 -378 l 7 -345 "},"a":{"x_min":103,"x_max":770.90625,"ha":762,"o":"m 770 711 l 667 0 l 564 0 l 560 128 q 519 69 542 96 q 467 24 495 43 q 405 -3 438 6 q 337 -13 372 -13 q 229 8 273 -13 q 156 69 184 30 q 115 159 128 107 q 103 272 103 211 q 116 385 103 326 q 156 502 130 445 q 219 611 182 560 q 301 702 256 663 q 401 764 347 741 q 514 787 454 787 q 578 781 545 787 q 641 766 611 775 q 697 746 672 757 q 739 727 723 736 l 770 711 m 235 280 q 270 136 235 181 q 376 92 304 92 q 436 103 408 92 q 490 131 465 114 q 533 168 514 148 q 563 203 552 187 l 632 659 q 619 664 630 660 q 593 671 609 667 q 558 678 577 675 q 519 681 538 681 q 450 666 485 681 q 384 625 416 651 q 325 560 353 598 q 278 479 298 523 q 246 384 258 434 q 235 280 235 333 "},"Ę":{"x_min":85.453125,"x_max":856.59375,"ha":752,"o":"m 714 0 l 85 0 l 237 1075 l 856 1075 l 839 962 l 366 962 l 316 614 l 733 614 l 719 518 l 303 518 l 245 112 l 732 112 l 714 0 m 621 -351 q 584 -360 604 -357 q 544 -366 566 -363 q 497 -369 521 -369 q 433 -362 465 -369 q 374 -338 400 -355 q 331 -289 348 -320 q 315 -207 315 -257 q 323 -160 315 -182 q 345 -117 331 -137 q 377 -79 359 -97 q 413 -47 395 -62 q 512 13 456 -14 l 584 13 q 496 -57 534 -20 q 463 -91 479 -73 q 435 -129 447 -109 q 415 -169 422 -148 q 407 -210 407 -189 q 417 -248 407 -233 q 441 -272 426 -263 q 475 -284 456 -281 q 513 -288 494 -288 q 552 -285 533 -288 q 587 -279 572 -283 q 621 -271 605 -276 l 621 -351 "},"=":{"x_min":120,"x_max":557.453125,"ha":657,"o":"m 541 304 l 128 304 l 143 414 l 557 414 l 541 304 m 534 246 l 120 246 l 135 356 l 549 356 l 534 246 "},"Ћ":{"x_min":135.453125,"x_max":992.1875,"ha":1006,"o":"m 430 0 l 278 0 l 416 959 l 135 959 l 152 1075 l 877 1075 l 860 959 l 569 959 l 524 654 l 769 654 q 861 641 820 654 q 931 600 902 628 q 976 531 960 572 q 991 433 991 489 q 991 406 992 421 q 983 365 990 391 q 975 307 980 340 q 964 230 970 274 q 950 129 958 186 q 932 0 942 73 l 783 0 q 802 130 793 73 q 816 232 810 187 q 827 309 822 276 q 836 368 832 342 q 839 401 839 390 q 840 420 840 412 q 830 476 840 453 q 805 514 821 499 q 769 535 790 529 q 725 542 748 542 l 508 542 l 430 0 "},"˚":{"x_min":85,"x_max":405.3125,"ha":467,"o":"m 256 340 q 218 331 235 340 q 187 307 200 322 q 166 273 173 292 q 158 233 158 254 q 179 178 159 200 q 233 156 198 156 q 270 164 252 156 q 301 188 288 173 q 322 222 315 203 q 330 262 330 242 q 309 317 329 295 q 256 340 289 340 m 85 221 q 99 294 85 260 q 139 353 114 327 q 197 393 164 378 q 266 408 230 408 q 321 398 296 408 q 365 368 346 387 q 394 325 383 350 q 405 272 404 300 q 391 200 405 233 q 351 141 376 166 q 294 101 327 116 q 224 87 261 87 q 168 97 194 87 q 124 124 143 107 q 95 167 106 142 q 85 221 85 191 "},"ú":{"x_min":121,"x_max":805.0625,"ha":795,"o":"m 335 773 q 330 734 334 764 q 320 661 326 704 q 307 566 314 618 q 293 463 300 515 q 280 365 286 412 q 269 282 274 317 q 265 254 267 265 q 264 239 264 243 q 274 166 263 195 q 311 111 285 129 q 375 92 336 93 q 481 117 430 92 q 583 188 532 141 l 664 773 l 805 773 l 697 0 l 594 0 q 589 59 591 30 q 585 118 587 87 q 473 20 532 54 q 348 -13 414 -13 q 121 212 121 -13 q 126 261 121 222 q 138 353 131 300 q 149 439 144 395 q 161 528 155 484 q 172 612 167 571 q 182 686 178 653 q 190 742 187 719 q 194 773 193 765 l 335 773 m 545 872 l 444 872 l 571 1305 l 758 1305 l 545 872 "},"д":{"x_min":113,"x_max":794.546875,"ha":812,"o":"m 644 482 q 637 552 644 519 q 617 614 631 585 q 597 639 609 627 q 570 660 585 651 q 535 675 555 670 q 492 681 515 681 q 422 665 454 681 q 362 620 389 649 q 312 554 334 592 q 276 471 291 516 q 253 378 261 427 q 245 282 245 330 q 401 92 245 92 q 479 110 444 92 q 540 159 514 128 q 586 230 567 190 q 618 314 605 270 q 636 401 630 357 q 644 482 643 444 m 498 787 q 551 779 523 787 q 604 751 580 770 q 645 700 628 732 q 668 623 663 669 q 668 645 668 629 q 668 679 668 661 q 667 715 668 698 q 666 741 667 733 q 646 849 664 805 q 595 920 628 893 q 512 959 561 947 q 398 971 463 971 l 379 990 l 369 1067 q 407 1069 379 1067 q 471 1070 435 1071 q 604 1043 546 1067 q 703 975 662 1019 q 767 871 744 932 q 793 733 790 810 q 794 651 794 693 q 790 564 794 609 q 771 421 784 492 q 735 286 758 350 q 680 167 712 222 q 604 72 647 112 q 507 9 561 32 q 384 -13 452 -13 q 265 10 316 -13 q 180 76 214 34 q 129 176 146 118 q 113 302 113 234 q 125 419 113 360 q 160 531 137 477 q 216 632 183 585 q 292 713 249 679 q 387 767 335 748 q 498 787 439 787 "},"¯":{"x_min":59.6875,"x_max":530.375,"ha":636,"o":"m 516 0 l 59 0 l 73 115 l 530 115 l 516 0 "},"Z":{"x_min":61.765625,"x_max":876.4375,"ha":766,"o":"m 876 1073 l 860 953 l 227 112 l 743 112 l 728 0 l 61 0 l 80 132 l 704 960 l 195 960 l 210 1073 l 876 1073 "},"u":{"x_min":121,"x_max":805.0625,"ha":795,"o":"m 335 773 q 330 734 334 764 q 320 661 326 704 q 307 566 314 618 q 293 463 300 515 q 280 365 286 412 q 269 282 274 317 q 265 254 267 265 q 264 239 264 243 q 274 166 263 195 q 311 111 285 129 q 375 92 336 93 q 481 117 430 92 q 583 188 532 141 l 664 773 l 805 773 l 697 0 l 594 0 q 589 59 591 30 q 585 118 587 87 q 473 20 532 54 q 348 -13 414 -13 q 121 212 121 -13 q 126 261 121 222 q 138 353 131 300 q 149 439 144 395 q 161 528 155 484 q 172 612 167 571 q 182 686 178 653 q 190 742 187 719 q 194 773 193 765 l 335 773 "},"k":{"x_min":86.8125,"x_max":795.5625,"ha":702,"o":"m 263 287 l 222 0 l 86 0 l 244 1108 l 383 1123 l 282 421 l 645 773 l 795 773 l 427 415 l 691 0 l 548 0 l 332 341 l 263 287 "},"Ù":{"x_min":125,"x_max":1020.84375,"ha":957,"o":"m 490 88 q 608 108 559 88 q 693 174 658 128 q 751 296 728 220 q 790 484 774 372 l 874 1075 l 1020 1075 l 937 487 q 872 235 916 334 q 769 77 829 135 q 634 -3 709 19 q 474 -27 559 -27 q 326 -1 391 -27 q 216 73 261 23 q 148 196 171 122 q 125 366 125 269 q 125 384 125 375 q 125 404 125 393 q 128 430 126 415 q 133 464 130 444 q 145 557 138 503 q 162 683 152 610 q 185 853 172 757 q 215 1075 198 949 l 359 1075 q 329 850 342 948 q 306 678 316 753 q 288 549 296 603 q 276 454 281 495 q 271 418 273 433 q 268 391 269 403 q 268 371 268 380 q 268 354 268 362 q 279 245 268 294 q 316 161 290 196 q 384 107 342 126 q 490 88 426 88 m 744 1158 l 672 1158 l 516 1594 l 717 1594 l 744 1158 "},"З":{"x_min":185.046875,"x_max":899.703125,"ha":992,"o":"m 640 548 q 726 518 690 541 q 803 445 773 494 q 834 331 832 397 q 806 182 834 249 q 731 71 778 116 q 611 -1 680 22 q 457 -25 541 -25 q 347 -15 400 -25 q 242 15 293 -5 q 211 28 227 22 q 185 42 196 35 l 240 161 q 285 140 258 151 q 343 119 312 128 q 406 104 374 110 q 467 98 438 98 q 561 117 520 98 q 632 166 603 135 q 676 239 661 197 q 691 325 691 280 q 519 484 690 465 q 450 489 486 489 l 388 489 l 406 604 l 465 604 q 497 605 481 604 q 527 608 512 606 q 702 682 642 621 q 762 848 762 744 q 728 938 761 906 q 620 972 695 970 q 593 972 607 972 q 564 970 580 972 q 505 962 534 968 q 453 950 477 957 q 408 935 428 943 q 374 921 388 927 l 355 1034 q 392 1050 368 1041 q 445 1068 415 1060 q 510 1084 475 1077 q 580 1093 545 1091 q 635 1095 609 1096 q 740 1081 692 1094 q 823 1040 788 1068 q 878 970 858 1012 q 899 867 899 927 q 889 774 900 819 q 857 692 878 730 q 805 625 836 655 q 737 577 775 596 q 640 548 692 554 "},"Ů":{"x_min":125,"x_max":1020.84375,"ha":957,"o":"m 490 88 q 608 108 559 88 q 693 174 658 128 q 751 296 728 220 q 790 484 774 372 l 874 1075 l 1020 1075 l 937 487 q 872 235 916 334 q 769 77 829 135 q 634 -3 709 19 q 474 -27 559 -27 q 326 -1 391 -27 q 216 73 261 23 q 148 196 171 122 q 125 366 125 269 q 125 384 125 375 q 125 404 125 393 q 128 430 126 415 q 133 464 130 444 q 145 557 138 503 q 162 683 152 610 q 185 853 172 757 q 215 1075 198 949 l 359 1075 q 329 850 342 948 q 306 678 316 753 q 288 549 296 603 q 276 454 281 495 q 271 418 273 433 q 268 391 269 403 q 268 371 268 380 q 268 354 268 362 q 279 245 268 294 q 316 161 290 196 q 384 107 342 126 q 490 88 426 88 m 688 1435 q 650 1426 667 1435 q 619 1402 632 1417 q 598 1368 605 1387 q 590 1328 590 1349 q 611 1273 591 1295 q 665 1251 630 1251 q 702 1259 684 1251 q 733 1283 720 1268 q 754 1317 747 1298 q 762 1357 762 1337 q 741 1412 761 1390 q 688 1435 721 1435 m 517 1316 q 531 1389 517 1355 q 571 1448 546 1422 q 629 1488 596 1473 q 698 1503 662 1503 q 753 1493 728 1503 q 797 1463 778 1482 q 826 1420 815 1445 q 837 1367 836 1395 q 823 1295 837 1328 q 783 1236 808 1261 q 726 1196 759 1211 q 656 1182 693 1182 q 600 1192 626 1182 q 556 1219 575 1202 q 527 1262 538 1237 q 517 1316 517 1286 "},"¢":{"x_min":111.984375,"x_max":715.59375,"ha":728,"o":"m 112 299 q 133 472 111 389 q 198 622 155 556 q 304 733 241 688 q 447 791 366 778 q 475 796 461 794 q 506 798 490 797 l 520 893 l 590 891 l 576 793 q 650 776 615 789 q 715 748 686 763 l 703 638 q 690 645 701 639 q 662 658 680 650 q 617 672 643 665 q 560 682 591 679 l 473 101 q 525 111 499 104 q 573 125 551 117 l 619 141 l 616 34 q 536 5 577 18 q 457 -11 496 -6 l 443 -101 l 374 -98 l 386 -13 q 273 10 324 -11 q 187 71 223 31 q 132 168 152 110 q 112 299 112 225 m 489 686 q 477 686 486 686 q 462 684 468 686 q 370 648 410 681 q 304 561 331 614 q 263 440 277 507 q 249 302 249 372 q 289 159 250 207 q 404 103 328 111 l 489 686 "},"Ş":{"x_min":106.734375,"x_max":851.953125,"ha":839,"o":"m 818 896 q 777 920 803 907 q 716 945 750 934 q 646 964 683 957 q 573 972 609 972 q 458 959 506 972 q 381 924 411 947 q 337 869 350 902 q 323 797 323 837 q 331 750 323 770 q 355 716 339 731 q 396 690 371 701 q 452 667 420 680 l 610 602 q 695 560 658 584 q 757 505 732 536 q 794 436 782 475 q 807 349 807 398 q 783 206 807 274 q 708 86 759 138 q 580 3 657 34 q 396 -27 502 -27 q 303 -20 348 -27 q 218 -3 257 -13 q 150 19 179 6 q 106 42 121 31 l 136 167 q 189 138 161 152 q 248 116 216 125 q 315 101 279 106 q 393 96 351 96 q 595 151 529 96 q 662 320 662 206 q 654 371 662 349 q 631 409 646 392 q 594 440 615 427 q 543 465 572 453 l 373 537 q 289 580 326 556 q 205 663 233 614 q 178 773 178 711 q 209 908 178 849 q 291 1009 240 968 q 410 1073 343 1051 q 549 1095 477 1095 q 640 1089 596 1095 q 723 1073 684 1084 q 794 1049 762 1063 q 851 1019 827 1035 l 818 896 m 323 -345 l 327 -285 q 372 -303 347 -294 q 426 -315 397 -313 q 442 -316 434 -316 q 457 -315 450 -316 q 497 -307 481 -315 q 523 -288 513 -300 q 536 -262 532 -277 q 541 -233 541 -248 q 496 -176 540 -200 q 364 -153 453 -153 l 424 24 l 490 24 q 446 -93 453 -67 q 483 -95 462 -93 q 524 -102 503 -97 q 564 -117 544 -108 q 599 -141 584 -127 q 624 -175 614 -155 q 633 -221 633 -194 l 633 -226 q 617 -299 632 -267 q 577 -353 602 -331 q 518 -388 552 -376 q 446 -399 484 -399 q 374 -389 405 -399 q 323 -365 344 -378 l 323 -345 "},"é":{"x_min":103,"x_max":745.15625,"ha":709,"o":"m 267 451 q 414 468 354 461 q 513 483 474 475 q 574 498 553 491 q 605 511 595 505 q 617 523 615 518 q 619 534 619 529 q 586 644 619 607 q 496 682 554 682 q 415 666 453 682 q 349 620 378 649 q 298 547 319 590 q 267 451 278 504 m 644 66 q 517 6 584 26 q 390 -13 450 -13 q 267 6 320 -13 q 176 65 213 27 q 121 158 140 103 q 103 282 103 213 q 114 403 103 342 q 148 519 126 463 q 204 624 171 575 q 281 709 238 673 q 378 767 324 746 q 495 788 432 788 q 684 720 624 788 q 745 525 745 653 q 742 498 745 513 q 724 468 739 483 q 679 438 710 453 q 592 409 648 423 q 454 387 537 396 q 254 365 372 378 q 248 319 250 341 q 246 279 246 298 q 292 138 246 185 q 420 92 338 92 q 522 113 473 92 q 619 171 570 134 l 644 66 m 504 874 l 403 874 l 530 1307 l 717 1307 l 504 874 "},"B":{"x_min":85.453125,"x_max":875.25,"ha":866,"o":"m 454 629 q 581 640 527 629 q 671 675 635 651 q 725 739 707 699 q 743 837 743 779 q 722 898 743 874 q 664 937 701 923 q 578 957 628 951 q 470 962 528 962 l 366 962 l 319 629 l 454 629 m 380 112 q 523 123 460 112 q 629 162 586 134 q 696 237 673 189 q 720 355 720 284 q 711 419 720 388 q 675 473 703 450 q 594 510 647 496 q 452 524 541 524 l 304 524 l 245 112 l 380 112 m 857 357 q 828 208 857 274 q 737 96 798 142 q 583 24 676 49 q 360 0 489 0 l 85 0 l 238 1075 l 472 1075 q 659 1061 582 1075 q 783 1020 735 1048 q 853 951 831 993 q 875 853 875 909 q 861 749 875 793 q 817 672 846 704 q 743 620 787 641 q 637 587 698 599 q 803 515 747 571 q 857 357 858 458 "},"…":{"x_min":70.75,"x_max":882.453125,"ha":957,"o":"m 254 26 q 174 6 217 14 q 85 -2 131 -2 q 73 42 77 17 q 71 98 69 67 q 91 198 78 151 q 251 208 169 208 q 262 164 258 189 q 264 107 266 138 q 259 67 261 87 q 254 26 257 47 m 560 26 q 480 6 523 14 q 391 -2 437 -2 q 379 42 383 17 q 377 98 375 67 q 385 149 380 124 q 398 198 390 175 q 557 208 475 208 q 569 163 565 189 q 570 107 572 138 l 560 26 m 871 26 q 791 6 834 14 q 702 -2 748 -2 q 690 42 694 17 q 689 98 686 67 q 696 149 691 124 q 708 198 701 175 q 868 208 786 208 q 880 164 876 189 q 881 107 883 138 q 876 67 878 87 q 871 26 874 47 "},"В":{"x_min":85.453125,"x_max":875.25,"ha":910,"o":"m 454 629 q 581 640 527 629 q 671 675 635 651 q 725 739 707 699 q 743 837 743 779 q 722 898 743 874 q 664 937 701 923 q 578 957 628 951 q 470 962 528 962 l 366 962 l 319 629 l 454 629 m 380 112 q 523 123 460 112 q 629 162 586 134 q 696 237 673 189 q 720 355 720 284 q 711 419 720 388 q 675 473 703 450 q 594 510 647 496 q 452 524 541 524 l 304 524 l 245 112 l 380 112 m 857 357 q 828 208 857 274 q 737 96 798 142 q 583 24 676 49 q 360 0 489 0 l 85 0 l 238 1075 l 472 1075 q 659 1061 582 1075 q 783 1020 735 1048 q 853 951 831 993 q 875 853 875 909 q 861 749 875 793 q 817 672 846 704 q 743 620 787 641 q 637 587 698 599 q 803 515 747 571 q 857 357 858 458 "},"І":{"x_min":98.09375,"x_max":648.8125,"ha":618,"o":"m 110 82 l 235 82 l 366 978 l 242 978 l 256 1075 l 648 1075 l 635 978 l 509 978 l 377 82 l 503 82 l 490 0 l 98 0 l 110 82 "},"ē":{"x_min":103,"x_max":757.75,"ha":731,"o":"m 267 451 q 414 468 354 461 q 513 483 474 475 q 574 498 553 491 q 605 511 595 505 q 617 523 615 518 q 619 534 619 529 q 586 644 619 607 q 496 682 554 682 q 415 666 453 682 q 349 620 378 649 q 298 547 319 590 q 267 451 278 504 m 644 66 q 517 6 584 26 q 390 -13 450 -13 q 267 6 320 -13 q 176 65 213 27 q 121 158 140 103 q 103 282 103 213 q 114 403 103 342 q 148 519 126 463 q 204 624 171 575 q 281 709 238 673 q 378 767 324 746 q 495 788 432 788 q 684 720 624 788 q 745 525 745 653 q 742 498 745 513 q 724 468 739 483 q 679 438 710 453 q 592 409 648 423 q 454 387 537 396 q 254 365 372 378 q 248 319 250 341 q 246 279 246 298 q 292 138 246 185 q 420 92 338 92 q 522 113 473 92 q 619 171 570 134 l 644 66 m 742 878 l 286 878 l 302 993 l 757 993 l 742 878 "},"H":{"x_min":84.78125,"x_max":1020.71875,"ha":966,"o":"m 722 0 l 795 511 l 302 511 l 229 0 l 84 0 l 239 1075 l 383 1075 l 316 607 l 809 607 l 876 1075 l 1020 1075 l 866 0 l 722 0 "},"î":{"x_min":103.34375,"x_max":504.859375,"ha":381,"o":"m 256 0 l 119 0 l 230 773 l 367 773 l 256 0 m 320 1211 l 417 1211 l 504 833 l 399 833 l 349 1049 l 227 833 l 103 833 l 320 1211 "},"¥":{"x_min":129.9375,"x_max":888.109375,"ha":788,"o":"m 440 573 l 745 1075 l 888 1075 l 537 513 l 697 513 l 685 416 l 502 416 l 480 337 l 673 337 l 661 240 l 468 240 l 435 0 l 290 0 l 324 240 l 129 240 l 142 337 l 339 337 l 342 416 l 154 416 l 166 513 l 331 513 l 134 1075 l 277 1075 l 440 573 "},"Ĥ":{"x_min":84.78125,"x_max":1020.71875,"ha":966,"o":"m 722 0 l 795 511 l 302 511 l 229 0 l 84 0 l 239 1075 l 383 1075 l 316 607 l 809 607 l 876 1075 l 1020 1075 l 866 0 l 722 0 m 659 1526 l 756 1526 l 843 1149 l 738 1149 l 688 1364 l 566 1149 l 442 1149 l 659 1526 "},"U":{"x_min":125,"x_max":1020.84375,"ha":957,"o":"m 490 88 q 608 108 559 88 q 693 174 658 128 q 751 296 728 220 q 790 484 774 372 l 874 1075 l 1020 1075 l 937 487 q 872 235 916 334 q 769 77 829 135 q 634 -3 709 19 q 474 -27 559 -27 q 326 -1 391 -27 q 216 73 261 23 q 148 196 171 122 q 125 366 125 269 q 125 384 125 375 q 125 404 125 393 q 128 430 126 415 q 133 464 130 444 q 145 557 138 503 q 162 683 152 610 q 185 853 172 757 q 215 1075 198 949 l 359 1075 q 329 850 342 948 q 306 678 316 753 q 288 549 296 603 q 276 454 281 495 q 271 418 273 433 q 268 391 269 403 q 268 371 268 380 q 268 354 268 362 q 279 245 268 294 q 316 161 290 196 q 384 107 342 126 q 490 88 426 88 "},"Ñ":{"x_min":86.8125,"x_max":1072.28125,"ha":1022,"o":"m 921 0 l 727 0 l 604 307 l 357 924 l 227 0 l 86 0 l 238 1075 l 435 1075 l 557 769 l 804 152 l 933 1075 l 1072 1075 l 921 0 m 817 1144 q 748 1157 781 1144 q 684 1187 715 1171 q 629 1217 654 1203 q 585 1231 604 1231 q 567 1228 576 1231 q 552 1219 559 1226 q 541 1198 545 1212 q 537 1162 537 1185 l 430 1162 q 443 1242 431 1207 q 476 1299 455 1276 q 525 1332 497 1321 q 586 1343 553 1343 q 650 1327 621 1343 q 706 1297 679 1312 q 758 1269 733 1282 q 806 1256 782 1256 q 826 1258 817 1256 q 841 1268 835 1261 q 850 1288 847 1275 q 855 1321 854 1301 l 962 1321 q 949 1239 961 1273 q 918 1184 937 1205 q 872 1153 898 1163 q 817 1144 846 1144 "},"F":{"x_min":85.453125,"x_max":850.484375,"ha":737,"o":"m 303 512 l 230 0 l 85 0 l 238 1075 l 850 1075 l 834 959 l 366 959 l 316 608 l 741 608 l 728 512 l 303 512 "},"ĵ":{"x_min":20.4375,"x_max":540.078125,"ha":412,"o":"m 20 -152 q 86 -100 59 -127 q 130 -40 113 -73 q 159 33 148 -7 q 177 127 170 74 l 267 773 l 409 773 l 318 112 q 283 -19 307 41 q 223 -126 259 -79 q 142 -205 187 -173 q 44 -250 97 -237 l 20 -152 m 359 1231 l 453 1231 l 540 853 l 429 853 l 385 1069 l 263 853 l 139 853 l 359 1231 "},"ā":{"x_min":103,"x_max":774.75,"ha":762,"o":"m 770 711 l 667 0 l 564 0 l 560 128 q 519 69 542 96 q 467 24 495 43 q 405 -3 438 6 q 337 -13 372 -13 q 229 8 273 -13 q 156 69 184 30 q 115 159 128 107 q 103 272 103 211 q 116 385 103 326 q 156 502 130 445 q 219 611 182 560 q 301 702 256 663 q 401 764 347 741 q 514 787 454 787 q 578 781 545 787 q 641 766 611 775 q 697 746 672 757 q 739 727 723 736 l 770 711 m 235 280 q 270 136 235 181 q 376 92 304 92 q 436 103 408 92 q 490 131 465 114 q 533 168 514 148 q 563 203 552 187 l 632 659 q 619 664 630 660 q 593 671 609 667 q 558 678 577 675 q 519 681 538 681 q 450 666 485 681 q 384 625 416 651 q 325 560 353 598 q 278 479 298 523 q 246 384 258 434 q 235 280 235 333 m 759 878 l 303 878 l 319 993 l 774 993 l 759 878 "},"Ĩ":{"x_min":84.09375,"x_max":709.84375,"ha":583,"o":"m 96 82 l 221 82 l 352 978 l 228 978 l 242 1075 l 634 1075 l 621 978 l 495 978 l 363 82 l 489 82 l 476 0 l 84 0 l 96 82 m 564 1162 q 495 1175 528 1162 q 431 1205 462 1189 q 376 1235 401 1221 q 332 1249 351 1249 q 314 1246 323 1249 q 299 1237 306 1244 q 288 1216 292 1230 q 284 1180 284 1203 l 177 1180 q 190 1260 178 1225 q 223 1317 202 1294 q 272 1350 244 1339 q 333 1361 300 1361 q 397 1345 368 1361 q 453 1315 426 1330 q 505 1287 480 1300 q 553 1274 529 1274 q 573 1276 564 1274 q 588 1286 582 1279 q 597 1306 594 1293 q 602 1339 601 1319 l 709 1339 q 696 1257 708 1291 q 665 1202 684 1223 q 619 1171 645 1181 q 564 1162 593 1162 "},"ă":{"x_min":103,"x_max":770.90625,"ha":762,"o":"m 770 711 l 667 0 l 564 0 l 560 128 q 519 69 542 96 q 467 24 495 43 q 405 -3 438 6 q 337 -13 372 -13 q 229 8 273 -13 q 156 69 184 30 q 115 159 128 107 q 103 272 103 211 q 116 385 103 326 q 156 502 130 445 q 219 611 182 560 q 301 702 256 663 q 401 764 347 741 q 514 787 454 787 q 578 781 545 787 q 641 766 611 775 q 697 746 672 757 q 739 727 723 736 l 770 711 m 235 280 q 270 136 235 181 q 376 92 304 92 q 436 103 408 92 q 490 131 465 114 q 533 168 514 148 q 563 203 552 187 l 632 659 q 619 664 630 660 q 593 671 609 667 q 558 678 577 675 q 519 681 538 681 q 450 666 485 681 q 384 625 416 651 q 325 560 353 598 q 278 479 298 523 q 246 384 258 434 q 235 280 235 333 m 736 1037 q 734 1025 735 1030 q 731 1013 733 1019 q 665 900 714 939 q 528 861 616 861 q 410 895 447 861 q 373 994 373 929 q 373 1014 372 1003 q 375 1037 374 1025 l 466 1037 q 464 1016 464 1025 q 468 991 463 1002 q 480 971 472 979 q 542 941 496 941 q 612 965 585 941 q 647 1037 639 990 l 736 1037 "},"*":{"x_min":99.09375,"x_max":634.28125,"ha":619,"o":"m 373 904 l 494 1080 l 566 1033 l 440 850 l 634 850 l 621 767 l 429 767 l 506 591 l 409 544 l 346 714 l 230 545 l 159 591 l 282 771 l 99 771 l 111 856 l 294 856 l 230 1031 l 316 1078 l 373 904 "},"†":{"x_min":-3.875,"x_max":555.890625,"ha":372,"o":"m 194 733 l -3 733 l 16 850 l 210 850 l 238 1048 l 375 1048 l 347 848 l 555 848 l 535 733 l 331 733 l 231 0 l 94 0 l 194 733 "},"Ќ":{"x_min":86.8125,"x_max":975.234375,"ha":846,"o":"m 584 1045 l 483 1045 l 610 1478 l 797 1478 l 584 1045 m 238 0 l 86 0 l 238 1075 l 390 1075 l 322 594 l 447 594 l 805 1075 l 975 1075 l 645 645 q 615 605 630 621 q 584 577 600 589 q 553 558 569 565 q 517 546 536 551 q 572 516 548 538 q 620 454 597 494 l 865 0 l 699 0 l 430 498 l 309 498 l 238 0 "},"°":{"x_min":94,"x_max":410.109375,"ha":464,"o":"m 266 603 q 224 593 244 603 q 189 567 204 583 q 166 530 174 551 q 157 486 157 509 q 180 425 158 449 q 240 400 203 400 q 281 410 261 400 q 315 435 301 419 q 338 473 330 452 q 347 518 347 494 q 324 578 346 554 q 266 603 303 603 m 94 476 q 108 549 94 515 q 148 608 123 583 q 205 648 173 634 q 274 663 238 663 q 328 653 303 663 q 371 625 353 643 q 399 582 389 607 q 410 529 410 558 q 396 456 410 490 q 358 396 383 421 q 302 355 334 370 q 233 341 270 341 q 178 351 203 341 q 134 379 152 361 q 105 422 116 397 q 94 476 94 446 "},"å":{"x_min":103,"x_max":770.90625,"ha":762,"o":"m 770 711 l 667 0 l 564 0 l 560 128 q 519 69 542 96 q 467 24 495 43 q 405 -3 438 6 q 337 -13 372 -13 q 229 8 273 -13 q 156 69 184 30 q 115 159 128 107 q 103 272 103 211 q 116 385 103 326 q 156 502 130 445 q 219 611 182 560 q 301 702 256 663 q 401 764 347 741 q 514 787 454 787 q 578 781 545 787 q 641 766 611 775 q 697 746 672 757 q 739 727 723 736 l 770 711 m 235 280 q 270 136 235 181 q 376 92 304 92 q 436 103 408 92 q 490 131 465 114 q 533 168 514 148 q 563 203 552 187 l 632 659 q 619 664 630 660 q 593 671 609 667 q 558 678 577 675 q 519 681 538 681 q 450 666 485 681 q 384 625 416 651 q 325 560 353 598 q 278 479 298 523 q 246 384 258 434 q 235 280 235 333 m 577 1127 q 539 1118 556 1127 q 508 1094 521 1109 q 487 1060 494 1079 q 479 1020 479 1041 q 500 965 480 987 q 554 943 519 943 q 591 951 573 943 q 622 975 609 960 q 643 1009 636 990 q 651 1049 651 1029 q 630 1104 650 1082 q 577 1127 610 1127 m 406 1008 q 420 1081 406 1047 q 460 1140 435 1114 q 518 1180 485 1165 q 587 1195 551 1195 q 642 1185 617 1195 q 686 1155 667 1174 q 715 1112 704 1137 q 726 1059 725 1087 q 712 987 726 1020 q 672 928 697 953 q 615 888 648 903 q 545 874 582 874 q 489 884 515 874 q 445 911 464 894 q 416 954 427 929 q 406 1008 406 978 "},"0":{"x_min":121,"x_max":855.671875,"ha":874,"o":"m 445 95 q 533 111 494 95 q 603 155 572 127 q 655 220 633 183 q 690 300 676 257 q 711 387 705 342 q 718 475 718 432 q 670 652 718 596 q 528 709 623 709 q 407 677 458 709 q 325 595 357 646 q 276 478 292 543 q 258 343 260 412 q 263 254 255 298 q 292 174 270 209 q 351 117 313 139 q 445 95 388 95 m 543 824 q 687 797 627 824 q 783 724 746 770 q 838 617 821 678 q 855 489 855 557 q 844 367 855 428 q 810 249 833 305 q 753 143 788 192 q 671 57 718 94 q 564 0 624 21 q 431 -20 504 -20 q 283 9 343 -20 q 188 89 224 39 q 136 204 152 139 q 121 340 121 269 q 132 458 121 399 q 168 571 144 517 q 226 671 191 625 q 308 752 261 717 q 414 805 355 786 q 543 824 473 824 "},"ō":{"x_min":104,"x_max":786.671875,"ha":783,"o":"m 104 291 q 114 407 104 348 q 145 521 124 466 q 199 625 167 576 q 276 709 232 673 q 378 766 321 746 q 506 787 435 787 q 639 762 586 787 q 726 696 693 738 q 772 600 758 654 q 786 486 786 545 q 758 294 786 384 q 677 134 729 203 q 550 26 624 66 q 384 -13 475 -13 q 268 7 319 -13 q 179 67 216 27 q 123 163 143 106 q 104 291 104 219 m 400 92 q 483 109 447 92 q 547 156 520 126 q 594 224 575 185 q 625 305 613 262 q 643 392 638 348 q 649 477 649 437 q 640 558 649 521 q 614 623 632 596 q 565 666 595 650 q 490 681 535 681 q 406 663 442 681 q 341 613 369 644 q 294 542 313 582 q 263 459 275 502 q 246 373 251 416 q 241 293 241 329 q 249 214 241 251 q 276 150 257 177 q 325 107 295 123 q 400 92 356 92 m 766 878 l 310 878 l 326 993 l 781 993 l 766 878 "},"”":{"x_min":202,"x_max":535.6875,"ha":599,"o":"m 312 857 l 333 1079 l 535 1079 l 515 859 q 496 785 511 816 q 457 732 481 754 q 402 695 433 710 q 334 670 371 680 l 303 739 q 371 782 344 752 q 405 857 398 813 l 312 857 m 210 857 l 231 1079 l 434 1079 l 413 859 q 394 785 409 816 q 355 732 379 754 q 300 695 331 710 q 233 670 269 680 l 202 739 q 269 782 242 752 q 303 857 296 813 l 210 857 "},"ŵ":{"x_min":122.765625,"x_max":1029.46875,"ha":960,"o":"m 599 0 l 565 646 l 338 0 l 185 0 l 122 773 l 246 773 l 296 134 l 514 773 l 637 773 l 681 113 l 919 773 l 1029 773 l 747 0 l 599 0 m 601 1231 l 698 1231 l 785 854 l 680 854 l 630 1069 l 508 854 l 384 854 l 601 1231 "},"Ķ":{"x_min":86.8125,"x_max":956.5625,"ha":827,"o":"m 806 1075 l 956 1075 l 547 543 l 601 445 l 847 0 l 690 0 l 415 498 l 301 498 l 231 0 l 86 0 l 238 1075 l 383 1075 l 315 594 l 435 594 l 806 1075 m 328 -320 l 360 -99 l 562 -99 l 532 -319 q 512 -393 528 -362 q 473 -446 497 -424 q 418 -483 449 -468 q 351 -508 387 -497 l 320 -440 q 387 -396 360 -426 q 421 -320 415 -365 l 328 -320 "},"ö":{"x_min":104,"x_max":786.671875,"ha":783,"o":"m 104 291 q 114 407 104 348 q 145 521 124 466 q 199 625 167 576 q 276 709 232 673 q 378 766 321 746 q 506 787 435 787 q 639 762 586 787 q 726 696 693 738 q 772 600 758 654 q 786 486 786 545 q 758 294 786 384 q 677 134 729 203 q 550 26 624 66 q 384 -13 475 -13 q 268 7 319 -13 q 179 67 216 27 q 123 163 143 106 q 104 291 104 219 m 400 92 q 483 109 447 92 q 547 156 520 126 q 594 224 575 185 q 625 305 613 262 q 643 392 638 348 q 649 477 649 437 q 640 558 649 521 q 614 623 632 596 q 565 666 595 650 q 490 681 535 681 q 406 663 442 681 q 341 613 369 644 q 294 542 313 582 q 263 459 275 502 q 246 373 251 416 q 241 293 241 329 q 249 214 241 251 q 276 150 257 177 q 325 107 295 123 q 400 92 356 92 m 437 981 q 428 940 436 960 q 405 906 419 921 q 374 882 392 891 q 338 874 356 874 q 308 880 322 874 q 283 897 293 886 q 267 922 273 907 q 262 954 262 937 q 270 996 262 976 q 292 1032 278 1016 q 325 1056 306 1047 q 363 1065 343 1065 q 416 1043 396 1065 q 437 986 436 1021 l 437 981 m 751 980 q 742 940 751 959 q 720 905 733 920 q 688 882 706 890 q 652 873 671 873 q 598 896 619 873 q 577 954 577 919 q 585 995 577 975 q 607 1031 593 1015 q 640 1055 621 1046 q 678 1065 658 1065 q 730 1042 710 1065 q 751 985 751 1019 l 751 980 "},"ǽ":{"x_min":103,"x_max":1202.15625,"ha":1153,"o":"m 1101 64 q 974 6 1041 25 q 847 -13 907 -13 q 697 20 755 -13 q 606 118 639 54 q 549 66 582 90 q 479 24 516 42 q 405 -3 442 6 q 337 -13 368 -13 q 230 7 274 -13 q 157 67 186 29 q 116 158 129 105 q 103 272 103 210 q 116 388 103 328 q 156 505 130 448 q 219 614 182 563 q 304 704 257 665 q 406 765 351 742 q 524 787 461 787 q 620 778 578 787 q 692 756 662 768 q 740 733 723 744 q 763 719 757 722 q 855 770 805 752 q 965 788 905 788 q 1142 722 1081 788 q 1202 527 1202 655 q 1199 499 1202 514 q 1181 469 1196 484 q 1136 438 1167 454 q 1051 410 1106 423 q 912 387 995 396 q 710 364 830 378 q 705 319 707 341 q 703 278 703 297 q 749 137 703 183 q 877 90 795 90 q 979 111 930 90 q 1076 169 1027 133 l 1101 64 m 235 276 q 270 135 235 179 q 374 92 304 92 q 431 102 401 92 q 488 127 460 111 q 539 160 515 142 q 578 195 562 178 q 572 236 574 215 q 571 280 571 257 q 579 376 571 327 q 602 471 587 424 q 639 561 617 518 q 690 643 662 605 q 676 649 688 643 q 643 663 664 655 q 592 675 622 670 q 524 681 562 681 q 417 648 469 681 q 324 560 365 615 q 259 431 284 504 q 235 276 235 357 m 725 451 q 873 468 813 461 q 971 483 933 475 q 1031 498 1010 491 q 1062 512 1053 505 q 1074 524 1072 518 q 1076 535 1076 530 q 1043 646 1076 609 q 954 684 1011 683 q 873 668 911 684 q 807 621 836 651 q 757 548 777 591 q 725 451 736 504 "},"Ļ":{"x_min":86.8125,"x_max":703.625,"ha":711,"o":"m 689 0 l 86 0 l 238 1075 l 383 1075 l 247 112 l 703 112 l 689 0 m 201 -320 l 233 -99 l 435 -99 l 405 -319 q 385 -393 401 -362 q 346 -446 370 -424 q 291 -483 322 -468 q 224 -508 260 -497 l 193 -440 q 260 -396 233 -426 q 294 -320 288 -365 l 201 -320 "},"Õ":{"x_min":134,"x_max":1002.5625,"ha":990,"o":"m 1002 694 q 963 401 1002 534 q 855 174 925 269 q 691 25 786 78 q 483 -27 596 -27 q 338 -3 402 -27 q 228 67 273 19 q 158 188 182 116 q 134 361 134 261 q 151 561 134 465 q 200 737 168 656 q 278 884 232 819 q 380 997 323 950 q 505 1069 437 1044 q 647 1094 572 1094 q 807 1066 740 1094 q 917 987 874 1038 q 981 860 961 935 q 1002 694 1002 786 m 852 696 q 840 807 852 756 q 803 894 828 857 q 735 950 777 930 q 633 971 694 971 q 525 946 574 971 q 438 880 477 922 q 370 780 399 838 q 322 655 341 722 q 294 514 303 587 q 284 364 284 440 q 339 162 284 228 q 501 96 394 96 q 608 119 559 96 q 695 184 656 143 q 763 282 734 225 q 812 406 793 339 q 842 546 832 472 q 852 696 852 620 m 788 1144 q 719 1157 752 1144 q 655 1187 686 1171 q 600 1217 625 1203 q 556 1231 575 1231 q 538 1228 547 1231 q 523 1219 530 1226 q 512 1198 516 1212 q 508 1162 508 1185 l 401 1162 q 414 1242 402 1207 q 447 1299 426 1276 q 496 1332 468 1321 q 557 1343 524 1343 q 621 1327 592 1343 q 677 1297 650 1312 q 729 1269 704 1282 q 777 1256 753 1256 q 797 1258 788 1256 q 812 1268 806 1261 q 821 1288 818 1275 q 826 1321 825 1301 l 933 1321 q 920 1239 932 1273 q 889 1184 908 1205 q 843 1153 869 1163 q 788 1144 817 1144 "},"№":{"x_min":88.171875,"x_max":1938.109375,"ha":1935,"o":"m 1540 90 q 1644 116 1601 90 q 1718 187 1687 143 q 1752 253 1738 217 q 1777 330 1767 290 q 1791 410 1786 370 q 1795 488 1795 451 q 1786 569 1795 532 q 1758 633 1778 605 q 1708 676 1739 660 q 1632 692 1677 692 q 1555 677 1590 692 q 1493 636 1520 662 q 1440 566 1463 607 q 1404 478 1418 525 q 1383 382 1390 431 q 1377 290 1376 333 q 1386 211 1377 248 q 1413 148 1394 175 q 1463 105 1432 121 q 1540 90 1494 90 m 1649 797 q 1784 773 1729 797 q 1872 707 1838 748 q 1921 611 1906 665 q 1938 498 1936 557 l 1938 485 q 1903 280 1936 372 q 1816 122 1871 188 q 1685 20 1760 56 q 1523 -15 1610 -15 q 1404 5 1458 -15 q 1314 64 1351 25 q 1255 160 1276 103 q 1234 287 1234 216 q 1238 371 1233 330 q 1255 454 1243 413 q 1306 591 1272 528 q 1389 700 1340 654 q 1504 771 1439 745 q 1649 797 1569 797 m 736 0 l 364 919 l 234 0 l 88 0 l 240 1075 l 445 1075 l 815 157 l 944 1075 l 1090 1075 l 939 0 l 736 0 "},"ć":{"x_min":103.984375,"x_max":792.703125,"ha":662,"o":"m 104 287 q 137 493 104 401 q 225 651 170 586 q 351 752 280 716 q 500 787 423 787 q 625 767 570 787 q 729 709 680 748 l 676 606 q 646 633 665 619 q 604 657 627 647 q 555 674 581 668 q 504 681 529 681 q 411 661 451 681 q 341 605 371 640 q 292 524 312 571 q 262 425 273 477 q 250 355 254 389 q 247 291 247 321 q 286 141 246 190 q 402 92 327 92 q 477 103 441 92 q 544 130 514 114 q 576 150 561 139 q 607 172 592 160 l 626 71 q 501 8 563 29 q 370 -13 439 -12 q 265 5 314 -12 q 180 59 216 23 q 123 153 144 96 q 104 287 103 209 m 579 887 l 478 887 l 605 1320 l 792 1320 l 579 887 "},"þ":{"x_min":77.3125,"x_max":793.25,"ha":789,"o":"m 793 473 q 784 368 793 424 q 758 259 776 313 q 713 156 740 205 q 647 69 685 107 q 559 9 609 31 q 449 -13 510 -13 q 265 64 316 -13 l 213 -307 l 77 -324 l 271 1058 l 404 1057 l 349 663 q 448 741 394 713 q 560 769 503 769 q 669 745 625 769 q 741 679 714 721 q 781 584 769 638 q 793 473 793 530 m 461 102 q 533 121 502 102 q 586 171 563 140 q 622 241 608 201 q 645 321 637 280 q 657 403 654 363 q 661 476 661 443 q 538 654 661 654 q 479 643 509 654 q 423 618 450 633 q 373 586 396 603 q 333 553 350 568 l 281 181 q 302 162 287 175 q 340 136 317 149 q 393 113 363 123 q 461 102 424 102 "},"]":{"x_min":135.640625,"x_max":720.265625,"ha":766,"o":"m 286 1067 l 720 1067 l 569 0 l 135 0 l 151 115 l 441 115 l 559 952 l 271 952 l 286 1067 "},"А":{"x_min":17.640625,"x_max":860.828125,"ha":893,"o":"m 595 952 l 484 706 l 319 341 l 680 341 l 630 701 l 595 952 m 504 1075 l 708 1075 l 860 0 l 728 0 l 691 262 l 283 262 l 165 0 l 17 0 l 504 1075 "},"Ы":{"x_min":88.171875,"x_max":1296.765625,"ha":1249,"o":"m 1142 0 l 990 0 l 1142 1075 l 1296 1093 l 1142 0 m 368 543 l 317 543 l 256 112 l 340 112 q 529 126 456 112 q 644 172 603 140 q 701 256 686 205 q 716 383 716 308 q 702 445 716 419 q 666 488 688 471 q 612 517 643 506 q 547 533 582 528 q 478 541 513 539 q 409 543 442 543 l 368 543 m 861 376 q 850 273 861 317 q 791 138 833 191 q 687 54 750 85 q 540 11 624 23 q 353 0 456 0 l 88 0 l 240 1075 l 392 1075 l 333 655 l 425 655 q 620 639 538 655 q 755 592 702 624 q 834 511 808 560 q 861 395 860 462 q 862 386 862 390 q 861 376 861 381 "},"Ǒ":{"x_min":134,"x_max":1002.5625,"ha":990,"o":"m 1002 694 q 963 401 1002 534 q 855 174 925 269 q 691 25 786 78 q 483 -27 596 -27 q 338 -3 402 -27 q 228 67 273 19 q 158 188 182 116 q 134 361 134 261 q 151 561 134 465 q 200 737 168 656 q 278 884 232 819 q 380 997 323 950 q 505 1069 437 1044 q 647 1094 572 1094 q 807 1066 740 1094 q 917 987 874 1038 q 981 860 961 935 q 1002 694 1002 786 m 852 696 q 840 807 852 756 q 803 894 828 857 q 735 950 777 930 q 633 971 694 971 q 525 946 574 971 q 438 880 477 922 q 370 780 399 838 q 322 655 341 722 q 294 514 303 587 q 284 364 284 440 q 339 162 284 228 q 501 96 394 96 q 608 119 559 96 q 695 184 656 143 q 763 282 734 225 q 812 406 793 339 q 842 546 832 472 q 852 696 852 620 m 647 1131 l 552 1131 l 473 1509 l 582 1509 l 627 1294 l 756 1509 l 874 1509 l 647 1131 "},"ẁ":{"x_min":122.765625,"x_max":1029.46875,"ha":960,"o":"m 599 0 l 565 646 l 338 0 l 185 0 l 122 773 l 246 773 l 296 134 l 514 773 l 637 773 l 681 113 l 919 773 l 1029 773 l 747 0 l 599 0 m 698 900 l 626 900 l 470 1336 l 671 1336 l 698 900 "},"8":{"x_min":104.96875,"x_max":779.15625,"ha":779,"o":"m 504 797 q 410 780 447 797 q 352 736 373 763 q 323 675 331 709 q 315 609 315 642 q 351 511 315 542 q 462 471 388 479 q 550 494 514 477 q 609 538 586 512 q 642 600 631 565 q 653 677 653 635 q 504 797 652 797 m 448 381 q 371 360 404 374 q 316 326 339 346 q 279 281 293 305 q 256 232 265 257 q 245 183 248 207 q 242 138 242 158 q 281 44 242 72 q 396 15 319 15 q 477 24 440 15 q 543 56 515 33 q 586 117 570 78 q 602 215 602 155 q 562 329 601 287 q 448 381 524 372 m 189 611 q 208 721 188 668 q 270 814 229 774 q 372 878 311 854 q 515 903 434 903 q 622 889 574 903 q 705 848 670 875 q 759 781 740 820 q 779 690 778 742 q 769 613 779 647 q 744 550 759 578 q 707 502 728 523 q 666 465 687 480 q 623 440 644 450 q 587 426 603 430 q 603 419 591 424 q 632 404 616 415 q 667 378 649 394 q 699 339 684 362 q 724 284 714 316 q 734 212 734 252 q 709 81 734 139 q 637 -16 683 24 q 525 -78 590 -56 q 383 -100 460 -100 q 277 -87 327 -100 q 188 -47 226 -74 q 128 21 150 -20 q 105 119 105 62 q 121 225 104 176 q 167 314 137 274 q 235 381 196 353 q 320 426 275 410 q 275 448 298 434 q 232 484 252 462 q 201 537 213 506 q 189 611 189 569 "},"R":{"x_min":84.78125,"x_max":897.25,"ha":872,"o":"m 653 0 q 667 106 661 60 q 677 185 673 152 q 685 243 682 219 q 690 282 688 266 q 693 310 692 298 q 696 326 695 321 q 687 390 696 364 q 651 448 677 429 q 578 477 625 467 q 505 490 547 486 q 408 495 463 495 l 300 495 l 229 0 l 84 0 l 239 1075 l 501 1075 q 604 1073 556 1075 q 694 1063 653 1070 q 776 1039 739 1055 q 840 998 813 1023 q 882 934 866 972 q 897 845 897 897 q 869 707 897 763 q 798 614 841 650 q 701 561 754 578 q 596 544 647 544 q 700 522 656 537 q 776 480 745 506 q 822 415 806 453 q 839 324 838 376 q 837 305 839 317 q 832 262 835 292 q 818 157 826 220 q 798 0 810 94 l 653 0 m 393 591 q 540 599 473 591 q 658 630 608 606 q 736 698 708 653 q 765 819 765 743 q 744 896 765 868 q 686 939 723 924 q 603 958 650 954 q 502 962 555 962 l 368 962 l 314 591 l 393 591 "},"ť":{"x_min":131.359375,"x_max":865.109375,"ha":1025,"o":"m 340 94 q 388 103 363 94 q 432 123 412 112 q 479 151 457 135 l 524 69 q 505 56 523 69 q 458 29 487 43 q 390 1 428 14 q 312 -11 352 -11 q 251 0 278 -11 q 204 31 224 10 q 173 82 184 52 q 159 151 161 112 q 158 167 158 158 q 160 193 159 177 q 166 264 160 217 l 231 707 l 131 707 l 140 773 l 240 773 l 280 1050 l 419 1088 l 375 773 l 550 773 l 540 707 l 366 707 l 291 174 q 301 115 285 136 q 340 94 316 94 m 642 858 l 663 1079 l 865 1079 l 844 859 q 825 785 840 816 q 786 732 810 754 q 732 695 763 710 q 665 671 701 681 l 634 739 q 701 783 675 753 q 735 858 727 813 l 642 858 "},"Ľ":{"x_min":86.8125,"x_max":703.625,"ha":711,"o":"m 689 0 l 86 0 l 238 1075 l 383 1075 l 247 112 l 703 112 l 689 0 m 448 854 l 469 1075 l 671 1075 l 650 855 q 631 781 646 812 q 592 728 616 750 q 538 691 569 706 q 471 667 507 677 l 440 735 q 507 779 481 749 q 541 854 533 809 l 448 854 "},"Ż":{"x_min":61.765625,"x_max":876.4375,"ha":766,"o":"m 876 1073 l 860 953 l 227 112 l 743 112 l 728 0 l 61 0 l 80 132 l 704 960 l 195 960 l 210 1073 l 876 1073 m 636 1198 l 434 1198 l 464 1419 l 666 1419 l 636 1198 "},"o":{"x_min":104,"x_max":786.671875,"ha":783,"o":"m 104 291 q 114 407 104 348 q 145 521 124 466 q 199 625 167 576 q 276 709 232 673 q 378 766 321 746 q 506 787 435 787 q 639 762 586 787 q 726 696 693 738 q 772 600 758 654 q 786 486 786 545 q 758 294 786 384 q 677 134 729 203 q 550 26 624 66 q 384 -13 475 -13 q 268 7 319 -13 q 179 67 216 27 q 123 163 143 106 q 104 291 104 219 m 400 92 q 483 109 447 92 q 547 156 520 126 q 594 224 575 185 q 625 305 613 262 q 643 392 638 348 q 649 477 649 437 q 640 558 649 521 q 614 623 632 596 q 565 666 595 650 q 490 681 535 681 q 406 663 442 681 q 341 613 369 644 q 294 542 313 582 q 263 459 275 502 q 246 373 251 416 q 241 293 241 329 q 249 214 241 251 q 276 150 257 177 q 325 107 295 123 q 400 92 356 92 "},"5":{"x_min":73.8125,"x_max":701.859375,"ha":713,"o":"m 680 224 q 651 78 680 144 q 572 -34 623 12 q 453 -107 522 -81 q 303 -133 385 -133 q 181 -119 242 -133 q 73 -81 121 -105 l 96 30 q 118 20 100 27 q 165 3 136 12 q 231 -11 193 -4 q 314 -17 269 -17 q 409 -2 365 -17 q 485 40 453 11 q 535 112 517 69 q 554 214 554 155 q 395 359 554 359 q 345 355 370 359 q 295 344 319 351 q 251 331 271 338 q 215 317 230 323 l 148 377 l 223 796 l 701 796 l 686 681 l 317 681 l 267 426 q 287 436 274 430 q 317 448 300 442 q 353 460 334 454 q 391 468 372 465 q 426 473 409 472 q 458 474 444 475 q 623 403 565 469 q 680 224 680 338 "},"̆":{"x_min":160.734375,"x_max":524.515625,"ha":582,"o":"m 524 237 q 522 225 523 230 q 519 213 521 219 q 453 100 502 139 q 316 61 404 61 q 198 95 235 61 q 161 194 161 129 q 161 214 160 203 q 163 237 162 225 l 254 237 q 252 216 252 225 q 256 191 251 202 q 268 171 260 179 q 330 141 284 141 q 400 165 373 141 q 435 237 427 190 l 524 237 "},"Ѕ":{"x_min":106.734375,"x_max":851.953125,"ha":832,"o":"m 818 896 q 777 920 803 907 q 716 945 750 934 q 646 964 683 957 q 573 972 609 972 q 458 959 506 972 q 381 924 411 947 q 337 869 350 902 q 323 797 323 837 q 331 750 323 770 q 355 716 339 731 q 396 690 371 701 q 452 667 420 680 l 610 602 q 695 560 658 584 q 757 505 732 536 q 794 436 782 475 q 807 349 807 398 q 783 206 807 274 q 708 86 759 138 q 580 3 657 34 q 396 -27 502 -27 q 303 -20 348 -27 q 218 -3 257 -13 q 150 19 179 6 q 106 42 121 31 l 136 167 q 189 138 161 152 q 248 116 216 125 q 315 101 279 106 q 393 96 351 96 q 595 151 529 96 q 662 320 662 206 q 654 371 662 349 q 631 409 646 392 q 594 440 615 427 q 543 465 572 453 l 373 537 q 289 580 326 556 q 205 663 233 614 q 178 773 178 711 q 209 908 178 849 q 291 1009 240 968 q 410 1073 343 1051 q 549 1095 477 1095 q 640 1089 596 1095 q 723 1073 684 1084 q 794 1049 762 1063 q 851 1019 827 1035 l 818 896 "},"ħ":{"x_min":86.8125,"x_max":785.109375,"ha":796,"o":"m 386 1125 l 320 661 q 381 716 352 692 q 439 755 409 740 q 500 779 469 771 q 570 787 532 787 q 660 774 620 787 q 728 734 700 761 q 770 666 755 707 q 785 569 785 625 q 782 524 785 546 q 775 477 779 502 l 710 0 l 569 0 l 635 480 q 639 510 637 494 q 642 542 642 526 q 614 647 642 612 q 529 681 587 681 q 459 671 493 681 q 396 645 425 660 q 344 612 367 629 q 309 582 322 595 l 227 0 l 86 0 l 243 1109 l 386 1125 m 579 878 l 123 878 l 139 993 l 594 993 l 579 878 "},"õ":{"x_min":104,"x_max":789.84375,"ha":783,"o":"m 104 291 q 114 407 104 348 q 145 521 124 466 q 199 625 167 576 q 276 709 232 673 q 378 766 321 746 q 506 787 435 787 q 639 762 586 787 q 726 696 693 738 q 772 600 758 654 q 786 486 786 545 q 758 294 786 384 q 677 134 729 203 q 550 26 624 66 q 384 -13 475 -13 q 268 7 319 -13 q 179 67 216 27 q 123 163 143 106 q 104 291 104 219 m 400 92 q 483 109 447 92 q 547 156 520 126 q 594 224 575 185 q 625 305 613 262 q 643 392 638 348 q 649 477 649 437 q 640 558 649 521 q 614 623 632 596 q 565 666 595 650 q 490 681 535 681 q 406 663 442 681 q 341 613 369 644 q 294 542 313 582 q 263 459 275 502 q 246 373 251 416 q 241 293 241 329 q 249 214 241 251 q 276 150 257 177 q 325 107 295 123 q 400 92 356 92 m 644 873 q 575 886 608 873 q 511 916 542 900 q 456 946 481 932 q 412 960 431 960 q 394 957 403 960 q 379 948 386 955 q 368 927 372 941 q 364 891 364 914 l 257 891 q 270 971 258 936 q 303 1028 282 1005 q 352 1061 324 1050 q 413 1072 380 1072 q 477 1056 448 1072 q 533 1026 506 1041 q 585 998 560 1011 q 633 985 609 985 q 653 987 644 985 q 668 997 662 990 q 677 1017 674 1004 q 682 1050 681 1030 l 789 1050 q 776 968 788 1002 q 745 913 764 934 q 699 882 725 892 q 644 873 673 873 "},"Ǐ":{"x_min":84.09375,"x_max":680.515625,"ha":583,"o":"m 96 82 l 221 82 l 352 978 l 228 978 l 242 1075 l 634 1075 l 621 978 l 495 978 l 363 82 l 489 82 l 476 0 l 84 0 l 96 82 m 453 1149 l 358 1149 l 279 1527 l 388 1527 l 433 1312 l 562 1527 l 680 1527 l 453 1149 "},",":{"x_min":58.671875,"x_max":300.109375,"ha":416,"o":"m 66 0 l 98 221 l 300 221 l 270 1 q 250 -72 266 -41 q 211 -125 235 -103 q 156 -162 187 -147 q 89 -187 125 -176 l 58 -119 q 125 -75 98 -105 q 159 0 153 -44 l 66 0 "},"d":{"x_min":102,"x_max":823.765625,"ha":759,"o":"m 438 787 q 502 776 473 787 q 555 748 532 765 q 595 710 578 731 q 622 671 612 690 l 684 1107 l 823 1124 l 662 0 l 568 0 l 561 121 q 513 68 540 93 q 457 25 487 43 q 395 -3 427 6 q 328 -13 362 -13 q 223 9 266 -13 q 152 72 179 32 q 114 166 126 112 q 102 281 102 219 q 110 391 102 333 q 137 505 119 449 q 183 612 155 561 q 248 702 211 663 q 333 764 285 741 q 438 787 380 787 m 234 302 q 233 265 232 284 q 236 229 234 247 q 248 175 240 200 q 271 132 256 150 q 306 102 285 113 q 358 92 328 92 q 419 102 389 92 q 474 127 448 112 q 520 160 499 142 q 554 193 541 177 q 573 327 565 270 q 587 425 582 384 q 597 494 593 466 q 604 539 601 522 q 607 568 606 557 q 610 585 609 578 q 594 604 607 588 q 559 637 581 619 q 506 668 536 654 q 438 681 476 681 q 369 661 399 681 q 316 609 338 641 q 278 536 294 577 q 253 453 263 495 q 239 371 243 411 q 234 302 234 332 "},"\"":{"x_min":212.25,"x_max":473.015625,"ha":560,"o":"m 303 1075 l 473 1075 l 378 674 l 296 674 l 303 1075 m 212 1075 l 388 1075 l 294 674 l 217 674 l 212 1075 "},"˙":{"x_min":66,"x_max":298.109375,"ha":372,"o":"m 268 103 l 66 103 l 96 324 l 298 324 l 268 103 "},"ê":{"x_min":103,"x_max":745.15625,"ha":709,"o":"m 267 451 q 414 468 354 461 q 513 483 474 475 q 574 498 553 491 q 605 511 595 505 q 617 523 615 518 q 619 534 619 529 q 586 644 619 607 q 496 682 554 682 q 415 666 453 682 q 349 620 378 649 q 298 547 319 590 q 267 451 278 504 m 644 66 q 517 6 584 26 q 390 -13 450 -13 q 267 6 320 -13 q 176 65 213 27 q 121 158 140 103 q 103 282 103 213 q 114 403 103 342 q 148 519 126 463 q 204 624 171 575 q 281 709 238 673 q 378 767 324 746 q 495 788 432 788 q 684 720 624 788 q 745 525 745 653 q 742 498 745 513 q 724 468 739 483 q 679 438 710 453 q 592 409 648 423 q 454 387 537 396 q 254 365 372 378 q 248 319 250 341 q 246 279 246 298 q 292 138 246 185 q 420 92 338 92 q 522 113 473 92 q 619 171 570 134 l 644 66 m 502 1218 l 599 1218 l 686 841 l 581 841 l 531 1056 l 409 841 l 285 841 l 502 1218 "},"„":{"x_min":131,"x_max":473.5,"ha":621,"o":"m 240 0 l 270 220 l 473 220 l 443 2 q 424 -72 439 -40 q 384 -125 408 -103 q 330 -162 360 -148 q 263 -187 299 -177 l 232 -118 q 298 -74 271 -105 q 333 0 326 -44 l 240 0 m 138 0 l 168 220 l 371 220 l 341 2 q 322 -72 337 -40 q 282 -125 306 -103 q 228 -162 259 -148 q 162 -187 197 -177 l 131 -118 q 197 -74 170 -105 q 232 0 225 -44 l 138 0 "},"ч":{"x_min":135,"x_max":792.171875,"ha":793,"o":"m 610 381 q 534 314 568 341 q 470 273 501 288 q 410 252 440 258 q 345 247 380 247 q 189 300 244 247 q 135 465 135 353 q 137 486 135 470 q 142 525 139 502 q 149 575 145 547 q 157 631 153 603 q 166 700 161 664 q 177 777 172 736 l 298 777 q 288 712 293 742 q 280 655 284 682 q 273 608 277 631 q 267 565 270 585 q 263 533 264 546 q 261 513 261 519 q 289 384 261 424 q 375 344 317 344 q 449 354 412 344 q 517 380 485 364 q 576 414 550 396 q 620 448 603 433 l 672 777 l 792 777 l 669 0 l 550 0 l 610 381 "},"ľ":{"x_min":102,"x_max":697.109375,"ha":857,"o":"m 398 1123 l 237 0 l 102 0 l 259 1107 l 398 1123 m 474 858 l 495 1079 l 697 1079 l 676 859 q 657 785 672 816 q 618 732 642 754 q 564 695 595 710 q 497 671 533 681 l 466 739 q 533 783 507 753 q 567 858 559 813 l 474 858 "},"Â":{"x_min":17.640625,"x_max":860.828125,"ha":893,"o":"m 595 952 l 484 706 l 319 341 l 680 341 l 630 701 l 595 952 m 504 1075 l 708 1075 l 860 0 l 728 0 l 691 262 l 283 262 l 165 0 l 17 0 l 504 1075 m 629 1489 l 726 1489 l 813 1112 l 708 1112 l 658 1327 l 536 1112 l 412 1112 l 629 1489 "},"Į":{"x_min":84.09375,"x_max":634.8125,"ha":583,"o":"m 96 82 l 221 82 l 352 978 l 228 978 l 242 1075 l 634 1075 l 621 978 l 495 978 l 363 82 l 489 82 l 476 0 l 84 0 l 96 82 m 510 -351 q 473 -360 493 -357 q 433 -366 455 -363 q 386 -369 410 -369 q 322 -362 354 -369 q 263 -338 289 -355 q 220 -289 237 -320 q 204 -207 204 -257 q 212 -160 204 -182 q 234 -117 220 -137 q 266 -79 248 -97 q 302 -47 284 -62 q 401 13 345 -14 l 473 13 q 385 -57 423 -20 q 352 -91 368 -73 q 324 -129 336 -109 q 304 -169 311 -148 q 296 -210 296 -189 q 306 -248 296 -233 q 330 -272 315 -263 q 364 -284 345 -281 q 402 -288 383 -288 q 441 -285 422 -288 q 476 -279 461 -283 q 510 -271 494 -276 l 510 -351 "},"ė":{"x_min":103,"x_max":745.15625,"ha":731,"o":"m 267 451 q 414 468 354 461 q 513 483 474 475 q 574 498 553 491 q 605 511 595 505 q 617 523 615 518 q 619 534 619 529 q 586 644 619 607 q 496 682 554 682 q 415 666 453 682 q 349 620 378 649 q 298 547 319 590 q 267 451 278 504 m 644 66 q 517 6 584 26 q 390 -13 450 -13 q 267 6 320 -13 q 176 65 213 27 q 121 158 140 103 q 103 282 103 213 q 114 403 103 342 q 148 519 126 463 q 204 624 171 575 q 281 709 238 673 q 378 767 324 746 q 495 788 432 788 q 684 720 624 788 q 745 525 745 653 q 742 498 745 513 q 724 468 739 483 q 679 438 710 453 q 592 409 648 423 q 454 387 537 396 q 254 365 372 378 q 248 319 250 341 q 246 279 246 298 q 292 138 246 185 q 420 92 338 92 q 522 113 473 92 q 619 171 570 134 l 644 66 m 589 903 l 387 903 l 417 1124 l 619 1124 l 589 903 "},"Ţ":{"x_min":119.328125,"x_max":847.78125,"ha":697,"o":"m 832 962 l 548 962 l 413 0 l 269 0 l 404 962 l 119 962 l 135 1075 l 847 1075 l 832 962 m 289 -320 l 321 -99 l 523 -99 l 493 -319 q 473 -393 489 -362 q 434 -446 458 -424 q 379 -483 410 -468 q 312 -508 348 -497 l 281 -440 q 348 -396 321 -426 q 382 -320 376 -365 l 289 -320 "},"Í":{"x_min":84.09375,"x_max":634.8125,"ha":583,"o":"m 96 82 l 221 82 l 352 978 l 228 978 l 242 1075 l 634 1075 l 621 978 l 495 978 l 363 82 l 489 82 l 476 0 l 84 0 l 96 82 m 394 1145 l 293 1145 l 420 1578 l 607 1578 l 394 1145 "},"´":{"x_min":143,"x_max":457.703125,"ha":530,"o":"m 244 87 l 143 87 l 270 520 l 457 520 l 244 87 "},"Ú":{"x_min":125,"x_max":1020.84375,"ha":957,"o":"m 490 88 q 608 108 559 88 q 693 174 658 128 q 751 296 728 220 q 790 484 774 372 l 874 1075 l 1020 1075 l 937 487 q 872 235 916 334 q 769 77 829 135 q 634 -3 709 19 q 474 -27 559 -27 q 326 -1 391 -27 q 216 73 261 23 q 148 196 171 122 q 125 366 125 269 q 125 384 125 375 q 125 404 125 393 q 128 430 126 415 q 133 464 130 444 q 145 557 138 503 q 162 683 152 610 q 185 853 172 757 q 215 1075 198 949 l 359 1075 q 329 850 342 948 q 306 678 316 753 q 288 549 296 603 q 276 454 281 495 q 271 418 273 433 q 268 391 269 403 q 268 371 268 380 q 268 354 268 362 q 279 245 268 294 q 316 161 290 196 q 384 107 342 126 q 490 88 426 88 m 604 1145 l 503 1145 l 630 1578 l 817 1578 l 604 1145 "},"Ŷ":{"x_min":142,"x_max":916.71875,"ha":785,"o":"m 445 483 l 778 1073 l 916 1073 l 500 358 l 451 0 l 308 0 l 357 352 l 142 1073 l 279 1073 l 445 483 m 551 1526 l 648 1526 l 735 1149 l 630 1149 l 580 1364 l 458 1149 l 334 1149 l 551 1526 "},"ŝ":{"x_min":58.28125,"x_max":646.234375,"ha":629,"o":"m 127 574 q 147 665 127 626 q 205 732 168 705 q 292 773 242 759 q 401 787 343 787 q 470 780 436 787 q 535 763 504 774 q 595 737 567 752 q 646 709 623 723 l 602 615 q 563 636 586 624 q 514 657 541 647 q 458 674 487 668 q 399 681 428 681 q 292 659 332 681 q 253 590 253 636 q 257 558 253 572 q 269 535 261 545 q 293 516 278 524 q 328 498 307 507 l 423 460 q 491 428 458 446 q 549 387 524 410 q 590 333 575 363 q 606 263 606 302 q 582 146 606 198 q 517 59 558 94 q 422 5 476 23 q 309 -13 368 -13 q 227 -6 265 -13 q 156 12 188 0 q 99 38 124 24 q 58 67 74 53 l 101 157 q 134 135 113 147 q 181 114 155 124 q 239 98 208 105 q 307 92 271 92 q 374 101 343 92 q 427 129 405 111 q 461 174 449 147 q 474 235 474 201 q 469 264 474 251 q 453 287 464 276 q 425 309 443 299 q 382 330 407 319 l 282 372 q 214 407 244 388 q 165 449 185 425 q 136 503 146 473 q 127 574 127 533 m 366 1231 l 463 1231 l 550 854 l 445 854 l 395 1069 l 273 854 l 149 854 l 366 1231 "},"Ý":{"x_min":142,"x_max":916.71875,"ha":785,"o":"m 445 483 l 778 1073 l 916 1073 l 500 358 l 451 0 l 308 0 l 357 352 l 142 1073 l 279 1073 l 445 483 m 503 1145 l 402 1145 l 529 1578 l 716 1578 l 503 1145 "},"Ĉ":{"x_min":134,"x_max":920,"ha":807,"o":"m 134 367 q 148 551 134 460 q 191 722 163 641 q 263 872 220 803 q 363 990 306 940 q 491 1067 420 1039 q 647 1095 563 1095 q 717 1091 684 1095 q 781 1077 750 1087 q 847 1057 813 1067 q 920 1036 881 1047 l 869 918 q 755 954 808 937 q 648 972 702 972 q 533 949 585 972 q 441 885 482 926 q 371 789 401 845 q 322 667 342 733 q 293 527 303 601 q 284 378 284 454 q 341 165 284 234 q 510 96 398 96 q 565 102 535 96 q 627 118 595 108 q 692 142 659 129 q 758 170 725 156 l 783 56 q 714 25 748 41 q 644 -1 680 10 q 569 -20 608 -13 q 489 -27 531 -27 q 225 72 316 -27 q 134 367 134 171 m 656 1526 l 753 1526 l 840 1149 l 735 1149 l 685 1364 l 563 1149 l 439 1149 l 656 1526 "},"И":{"x_min":86.8125,"x_max":1072.953125,"ha":1021,"o":"m 86 0 l 239 1075 l 383 1075 l 269 270 l 868 1075 l 1072 1075 l 921 0 l 775 0 l 910 957 l 244 90 l 231 0 l 86 0 "},"ą":{"x_min":103,"x_max":770.90625,"ha":762,"o":"m 770 711 l 667 0 l 564 0 l 560 128 q 519 69 542 96 q 467 24 495 43 q 405 -3 438 6 q 337 -13 372 -13 q 229 8 273 -13 q 156 69 184 30 q 115 159 128 107 q 103 272 103 211 q 116 385 103 326 q 156 502 130 445 q 219 611 182 560 q 301 702 256 663 q 401 764 347 741 q 514 787 454 787 q 578 781 545 787 q 641 766 611 775 q 697 746 672 757 q 739 727 723 736 l 770 711 m 235 280 q 270 136 235 181 q 376 92 304 92 q 436 103 408 92 q 490 131 465 114 q 533 168 514 148 q 563 203 552 187 l 632 659 q 619 664 630 660 q 593 671 609 667 q 558 678 577 675 q 519 681 538 681 q 450 666 485 681 q 384 625 416 651 q 325 560 353 598 q 278 479 298 523 q 246 384 258 434 q 235 280 235 333 m 687 -351 q 650 -360 670 -357 q 610 -366 632 -363 q 563 -369 587 -369 q 499 -362 531 -369 q 440 -338 466 -355 q 397 -289 414 -320 q 381 -207 381 -257 q 389 -160 381 -182 q 411 -117 397 -137 q 443 -79 425 -97 q 479 -47 461 -62 q 578 13 522 -14 l 650 13 q 562 -57 600 -20 q 529 -91 545 -73 q 501 -129 513 -109 q 481 -169 488 -148 q 473 -210 473 -189 q 483 -248 473 -233 q 507 -272 492 -263 q 541 -284 522 -281 q 579 -288 560 -288 q 618 -285 599 -288 q 653 -279 638 -283 q 687 -271 671 -276 l 687 -351 "},"Љ":{"x_min":24.46875,"x_max":1675.828125,"ha":1673,"o":"m 1073 0 l 906 0 l 1046 962 l 589 962 l 505 536 q 471 365 486 442 q 432 228 456 288 q 377 122 409 167 q 297 47 345 77 q 182 3 248 18 q 24 -11 115 -11 l 44 112 q 159 129 112 115 q 238 170 206 143 q 289 238 269 197 q 320 335 308 279 q 341 448 331 391 q 364 570 352 506 l 459 1075 l 1215 1075 l 1154 655 l 1241 655 q 1436 639 1354 655 q 1571 591 1518 623 q 1649 510 1623 559 q 1675 395 1675 461 q 1642 213 1676 289 q 1547 91 1608 138 q 1385 20 1481 40 q 1166 0 1289 0 l 1073 0 m 1530 371 q 1522 425 1530 400 q 1479 486 1510 462 q 1406 521 1448 509 q 1317 538 1364 534 q 1225 543 1269 543 l 1137 543 l 1075 112 l 1189 112 q 1353 128 1288 112 q 1457 177 1418 144 q 1511 258 1495 210 q 1530 371 1527 307 "},"р":{"x_min":77.015625,"x_max":829.109375,"ha":825,"o":"m 829 484 q 819 365 829 425 q 790 250 810 306 q 740 147 770 195 q 670 63 710 99 q 579 7 630 27 q 466 -13 528 -13 q 407 -4 436 -13 q 355 20 379 4 q 311 57 330 36 q 278 102 291 78 l 221 -305 l 77 -316 l 231 773 l 339 773 l 345 649 q 397 704 369 678 q 455 748 425 729 q 517 777 486 766 q 579 787 549 787 q 681 770 635 787 q 760 716 727 752 q 811 622 792 679 q 829 484 829 564 m 686 461 q 680 555 688 511 q 639 651 669 620 q 561 681 610 681 q 455 657 510 681 q 346 583 399 633 l 291 195 q 327 155 305 174 q 373 122 348 136 q 425 100 398 108 q 474 92 451 92 q 548 109 516 92 q 603 156 580 127 q 642 224 627 186 q 667 303 658 262 q 681 385 677 344 q 686 461 685 426 "},"т":{"x_min":100.359375,"x_max":1199.6875,"ha":1250,"o":"m 1015 787 q 1155 725 1110 787 q 1199 552 1200 663 q 1199 540 1199 547 q 1196 514 1199 532 q 1189 461 1194 495 q 1176 366 1184 426 q 1156 217 1168 306 q 1126 0 1144 128 l 985 0 q 1016 226 1003 132 q 1037 380 1029 319 q 1051 478 1046 442 q 1058 533 1056 514 q 1061 558 1061 552 q 1062 569 1062 565 q 1055 621 1062 600 q 1037 656 1049 642 q 1008 675 1025 669 q 972 681 992 681 q 870 655 923 681 q 758 573 818 628 l 677 0 l 537 0 q 563 188 551 106 q 582 332 574 270 q 597 439 591 394 q 607 515 603 483 q 610 537 609 528 q 612 551 612 545 q 612 561 612 557 q 612 569 612 565 q 593 654 612 626 q 526 681 574 681 q 431 654 483 681 q 319 568 379 626 l 240 0 l 100 0 l 208 773 l 311 773 l 318 645 q 368 703 340 676 q 428 748 396 729 q 495 777 460 766 q 567 787 530 787 q 638 777 607 787 q 690 748 668 767 q 726 703 712 730 q 745 645 739 677 q 801 704 770 678 q 866 749 832 730 q 939 777 901 767 q 1015 787 977 787 "},"П":{"x_min":87.359375,"x_max":1042.375,"ha":989,"o":"m 890 0 l 738 0 l 874 962 l 374 962 l 239 0 l 87 0 l 238 1075 l 1042 1075 l 890 0 "},"Ö":{"x_min":134,"x_max":1002.5625,"ha":990,"o":"m 1002 694 q 963 401 1002 534 q 855 174 925 269 q 691 25 786 78 q 483 -27 596 -27 q 338 -3 402 -27 q 228 67 273 19 q 158 188 182 116 q 134 361 134 261 q 151 561 134 465 q 200 737 168 656 q 278 884 232 819 q 380 997 323 950 q 505 1069 437 1044 q 647 1094 572 1094 q 807 1066 740 1094 q 917 987 874 1038 q 981 860 961 935 q 1002 694 1002 786 m 852 696 q 840 807 852 756 q 803 894 828 857 q 735 950 777 930 q 633 971 694 971 q 525 946 574 971 q 438 880 477 922 q 370 780 399 838 q 322 655 341 722 q 294 514 303 587 q 284 364 284 440 q 339 162 284 228 q 501 96 394 96 q 608 119 559 96 q 695 184 656 143 q 763 282 734 225 q 812 406 793 339 q 842 546 832 472 q 852 696 852 620 m 595 1252 q 586 1211 594 1231 q 563 1177 577 1192 q 532 1153 550 1162 q 496 1145 514 1145 q 466 1151 480 1145 q 441 1168 451 1157 q 425 1193 431 1178 q 420 1225 420 1208 q 428 1267 420 1247 q 450 1303 436 1287 q 483 1327 464 1318 q 521 1336 501 1336 q 574 1314 554 1336 q 595 1257 594 1292 l 595 1252 m 909 1251 q 900 1211 909 1230 q 878 1176 891 1191 q 846 1153 864 1161 q 810 1144 829 1144 q 756 1167 777 1144 q 735 1225 735 1190 q 743 1266 735 1246 q 765 1302 751 1286 q 798 1326 779 1317 q 836 1336 816 1336 q 888 1313 868 1336 q 909 1256 909 1290 l 909 1251 "},"z":{"x_min":56.609375,"x_max":636.734375,"ha":587,"o":"m 495 667 l 164 667 l 178 773 l 636 773 l 620 654 l 192 105 l 535 105 l 531 0 l 56 0 l 72 122 l 495 667 "},"™":{"x_min":113.8125,"x_max":1073.625,"ha":1150,"o":"m 472 915 l 338 915 l 274 446 l 183 446 l 248 915 l 113 915 l 124 988 l 482 988 l 472 915 m 683 446 l 666 570 l 623 885 l 561 446 l 476 446 l 533 850 l 552 988 l 699 988 q 727 769 713 878 q 755 549 741 660 l 781 615 l 878 860 l 929 988 l 1073 988 l 1046 791 l 999 446 l 914 446 l 976 901 l 819 517 l 790 446 l 683 446 "},"Ř":{"x_min":84.78125,"x_max":897.25,"ha":872,"o":"m 653 0 q 667 106 661 60 q 677 185 673 152 q 685 243 682 219 q 690 282 688 266 q 693 310 692 298 q 696 326 695 321 q 687 390 696 364 q 651 448 677 429 q 578 477 625 467 q 505 490 547 486 q 408 495 463 495 l 300 495 l 229 0 l 84 0 l 239 1075 l 501 1075 q 604 1073 556 1075 q 694 1063 653 1070 q 776 1039 739 1055 q 840 998 813 1023 q 882 934 866 972 q 897 845 897 897 q 869 707 897 763 q 798 614 841 650 q 701 561 754 578 q 596 544 647 544 q 700 522 656 537 q 776 480 745 506 q 822 415 806 453 q 839 324 838 376 q 837 305 839 317 q 832 262 835 292 q 818 157 826 220 q 798 0 810 94 l 653 0 m 393 591 q 540 599 473 591 q 658 630 608 606 q 736 698 708 653 q 765 819 765 743 q 744 896 765 868 q 686 939 723 924 q 603 958 650 954 q 502 962 555 962 l 368 962 l 314 591 l 393 591 m 614 1168 l 519 1168 l 440 1546 l 549 1546 l 594 1331 l 723 1546 l 841 1546 l 614 1168 "},"ã":{"x_min":103,"x_max":785.84375,"ha":762,"o":"m 770 711 l 667 0 l 564 0 l 560 128 q 519 69 542 96 q 467 24 495 43 q 405 -3 438 6 q 337 -13 372 -13 q 229 8 273 -13 q 156 69 184 30 q 115 159 128 107 q 103 272 103 211 q 116 385 103 326 q 156 502 130 445 q 219 611 182 560 q 301 702 256 663 q 401 764 347 741 q 514 787 454 787 q 578 781 545 787 q 641 766 611 775 q 697 746 672 757 q 739 727 723 736 l 770 711 m 235 280 q 270 136 235 181 q 376 92 304 92 q 436 103 408 92 q 490 131 465 114 q 533 168 514 148 q 563 203 552 187 l 632 659 q 619 664 630 660 q 593 671 609 667 q 558 678 577 675 q 519 681 538 681 q 450 666 485 681 q 384 625 416 651 q 325 560 353 598 q 278 479 298 523 q 246 384 258 434 q 235 280 235 333 m 640 873 q 571 886 604 873 q 507 916 538 900 q 452 946 477 932 q 408 960 427 960 q 390 957 399 960 q 375 948 382 955 q 364 927 368 941 q 360 891 360 914 l 253 891 q 266 971 254 936 q 299 1028 278 1005 q 348 1061 320 1050 q 409 1072 376 1072 q 473 1056 444 1072 q 529 1026 502 1041 q 581 998 556 1011 q 629 985 605 985 q 649 987 640 985 q 664 997 658 990 q 673 1017 670 1004 q 678 1050 677 1030 l 785 1050 q 772 968 784 1002 q 741 913 760 934 q 695 882 721 892 q 640 873 669 873 "},"Ň":{"x_min":86.8125,"x_max":1072.28125,"ha":1022,"o":"m 921 0 l 727 0 l 604 307 l 357 924 l 227 0 l 86 0 l 238 1075 l 435 1075 l 557 769 l 804 152 l 933 1075 l 1072 1075 l 921 0 m 703 1168 l 608 1168 l 529 1546 l 638 1546 l 683 1331 l 812 1546 l 930 1546 l 703 1168 "},"æ":{"x_min":103,"x_max":1202.15625,"ha":1188,"o":"m 1101 64 q 974 6 1041 25 q 847 -13 907 -13 q 697 20 755 -13 q 606 118 639 54 q 549 66 582 90 q 479 24 516 42 q 405 -3 442 6 q 337 -13 368 -13 q 230 7 274 -13 q 157 67 186 29 q 116 158 129 105 q 103 272 103 210 q 116 388 103 328 q 156 505 130 448 q 219 614 182 563 q 304 704 257 665 q 406 765 351 742 q 524 787 461 787 q 620 778 578 787 q 692 756 662 768 q 740 733 723 744 q 763 719 757 722 q 855 770 805 752 q 965 788 905 788 q 1142 722 1081 788 q 1202 527 1202 655 q 1199 499 1202 514 q 1181 469 1196 484 q 1136 438 1167 454 q 1051 410 1106 423 q 912 387 995 396 q 710 364 830 378 q 705 319 707 341 q 703 278 703 297 q 749 137 703 183 q 877 90 795 90 q 979 111 930 90 q 1076 169 1027 133 l 1101 64 m 235 276 q 270 135 235 179 q 374 92 304 92 q 431 102 401 92 q 488 127 460 111 q 539 160 515 142 q 578 195 562 178 q 572 236 574 215 q 571 280 571 257 q 579 376 571 327 q 602 471 587 424 q 639 561 617 518 q 690 643 662 605 q 676 649 688 643 q 643 663 664 655 q 592 675 622 670 q 524 681 562 681 q 417 648 469 681 q 324 560 365 615 q 259 431 284 504 q 235 276 235 357 m 725 451 q 873 468 813 461 q 971 483 933 475 q 1031 498 1010 491 q 1062 512 1053 505 q 1074 524 1072 518 q 1076 535 1076 530 q 1043 646 1076 609 q 954 684 1011 683 q 873 668 911 684 q 807 621 836 651 q 757 548 777 591 q 725 451 736 504 "},"ĩ":{"x_min":40,"x_max":572.84375,"ha":381,"o":"m 256 0 l 119 0 l 230 773 l 367 773 l 256 0 m 427 825 q 358 838 391 825 q 294 868 325 852 q 239 898 264 884 q 195 912 214 912 q 177 909 186 912 q 162 900 169 907 q 151 879 155 893 q 147 843 147 866 l 40 843 q 53 923 41 888 q 86 980 65 957 q 135 1013 107 1002 q 196 1024 163 1024 q 260 1008 231 1024 q 316 978 289 993 q 368 950 343 963 q 416 937 392 937 q 436 939 427 937 q 451 949 445 942 q 460 969 457 956 q 465 1002 464 982 l 572 1002 q 559 920 571 954 q 528 865 547 886 q 482 834 508 844 q 427 825 456 825 "},"É":{"x_min":85.453125,"x_max":856.59375,"ha":752,"o":"m 714 0 l 85 0 l 237 1075 l 856 1075 l 839 962 l 366 962 l 316 614 l 733 614 l 719 518 l 303 518 l 245 112 l 732 112 l 714 0 m 530 1145 l 429 1145 l 556 1578 l 743 1578 l 530 1145 "},"и":{"x_min":121,"x_max":805.0625,"ha":795,"o":"m 335 773 q 330 736 334 764 q 321 666 326 707 q 308 575 315 625 q 295 474 302 524 q 281 376 288 423 q 270 290 275 328 q 265 258 267 271 q 264 237 264 244 q 274 164 263 193 q 311 110 285 128 q 375 92 336 92 q 481 117 430 92 q 583 188 532 141 l 664 773 l 805 773 l 697 0 l 594 0 q 589 59 591 30 q 585 118 587 87 q 473 20 532 54 q 348 -13 414 -13 q 121 212 121 -13 q 123 241 121 223 q 128 281 125 259 q 140 369 133 320 q 153 470 146 418 q 167 572 160 522 q 179 665 174 623 q 189 736 185 706 q 194 773 193 765 l 335 773 "},"ŀ":{"x_min":102,"x_max":398.390625,"ha":332,"o":"m 398 1123 l 237 0 l 102 0 l 259 1107 l 398 1123 "},"~":{"x_min":58,"x_max":581.515625,"ha":552,"o":"m 427 89 q 363 102 395 89 q 303 133 332 116 q 251 165 275 151 q 214 179 228 179 q 180 158 190 179 q 165 96 169 138 l 58 96 q 215 291 82 291 q 278 275 250 291 q 330 243 305 259 q 379 215 356 228 q 425 201 402 201 q 458 219 448 201 q 473 274 467 238 l 581 274 q 427 89 557 89 "},"Ċ":{"x_min":134,"x_max":920,"ha":807,"o":"m 134 367 q 148 551 134 460 q 191 722 163 641 q 263 872 220 803 q 363 990 306 940 q 491 1067 420 1039 q 647 1095 563 1095 q 717 1091 684 1095 q 781 1077 750 1087 q 847 1057 813 1067 q 920 1036 881 1047 l 869 918 q 755 954 808 937 q 648 972 702 972 q 533 949 585 972 q 441 885 482 926 q 371 789 401 845 q 322 667 342 733 q 293 527 303 601 q 284 378 284 454 q 341 165 284 234 q 510 96 398 96 q 565 102 535 96 q 627 118 595 108 q 692 142 659 129 q 758 170 725 156 l 783 56 q 714 25 748 41 q 644 -1 680 10 q 569 -20 608 -13 q 489 -27 531 -27 q 225 72 316 -27 q 134 367 134 171 m 809 1198 l 607 1198 l 637 1419 l 839 1419 l 809 1198 "},"³":{"x_min":75,"x_max":665.15625,"ha":719,"o":"m 339 513 q 442 529 402 513 q 503 570 481 545 q 531 623 524 594 q 539 677 539 651 q 504 755 538 732 q 393 779 469 779 q 346 774 371 779 q 296 764 321 770 q 249 751 272 758 q 210 736 227 743 l 184 835 l 203 844 q 237 858 216 850 q 285 874 258 866 q 343 886 312 881 q 408 891 374 891 q 497 882 452 891 q 579 852 541 873 q 640 795 616 831 q 665 703 664 759 q 646 595 665 639 q 597 523 627 550 q 534 480 568 495 q 471 461 500 466 q 524 441 496 455 q 575 404 551 427 q 613 347 598 380 q 629 268 629 313 q 604 150 629 203 q 535 60 578 97 q 432 2 491 23 q 304 -17 372 -17 q 228 -11 264 -17 q 165 5 193 -5 q 113 25 137 16 q 75 41 90 34 q 96 86 88 69 q 108 113 104 103 q 114 128 112 123 q 117 137 116 133 q 142 130 122 135 q 188 118 162 125 q 244 103 213 111 q 312 95 275 95 q 405 110 368 95 q 463 150 441 126 q 494 205 485 175 q 503 264 503 235 q 325 408 501 390 l 339 513 "},"¡":{"x_min":125.75,"x_max":439.65625,"ha":503,"o":"m 438 1072 q 437 1007 441 1042 q 422 935 434 968 q 396 876 410 901 q 313 882 353 876 q 238 897 273 888 q 257 994 243 948 q 288 1079 271 1040 q 364 1077 327 1079 q 438 1072 401 1075 m 125 1 l 285 799 l 366 799 l 314 1 l 125 1 "},"ẅ":{"x_min":122.765625,"x_max":1029.46875,"ha":960,"o":"m 599 0 l 565 646 l 338 0 l 185 0 l 122 773 l 246 773 l 296 134 l 514 773 l 637 773 l 681 113 l 919 773 l 1029 773 l 747 0 l 599 0 m 515 994 q 506 953 514 973 q 483 919 497 934 q 452 895 470 904 q 416 887 434 887 q 386 893 400 887 q 361 910 371 899 q 345 935 351 920 q 340 967 340 950 q 348 1009 340 989 q 370 1045 356 1029 q 403 1069 384 1060 q 441 1078 421 1078 q 494 1056 474 1078 q 515 999 514 1034 l 515 994 m 829 993 q 820 953 829 972 q 798 918 811 933 q 766 895 784 903 q 730 886 749 886 q 676 909 697 886 q 655 967 655 932 q 663 1008 655 988 q 685 1044 671 1028 q 718 1068 699 1059 q 756 1078 736 1078 q 808 1055 788 1078 q 829 998 829 1032 l 829 993 "},"[":{"x_min":177.6875,"x_max":763.671875,"ha":790,"o":"m 331 1067 l 763 1067 l 748 952 l 457 952 l 336 115 l 627 115 l 611 0 l 177 0 l 331 1067 "},"К":{"x_min":86.8125,"x_max":975.234375,"ha":845,"o":"m 238 0 l 86 0 l 238 1075 l 390 1075 l 322 594 l 447 594 l 805 1075 l 975 1075 l 645 645 q 615 605 630 621 q 584 577 600 589 q 553 558 569 565 q 517 546 536 551 q 572 516 548 538 q 620 454 597 494 l 865 0 l 699 0 l 430 498 l 309 498 l 238 0 "},"%":{"x_min":136,"x_max":1084.5625,"ha":1221,"o":"m 838 81 q 898 95 873 81 q 939 132 922 109 q 967 184 956 155 q 983 242 978 213 q 991 299 989 272 q 993 348 993 327 q 971 434 993 402 q 895 466 949 466 q 841 453 864 466 q 801 419 818 440 q 774 371 784 398 q 757 314 763 343 q 748 255 750 284 q 746 202 746 226 q 838 81 746 81 m 479 858 q 475 906 479 882 q 460 948 471 929 q 431 978 449 966 q 381 990 412 990 q 309 964 337 990 q 263 900 280 939 q 239 816 246 861 q 232 731 232 771 q 257 637 232 667 q 328 607 281 607 q 380 619 358 607 q 419 651 402 631 q 447 696 435 670 q 465 750 458 722 q 475 806 472 778 q 479 858 479 834 m 272 -28 l 865 1133 l 943 1093 l 350 -65 l 272 -28 m 1084 346 q 1078 263 1084 306 q 1058 180 1071 221 q 1026 104 1045 140 q 979 42 1006 69 q 917 0 952 15 q 841 -15 883 -15 q 748 2 786 -15 q 689 50 711 20 q 656 118 666 79 q 647 199 647 157 q 650 257 647 222 q 664 332 654 292 q 692 411 674 371 q 738 481 710 450 q 806 533 766 513 q 901 553 846 553 q 988 536 953 553 q 1044 491 1023 519 q 1075 425 1066 462 q 1084 346 1084 387 m 574 869 q 570 803 574 841 q 554 725 565 765 q 524 647 543 685 q 477 578 505 608 q 409 529 448 547 q 318 511 370 511 q 230 530 265 511 q 174 582 194 550 q 144 653 153 614 q 136 732 136 693 q 141 809 136 770 q 160 887 147 849 q 193 959 173 925 q 240 1019 213 993 q 305 1060 268 1045 q 387 1075 341 1075 q 475 1058 439 1075 q 532 1014 510 1042 q 564 948 554 985 q 574 869 574 911 "},"P":{"x_min":85.453125,"x_max":901.671875,"ha":833,"o":"m 398 535 q 568 550 499 535 q 681 597 638 565 q 744 679 725 629 q 764 797 764 728 q 742 886 764 853 q 684 936 721 919 q 596 958 647 953 q 485 962 544 962 l 367 962 l 306 535 l 398 535 m 239 1075 l 495 1075 q 684 1059 607 1075 q 810 1012 762 1044 q 880 930 858 980 q 901 813 901 881 q 864 626 901 700 q 759 508 827 552 q 596 446 691 464 q 382 429 500 429 l 291 429 l 230 0 l 85 0 l 239 1075 "},"_":{"x_min":61.71875,"x_max":682.296875,"ha":792,"o":"m 666 -73 l 61 -73 l 77 42 l 682 42 l 666 -73 "},"Ŕ":{"x_min":84.78125,"x_max":897.25,"ha":872,"o":"m 653 0 q 667 106 661 60 q 677 185 673 152 q 685 243 682 219 q 690 282 688 266 q 693 310 692 298 q 696 326 695 321 q 687 390 696 364 q 651 448 677 429 q 578 477 625 467 q 505 490 547 486 q 408 495 463 495 l 300 495 l 229 0 l 84 0 l 239 1075 l 501 1075 q 604 1073 556 1075 q 694 1063 653 1070 q 776 1039 739 1055 q 840 998 813 1023 q 882 934 866 972 q 897 845 897 897 q 869 707 897 763 q 798 614 841 650 q 701 561 754 578 q 596 544 647 544 q 700 522 656 537 q 776 480 745 506 q 822 415 806 453 q 839 324 838 376 q 837 305 839 317 q 832 262 835 292 q 818 157 826 220 q 798 0 810 94 l 653 0 m 393 591 q 540 599 473 591 q 658 630 608 606 q 736 698 708 653 q 765 819 765 743 q 744 896 765 868 q 686 939 723 924 q 603 958 650 954 q 502 962 555 962 l 368 962 l 314 591 l 393 591 m 655 1182 l 554 1182 l 681 1615 l 868 1615 l 655 1182 "},"ñ":{"x_min":86.734375,"x_max":795.84375,"ha":789,"o":"m 561 0 q 588 192 576 110 q 607 333 599 274 q 621 432 616 392 q 631 501 627 473 q 635 528 634 519 q 636 543 636 536 q 630 601 636 575 q 613 644 625 626 q 580 672 600 662 q 529 681 559 681 q 471 670 502 681 q 408 643 439 659 q 351 609 377 627 q 311 578 325 592 l 229 0 l 86 0 l 197 773 l 300 773 l 306 655 q 358 703 327 679 q 426 745 390 726 q 501 775 463 763 q 575 787 540 787 q 779 573 779 787 q 778 558 779 565 q 777 542 778 551 q 774 521 775 533 q 770 491 772 509 q 759 414 765 458 q 745 311 753 371 q 727 175 737 252 q 703 0 717 98 l 561 0 m 650 873 q 581 886 614 873 q 517 916 548 900 q 462 946 487 932 q 418 960 437 960 q 400 957 409 960 q 385 948 392 955 q 374 927 378 941 q 370 891 370 914 l 263 891 q 276 971 264 936 q 309 1028 288 1005 q 358 1061 330 1050 q 419 1072 386 1072 q 483 1056 454 1072 q 539 1026 512 1041 q 591 998 566 1011 q 639 985 615 985 q 659 987 650 985 q 674 997 668 990 q 683 1017 680 1004 q 688 1050 687 1030 l 795 1050 q 782 968 794 1002 q 751 913 770 934 q 705 882 731 892 q 650 873 679 873 "},"‚":{"x_min":49.140625,"x_max":290.109375,"ha":360,"o":"m 57 0 l 88 221 l 290 221 l 260 1 q 240 -72 256 -41 q 201 -125 225 -103 q 147 -162 177 -147 q 81 -187 116 -176 l 49 -119 q 116 -75 89 -105 q 150 0 143 -44 l 57 0 "},"Æ":{"x_min":18,"x_max":1372.71875,"ha":1314,"o":"m 838 614 l 1257 614 l 1246 518 l 825 518 l 772 115 l 1254 115 l 1240 0 l 624 0 l 657 248 l 324 248 l 168 0 l 18 0 l 711 1073 l 1372 1073 l 1357 957 l 884 957 l 838 614 m 670 345 l 747 920 l 385 345 l 670 345 "},"ğ":{"x_min":37,"x_max":865.03125,"ha":768,"o":"m 296 532 q 307 477 296 500 q 337 437 319 453 q 377 413 355 421 q 421 404 399 405 q 507 419 472 407 q 566 453 543 432 q 599 505 589 475 q 610 572 610 534 q 599 623 610 601 q 569 660 588 645 q 525 682 550 674 q 471 690 499 690 q 391 679 424 690 q 336 647 357 668 q 305 597 315 627 q 296 532 296 568 m 163 -88 q 212 -164 163 -141 q 369 -188 262 -188 q 547 -157 488 -188 q 606 -60 606 -126 q 591 -14 606 -33 q 553 16 577 4 q 500 36 530 29 q 437 49 469 44 l 277 71 q 193 -8 223 33 q 163 -88 163 -50 m 737 569 q 667 399 737 466 q 456 299 596 332 l 285 260 q 215 216 222 247 q 242 183 220 195 q 299 166 264 171 q 373 154 334 160 q 443 143 412 148 q 570 117 516 132 q 660 78 624 101 q 714 21 696 54 q 732 -58 732 -12 q 716 -136 732 -102 q 673 -196 701 -171 q 609 -241 646 -222 q 529 -271 572 -260 q 440 -288 487 -283 q 348 -294 394 -294 q 220 -281 277 -294 q 122 -244 163 -268 q 59 -188 81 -221 q 37 -118 37 -156 q 59 -30 39 -66 q 108 30 78 4 q 137 53 121 41 q 168 73 154 64 q 192 90 182 83 q 206 99 203 96 q 195 104 206 99 q 168 117 183 108 q 139 138 153 126 q 120 164 125 150 q 110 230 108 193 q 145 300 112 273 q 248 345 179 328 l 319 363 q 266 380 293 367 q 218 415 240 393 q 183 465 197 436 q 170 533 170 495 q 189 631 170 585 q 246 712 208 678 q 338 767 283 747 q 463 787 392 787 q 563 776 520 787 q 646 737 607 764 q 716 765 685 754 q 777 780 747 775 q 820 789 799 786 q 865 794 841 792 l 860 681 l 693 681 q 727 617 717 644 q 737 569 737 591 m 742 1037 q 740 1025 741 1030 q 737 1013 739 1019 q 671 900 720 939 q 534 861 622 861 q 416 895 453 861 q 379 994 379 929 q 379 1014 378 1003 q 381 1037 380 1025 l 472 1037 q 470 1016 470 1025 q 474 991 469 1002 q 486 971 478 979 q 548 941 502 941 q 618 965 591 941 q 653 1037 645 990 l 742 1037 "},"ѓ":{"x_min":89,"x_max":664.15625,"ha":656,"o":"m 374 842 l 273 842 l 400 1275 l 587 1275 l 374 842 m 664 612 q 648 520 664 560 q 604 452 632 481 q 535 401 575 422 q 446 363 495 380 l 336 324 q 281 300 304 312 q 246 274 259 288 q 226 241 232 259 q 221 199 221 223 q 256 118 221 144 q 363 92 291 92 q 417 100 387 92 q 478 119 448 107 q 531 142 507 130 q 567 163 556 154 l 594 66 q 550 40 577 54 q 489 14 524 26 q 412 -5 454 2 q 320 -13 369 -13 q 230 0 272 -13 q 156 38 187 12 q 107 101 125 63 q 89 188 89 139 q 107 287 89 245 q 159 360 126 329 q 236 414 192 391 q 330 456 280 437 l 436 495 q 485 516 465 506 q 516 539 505 527 q 533 564 528 550 q 538 596 538 578 q 504 661 538 642 q 412 681 471 681 q 354 676 383 681 q 298 661 326 670 q 247 638 271 651 q 204 610 223 625 l 177 710 q 224 736 195 723 q 288 761 254 750 q 359 780 322 772 q 429 787 395 787 q 523 776 480 787 q 597 743 566 765 q 646 688 628 720 q 664 612 664 655 "},"ы":{"x_min":86.8125,"x_max":1106.1875,"ha":1096,"o":"m 857 0 l 965 773 l 1106 773 l 997 0 l 857 0 m 86 0 l 195 773 l 341 773 l 307 529 q 371 529 341 529 q 430 525 402 528 q 562 507 505 520 q 659 470 620 494 q 719 407 698 445 q 741 315 740 369 q 724 194 741 245 q 676 108 707 143 q 599 51 644 73 q 499 18 554 29 q 379 2 443 6 q 244 0 314 0 l 86 0 m 246 96 q 388 103 323 96 q 500 133 453 110 q 572 201 546 157 q 598 323 598 246 q 567 391 597 367 q 471 424 538 414 q 397 430 440 428 q 293 433 355 433 l 246 96 "},"Ū":{"x_min":125,"x_max":1020.84375,"ha":957,"o":"m 490 88 q 608 108 559 88 q 693 174 658 128 q 751 296 728 220 q 790 484 774 372 l 874 1075 l 1020 1075 l 937 487 q 872 235 916 334 q 769 77 829 135 q 634 -3 709 19 q 474 -27 559 -27 q 326 -1 391 -27 q 216 73 261 23 q 148 196 171 122 q 125 366 125 269 q 125 384 125 375 q 125 404 125 393 q 128 430 126 415 q 133 464 130 444 q 145 557 138 503 q 162 683 152 610 q 185 853 172 757 q 215 1075 198 949 l 359 1075 q 329 850 342 948 q 306 678 316 753 q 288 549 296 603 q 276 454 281 495 q 271 418 273 433 q 268 391 269 403 q 268 371 268 380 q 268 354 268 362 q 279 245 268 294 q 316 161 290 196 q 384 107 342 126 q 490 88 426 88 m 894 1173 l 438 1173 l 454 1288 l 909 1288 l 894 1173 "},"ª":{"x_min":148.78125,"x_max":673.3125,"ha":755,"o":"m 540 561 q 335 453 451 453 q 204 492 248 453 q 161 610 161 532 q 179 708 161 664 q 231 785 197 753 q 312 835 264 817 q 418 852 359 852 q 455 850 435 852 q 496 844 476 848 q 534 835 516 840 q 564 826 552 830 q 573 896 570 872 q 577 935 577 920 q 571 978 577 961 q 553 1006 566 996 q 519 1021 540 1017 q 469 1026 499 1026 q 397 1016 432 1026 q 335 994 363 1006 q 292 973 308 983 q 277 964 276 964 l 253 1038 q 302 1064 276 1051 q 356 1087 328 1077 q 414 1104 384 1097 q 476 1110 444 1110 q 566 1100 529 1110 q 627 1068 604 1090 q 662 1012 651 1046 q 673 930 673 978 q 672 922 673 927 q 670 900 672 918 q 662 852 667 882 q 651 771 658 821 q 633 647 644 721 q 613 505 622 573 l 540 465 l 540 561 m 557 773 q 497 782 525 779 q 445 785 469 785 q 264 626 264 785 q 370 529 264 529 q 453 551 413 529 q 536 612 492 573 l 557 773 m 161 365 l 593 365 l 579 269 l 148 269 l 161 365 "},"ї":{"x_min":83.9375,"x_max":557.5625,"ha":382,"o":"m 261 0 l 124 0 l 233 773 l 370 773 l 261 0 m 234 998 q 227 958 233 977 q 208 926 220 940 q 181 904 197 912 q 148 897 166 897 q 101 918 118 897 q 84 970 84 939 q 90 1009 83 990 q 109 1042 97 1028 q 137 1066 121 1057 q 170 1075 153 1075 q 216 1054 198 1075 q 234 1003 233 1034 l 234 998 m 557 998 q 550 958 556 977 q 531 926 543 940 q 504 904 520 912 q 471 897 489 897 q 424 918 441 897 q 407 970 407 939 q 413 1009 407 990 q 432 1043 420 1028 q 459 1066 443 1057 q 493 1075 475 1075 q 539 1054 521 1075 q 557 1003 556 1034 l 557 998 "},"Œ":{"x_min":134,"x_max":1537.53125,"ha":1673,"o":"m 1395 0 l 768 0 l 787 137 q 736 64 769 95 q 661 12 702 33 q 574 -17 619 -7 q 487 -27 529 -27 q 338 -2 404 -27 q 227 72 272 21 q 158 198 182 122 q 134 379 134 275 q 150 575 134 482 q 198 747 167 668 q 274 891 229 827 q 374 1000 318 955 q 496 1070 430 1045 q 635 1094 561 1094 q 724 1083 682 1094 q 800 1051 766 1072 q 860 998 835 1030 q 898 923 886 966 l 920 1075 l 1537 1075 l 1520 962 l 1047 962 l 997 614 l 1414 614 l 1401 518 l 984 518 l 926 112 l 1412 112 l 1395 0 m 847 680 q 836 797 847 743 q 799 889 825 850 q 730 949 773 927 q 625 971 688 971 q 519 948 567 971 q 434 884 472 924 q 368 788 396 843 q 321 667 340 732 q 293 529 302 601 q 284 382 284 456 q 504 96 284 96 q 609 119 561 96 q 695 181 657 141 q 762 276 733 221 q 809 396 790 331 q 837 534 828 461 q 847 680 847 606 "},"ﬀ":{"x_min":149.390625,"x_max":1080.40625,"ha":945,"o":"m 948 965 q 907 957 925 965 q 874 930 888 950 q 849 872 859 909 q 832 774 838 834 l 1029 774 l 1021 708 l 822 708 l 722 0 l 586 0 l 687 708 l 388 708 l 287 0 l 151 0 l 252 708 l 149 708 l 156 774 l 261 774 q 296 924 273 864 q 353 1018 320 983 q 428 1067 386 1053 q 517 1081 470 1081 q 563 1073 541 1081 q 602 1056 585 1066 q 630 1038 619 1046 q 645 1027 641 1029 l 602 923 q 513 965 563 965 q 472 957 491 965 q 439 930 453 950 q 414 872 425 909 q 397 774 404 834 l 696 774 q 731 924 708 864 q 788 1018 755 983 q 863 1067 821 1053 q 952 1081 904 1081 q 998 1073 976 1081 q 1037 1056 1020 1066 q 1065 1038 1053 1046 q 1080 1027 1076 1029 l 1037 923 q 948 965 998 965 "},"Ą":{"x_min":17.640625,"x_max":860.828125,"ha":893,"o":"m 595 952 l 484 706 l 319 341 l 680 341 l 630 701 l 595 952 m 504 1075 l 708 1075 l 860 0 l 728 0 l 691 262 l 283 262 l 165 0 l 17 0 l 504 1075 m 839 -351 q 802 -360 822 -357 q 762 -366 784 -363 q 715 -369 739 -369 q 651 -362 683 -369 q 592 -338 618 -355 q 549 -289 566 -320 q 533 -207 533 -257 q 541 -160 533 -182 q 563 -117 549 -137 q 595 -79 577 -97 q 631 -47 613 -62 q 730 13 674 -14 l 802 13 q 714 -57 752 -20 q 681 -91 697 -73 q 653 -129 665 -109 q 633 -169 640 -148 q 625 -210 625 -189 q 635 -248 625 -233 q 659 -272 644 -263 q 693 -284 674 -281 q 731 -288 712 -288 q 770 -285 751 -288 q 805 -279 790 -283 q 839 -271 823 -276 l 839 -351 "},"T":{"x_min":119.328125,"x_max":847.78125,"ha":697,"o":"m 832 962 l 548 962 l 413 0 l 269 0 l 404 962 l 119 962 l 135 1075 l 847 1075 l 832 962 "},"Њ":{"x_min":86.8125,"x_max":1500.3125,"ha":1499,"o":"m 899 0 l 732 0 l 804 511 l 311 511 l 238 0 l 86 0 l 238 1075 l 390 1075 l 324 607 l 818 607 l 884 1075 l 1036 1075 l 977 656 l 1064 656 q 1361 610 1256 656 q 1490 466 1466 564 q 1499 372 1502 421 q 1458 194 1495 266 q 1356 80 1421 123 q 1199 18 1291 36 q 992 0 1107 0 l 899 0 m 1354 377 q 1345 431 1355 410 q 1300 491 1332 468 q 1227 524 1269 513 q 1138 540 1186 536 q 1048 544 1091 544 l 961 544 l 900 112 l 1014 112 q 1186 129 1120 112 q 1288 178 1252 145 q 1338 261 1325 211 q 1354 377 1351 311 "},"š":{"x_min":58.28125,"x_max":699.515625,"ha":629,"o":"m 127 574 q 147 665 127 626 q 205 732 168 705 q 292 773 242 759 q 401 787 343 787 q 470 780 436 787 q 535 763 504 774 q 595 737 567 752 q 646 709 623 723 l 602 615 q 563 636 586 624 q 514 657 541 647 q 458 674 487 668 q 399 681 428 681 q 292 659 332 681 q 253 590 253 636 q 257 558 253 572 q 269 535 261 545 q 293 516 278 524 q 328 498 307 507 l 423 460 q 491 428 458 446 q 549 387 524 410 q 590 333 575 363 q 606 263 606 302 q 582 146 606 198 q 517 59 558 94 q 422 5 476 23 q 309 -13 368 -13 q 227 -6 265 -13 q 156 12 188 0 q 99 38 124 24 q 58 67 74 53 l 101 157 q 134 135 113 147 q 181 114 155 124 q 239 98 208 105 q 307 92 271 92 q 374 101 343 92 q 427 129 405 111 q 461 174 449 147 q 474 235 474 201 q 469 264 474 251 q 453 287 464 276 q 425 309 443 299 q 382 330 407 319 l 282 372 q 214 407 244 388 q 165 449 185 425 q 136 503 146 473 q 127 574 127 533 m 472 873 l 377 873 l 298 1251 l 407 1251 l 452 1036 l 581 1251 l 699 1251 l 472 873 "},"є":{"x_min":102.96875,"x_max":733.75,"ha":713,"o":"m 498 787 q 524 786 511 787 q 549 783 537 786 q 646 756 602 776 q 733 701 691 737 l 680 603 q 649 631 667 617 q 610 656 632 645 q 565 674 589 667 q 514 681 541 681 q 352 621 412 681 q 265 445 292 562 l 503 445 l 488 349 l 249 349 q 246 314 247 331 q 246 281 246 297 q 280 142 246 190 q 383 91 313 93 q 413 91 398 89 q 444 94 428 92 q 535 124 490 102 q 612 171 580 145 l 632 69 q 499 5 562 25 q 367 -14 435 -14 q 259 5 307 -14 q 176 64 211 26 q 122 157 142 102 q 103 279 103 211 q 115 413 102 349 q 151 535 127 478 q 211 638 175 592 q 290 717 246 684 q 387 769 334 750 q 498 787 439 787 "},"Þ":{"x_min":86.8125,"x_max":888.109375,"ha":895,"o":"m 238 1076 l 383 1076 l 370 986 l 480 986 q 667 971 590 986 q 794 927 744 957 q 865 849 843 896 q 888 735 888 802 q 855 555 888 630 q 758 432 823 480 q 595 362 693 384 q 367 340 497 340 l 279 340 l 231 0 l 86 0 l 238 1076 m 745 706 q 740 756 746 734 q 717 808 734 786 q 667 843 700 829 q 585 863 635 857 q 464 870 535 870 l 354 870 l 295 456 l 382 456 q 551 468 482 456 q 663 511 620 481 q 724 589 705 541 q 745 706 743 637 "},"j":{"x_min":20.4375,"x_max":440.078125,"ha":399,"o":"m 434 955 q 427 936 433 945 q 408 921 420 927 q 381 911 396 915 q 348 907 365 907 q 301 928 318 907 q 284 981 284 950 q 290 1020 284 1001 q 309 1053 297 1039 q 337 1077 322 1068 q 371 1086 353 1086 q 417 1065 399 1086 q 434 1014 434 1045 q 438 984 442 1013 q 434 955 434 955 m 20 -152 q 86 -100 59 -127 q 130 -40 113 -73 q 159 33 148 -7 q 177 127 170 74 l 267 773 l 408 773 l 312 113 q 279 -18 302 42 q 221 -126 256 -79 q 142 -205 187 -173 q 44 -250 97 -237 l 20 -152 "},"1":{"x_min":145,"x_max":456.296875,"ha":468,"o":"m 209 0 l 306 685 l 168 640 l 145 739 l 320 798 l 456 798 l 343 0 l 209 0 "},"›":{"x_min":128.6875,"x_max":598.34375,"ha":670,"o":"m 202 580 l 221 739 l 598 458 l 581 327 l 128 47 l 150 208 l 453 396 l 202 580 "},"ћ":{"x_min":93.59375,"x_max":812.765625,"ha":823,"o":"m 379 987 l 777 987 l 764 891 l 366 891 l 335 673 q 368 705 351 690 q 399 732 384 719 q 447 763 424 751 q 492 784 469 776 q 540 795 516 792 q 591 798 564 798 q 683 785 642 798 q 752 745 723 772 q 796 678 780 719 q 812 583 811 637 q 809 540 813 573 q 798 461 804 507 q 786 370 792 418 q 774 274 780 322 q 761 181 767 226 q 750 98 755 135 q 742 35 746 61 q 737 0 739 9 l 590 0 q 596 41 592 10 q 606 116 600 72 q 619 213 612 160 q 633 318 626 265 q 647 419 640 371 q 658 503 654 467 q 662 532 661 521 q 664 546 664 543 q 639 657 666 621 q 554 693 612 693 q 480 682 515 693 q 415 656 445 672 q 362 624 385 641 q 324 594 338 607 l 240 0 l 93 0 l 219 891 l 112 891 l 125 987 l 233 987 l 247 1089 l 398 1119 l 379 987 "},"<":{"x_min":148.46875,"x_max":621.921875,"ha":681,"o":"m 598 584 l 279 393 l 547 199 l 523 43 l 148 323 l 167 458 l 621 738 l 598 584 "},"Ц":{"x_min":86.8125,"x_max":1039.71875,"ha":987,"o":"m 968 27 l 925 -275 l 783 -275 l 822 0 l 86 0 l 238 1075 l 390 1075 l 254 112 l 750 112 l 887 1075 l 1039 1075 l 890 27 l 968 27 "},"t":{"x_min":131.359375,"x_max":550.328125,"ha":513,"o":"m 340 94 q 388 103 363 94 q 432 123 412 112 q 479 151 457 135 l 524 69 q 505 56 523 69 q 458 29 487 43 q 390 1 428 14 q 312 -11 352 -11 q 251 0 278 -11 q 204 31 224 10 q 173 82 184 52 q 159 151 161 112 q 158 167 158 158 q 160 193 159 177 q 166 264 160 217 l 231 707 l 131 707 l 140 773 l 240 773 l 280 1050 l 419 1088 l 375 773 l 550 773 l 540 707 l 366 707 l 291 174 q 301 115 285 136 q 340 94 316 94 "},"¬":{"x_min":151.921875,"x_max":968.53125,"ha":1083,"o":"m 968 762 l 892 225 l 856 225 l 925 722 l 151 722 l 158 762 l 968 762 "},"ǒ":{"x_min":104,"x_max":786.671875,"ha":783,"o":"m 104 291 q 114 407 104 348 q 145 521 124 466 q 199 625 167 576 q 276 709 232 673 q 378 766 321 746 q 506 787 435 787 q 639 762 586 787 q 726 696 693 738 q 772 600 758 654 q 786 486 786 545 q 758 294 786 384 q 677 134 729 203 q 550 26 624 66 q 384 -13 475 -13 q 268 7 319 -13 q 179 67 216 27 q 123 163 143 106 q 104 291 104 219 m 400 92 q 483 109 447 92 q 547 156 520 126 q 594 224 575 185 q 625 305 613 262 q 643 392 638 348 q 649 477 649 437 q 640 558 649 521 q 614 623 632 596 q 565 666 595 650 q 490 681 535 681 q 406 663 442 681 q 341 613 369 644 q 294 542 313 582 q 263 459 275 502 q 246 373 251 416 q 241 293 241 329 q 249 214 241 251 q 276 150 257 177 q 325 107 295 123 q 400 92 356 92 m 533 860 l 438 860 l 359 1238 l 468 1238 l 513 1023 l 642 1238 l 760 1238 l 533 860 "},"ù":{"x_min":121,"x_max":805.0625,"ha":795,"o":"m 335 773 q 330 734 334 764 q 320 661 326 704 q 307 566 314 618 q 293 463 300 515 q 280 365 286 412 q 269 282 274 317 q 265 254 267 265 q 264 239 264 243 q 274 166 263 195 q 311 111 285 129 q 375 92 336 93 q 481 117 430 92 q 583 188 532 141 l 664 773 l 805 773 l 697 0 l 594 0 q 589 59 591 30 q 585 118 587 87 q 473 20 532 54 q 348 -13 414 -13 q 121 212 121 -13 q 126 261 121 222 q 138 353 131 300 q 149 439 144 395 q 161 528 155 484 q 172 612 167 571 q 182 686 178 653 q 190 742 187 719 q 194 773 193 765 l 335 773 m 572 885 l 500 885 l 344 1321 l 545 1321 l 572 885 "},"Ф":{"x_min":133.734375,"x_max":1062.59375,"ha":1051,"o":"m 621 209 q 751 250 696 217 q 842 337 805 282 q 893 460 876 390 q 912 607 909 529 q 887 741 912 688 q 823 826 867 799 q 713 859 779 852 l 621 209 m 564 859 q 499 842 528 854 q 421 806 456 829 q 361 747 387 783 q 324 681 340 718 q 298 604 309 644 q 283 521 288 563 q 279 438 278 478 q 293 343 279 383 q 333 275 307 303 q 393 231 358 247 q 472 209 429 215 l 564 859 m 589 -13 l 440 -13 l 455 93 q 314 127 374 98 q 214 201 254 155 q 154 305 174 247 q 133 430 134 364 q 134 477 133 453 q 139 524 136 500 q 188 701 151 619 q 283 844 226 783 q 416 940 341 905 q 581 974 492 974 l 597 1088 l 746 1088 l 729 974 q 973 876 887 964 q 1062 622 1059 789 q 1050 492 1063 556 q 1012 369 1038 428 q 948 262 986 311 q 858 175 909 212 q 743 117 807 138 q 604 92 680 95 l 589 -13 "},"ĉ":{"x_min":103.984375,"x_max":729.328125,"ha":662,"o":"m 104 287 q 137 493 104 401 q 225 651 170 586 q 351 752 280 716 q 500 787 423 787 q 625 767 570 787 q 729 709 680 748 l 676 606 q 646 633 665 619 q 604 657 627 647 q 555 674 581 668 q 504 681 529 681 q 411 661 451 681 q 341 605 371 640 q 292 524 312 571 q 262 425 273 477 q 250 355 254 389 q 247 291 247 321 q 286 141 246 190 q 402 92 327 92 q 477 103 441 92 q 544 130 514 114 q 576 150 561 139 q 607 172 592 160 l 626 71 q 501 8 563 29 q 370 -13 439 -12 q 265 5 314 -12 q 180 59 216 23 q 123 153 144 96 q 104 287 103 209 m 432 1231 l 529 1231 l 616 854 l 511 854 l 461 1069 l 339 854 l 215 854 l 432 1231 "},"ï":{"x_min":69,"x_max":558.65625,"ha":406,"o":"m 261 0 l 124 0 l 234 786 l 371 786 l 261 0 m 243 947 q 234 906 243 926 q 212 872 225 887 q 180 848 198 857 q 144 840 163 840 q 114 846 128 840 q 90 863 100 852 q 74 888 80 873 q 69 920 69 903 q 77 961 69 941 q 99 997 85 981 q 132 1022 113 1012 q 170 1031 150 1031 q 222 1009 202 1031 q 244 951 243 986 q 244 949 244 950 q 243 947 243 948 m 558 945 q 549 905 557 924 q 526 871 540 886 q 495 847 513 856 q 459 838 477 838 q 429 844 443 838 q 404 861 414 850 q 388 887 394 872 q 383 919 383 901 q 391 960 383 940 q 413 996 399 981 q 446 1021 427 1011 q 484 1030 464 1030 q 513 1024 500 1030 q 537 1007 527 1018 q 552 982 547 996 q 558 951 558 967 l 558 945 "},"ī":{"x_min":61.390625,"x_max":532.75,"ha":381,"o":"m 256 0 l 119 0 l 230 773 l 367 773 l 256 0 m 517 844 l 61 844 l 77 959 l 532 959 l 517 844 "},"Ò":{"x_min":134,"x_max":1002.5625,"ha":990,"o":"m 1002 694 q 963 401 1002 534 q 855 174 925 269 q 691 25 786 78 q 483 -27 596 -27 q 338 -3 402 -27 q 228 67 273 19 q 158 188 182 116 q 134 361 134 261 q 151 561 134 465 q 200 737 168 656 q 278 884 232 819 q 380 997 323 950 q 505 1069 437 1044 q 647 1094 572 1094 q 807 1066 740 1094 q 917 987 874 1038 q 981 860 961 935 q 1002 694 1002 786 m 852 696 q 840 807 852 756 q 803 894 828 857 q 735 950 777 930 q 633 971 694 971 q 525 946 574 971 q 438 880 477 922 q 370 780 399 838 q 322 655 341 722 q 294 514 303 587 q 284 364 284 440 q 339 162 284 228 q 501 96 394 96 q 608 119 559 96 q 695 184 656 143 q 763 282 734 225 q 812 406 793 339 q 842 546 832 472 q 852 696 852 620 m 742 1158 l 670 1158 l 514 1594 l 715 1594 l 742 1158 "},"О":{"x_min":134,"x_max":1002.5625,"ha":990,"o":"m 1002 694 q 963 401 1002 534 q 855 174 925 269 q 691 25 786 78 q 483 -27 596 -27 q 338 -3 402 -27 q 228 67 273 19 q 158 188 182 116 q 134 361 134 261 q 151 561 134 465 q 200 737 168 656 q 278 884 232 819 q 380 997 323 950 q 505 1069 437 1044 q 647 1094 572 1094 q 807 1066 740 1094 q 917 987 874 1038 q 981 860 961 935 q 1002 694 1002 786 m 852 696 q 840 807 852 756 q 803 894 828 857 q 735 950 777 930 q 633 971 694 971 q 525 946 574 971 q 438 880 477 922 q 370 780 399 838 q 322 655 341 722 q 294 514 303 587 q 284 364 284 440 q 339 162 284 228 q 501 96 394 96 q 608 119 559 96 q 695 184 656 143 q 763 282 734 225 q 812 406 793 339 q 842 546 832 472 q 852 696 852 620 "},"Ď":{"x_min":85.453125,"x_max":947.078125,"ha":930,"o":"m 795 673 q 739 892 795 822 q 567 962 683 962 l 368 962 l 245 112 l 454 112 q 577 139 525 112 q 668 210 630 166 q 730 312 705 254 q 769 432 755 370 q 789 557 784 495 q 795 673 795 619 m 947 674 q 932 534 947 608 q 902 383 917 460 q 850 238 887 307 q 757 116 813 169 q 624 31 701 63 q 444 0 546 0 l 85 0 l 240 1075 l 584 1075 q 739 1051 671 1075 q 853 978 807 1027 q 923 853 899 929 q 947 674 947 777 m 636 1168 l 541 1168 l 462 1546 l 571 1546 l 616 1331 l 745 1546 l 863 1546 l 636 1168 "},"&":{"x_min":73.96875,"x_max":988,"ha":1073,"o":"m 453 615 q 469 621 461 618 q 486 627 476 623 q 544 653 516 639 q 594 689 573 668 q 628 737 615 709 q 640 804 640 765 q 606 879 640 853 q 511 905 573 905 q 427 890 458 905 q 379 856 395 876 q 358 812 363 835 q 353 772 353 789 q 365 722 353 746 q 393 678 376 698 q 426 642 410 658 q 453 615 443 625 m 766 820 q 749 727 766 771 q 703 647 733 683 q 628 583 672 611 q 530 537 584 554 l 778 284 q 816 404 794 339 q 861 535 838 468 l 974 535 q 947 441 964 488 q 915 348 931 394 q 885 266 899 303 q 858 203 870 230 l 988 70 l 914 -12 l 795 110 q 744 56 773 81 q 670 12 714 31 q 564 -16 626 -5 q 418 -26 503 -26 q 279 -10 342 -26 q 171 37 217 5 q 100 115 126 69 q 74 223 74 162 q 91 335 73 282 q 145 434 109 389 q 231 514 180 479 q 348 570 283 549 q 310 610 331 588 q 270 657 288 632 q 239 712 251 683 q 227 774 227 742 q 241 852 226 811 q 291 929 256 894 q 383 987 326 964 q 522 1010 439 1010 q 625 996 579 1010 q 702 958 670 983 q 749 898 733 933 q 766 820 766 863 m 421 495 q 330 462 371 484 q 260 409 289 440 q 215 339 231 378 q 200 256 200 300 q 216 181 200 213 q 263 127 233 148 q 336 96 293 106 q 432 86 378 86 q 533 91 490 86 q 610 109 577 97 q 669 141 644 121 q 718 189 695 161 l 421 495 "},"˝":{"x_min":215,"x_max":859.3125,"ha":1059,"o":"m 316 87 l 215 87 l 342 520 l 529 520 l 316 87 m 577 87 l 476 87 l 672 520 l 859 520 l 577 87 "},"I":{"x_min":84.09375,"x_max":634.8125,"ha":583,"o":"m 96 82 l 221 82 l 352 978 l 228 978 l 242 1075 l 634 1075 l 621 978 l 495 978 l 363 82 l 489 82 l 476 0 l 84 0 l 96 82 "},"G":{"x_min":134,"x_max":954.53125,"ha":950,"o":"m 134 375 q 146 539 134 454 q 185 703 159 623 q 254 854 212 782 q 356 979 296 925 q 493 1064 415 1033 q 669 1095 571 1095 q 807 1073 735 1094 q 954 1003 879 1052 l 902 896 q 775 951 833 930 q 659 972 717 972 q 529 944 585 972 q 431 869 473 916 q 361 762 389 823 q 316 636 333 701 q 292 505 299 571 q 284 382 284 439 q 299 251 284 305 q 344 163 315 197 q 417 112 373 128 q 518 96 461 96 q 617 109 572 96 q 693 143 661 122 q 747 193 726 165 q 774 254 767 222 q 776 261 775 258 q 777 269 776 265 l 801 456 l 555 456 l 571 562 l 944 562 l 865 0 l 782 0 l 779 111 q 741 64 765 89 q 682 19 717 40 q 601 -13 648 0 q 494 -27 554 -27 q 226 72 319 -27 q 134 375 134 171 "},"`":{"x_min":85,"x_max":313.5625,"ha":484,"o":"m 313 100 l 241 100 l 85 536 l 286 536 l 313 100 "},"·":{"x_min":120,"x_max":299.734375,"ha":358,"o":"m 219 551 q 251 545 236 551 q 276 527 265 539 q 293 500 287 515 q 299 467 299 485 q 291 426 299 446 q 269 392 283 407 q 239 368 256 377 q 202 360 221 360 q 170 366 185 360 q 144 385 155 373 q 126 412 132 396 q 120 445 120 427 q 128 485 120 466 q 149 519 136 504 q 181 543 163 534 q 219 551 199 551 "},"ŏ":{"x_min":104,"x_max":786.671875,"ha":783,"o":"m 104 291 q 114 407 104 348 q 145 521 124 466 q 199 625 167 576 q 276 709 232 673 q 378 766 321 746 q 506 787 435 787 q 639 762 586 787 q 726 696 693 738 q 772 600 758 654 q 786 486 786 545 q 758 294 786 384 q 677 134 729 203 q 550 26 624 66 q 384 -13 475 -13 q 268 7 319 -13 q 179 67 216 27 q 123 163 143 106 q 104 291 104 219 m 400 92 q 483 109 447 92 q 547 156 520 126 q 594 224 575 185 q 625 305 613 262 q 643 392 638 348 q 649 477 649 437 q 640 558 649 521 q 614 623 632 596 q 565 666 595 650 q 490 681 535 681 q 406 663 442 681 q 341 613 369 644 q 294 542 313 582 q 263 459 275 502 q 246 373 251 416 q 241 293 241 329 q 249 214 241 251 q 276 150 257 177 q 325 107 295 123 q 400 92 356 92 m 743 1037 q 741 1025 742 1030 q 738 1013 740 1019 q 672 900 721 939 q 535 861 623 861 q 417 895 454 861 q 380 994 380 929 q 380 1014 379 1003 q 382 1037 381 1025 l 473 1037 q 471 1016 471 1025 q 475 991 470 1002 q 487 971 479 979 q 549 941 503 941 q 619 965 592 941 q 654 1037 646 990 l 743 1037 "},"¿":{"x_min":102,"x_max":693.828125,"ha":718,"o":"m 239 228 q 278 144 239 169 q 399 119 316 119 q 452 123 425 119 q 506 135 479 128 q 558 151 533 142 q 607 168 584 160 l 639 56 q 584 34 614 45 q 519 14 553 23 q 448 1 485 6 q 374 -4 411 -4 q 248 11 300 -4 q 164 56 196 27 q 117 123 132 84 q 102 208 102 162 q 121 316 102 265 q 172 408 141 366 q 244 485 204 451 q 326 547 285 520 q 407 594 367 575 q 475 625 446 613 l 494 743 l 622 743 l 601 557 q 576 546 590 552 q 545 531 561 539 q 481 499 515 517 q 412 460 446 481 q 346 412 378 438 q 291 358 314 387 q 253 296 267 329 q 239 228 239 264 m 693 1004 q 675 908 688 954 q 644 823 661 861 q 558 829 599 823 q 482 845 518 835 q 501 941 487 895 q 531 1026 515 987 q 617 1019 576 1026 q 693 1004 658 1013 "},"ý":{"x_min":43.5,"x_max":788.703125,"ha":698,"o":"m 43 -209 q 87 -199 67 -204 q 126 -185 108 -193 q 224 -108 183 -161 q 297 22 265 -54 l 280 97 l 126 773 l 260 773 l 377 197 l 638 773 l 766 773 l 422 46 q 375 -52 400 -1 q 324 -150 351 -103 q 255 -234 297 -197 q 160 -293 214 -272 q 116 -306 139 -301 q 67 -315 93 -312 l 43 -209 m 575 887 l 474 887 l 601 1320 l 788 1320 l 575 887 "},"Ђ":{"x_min":132.046875,"x_max":1010.84375,"ha":1028,"o":"m 537 -53 q 576 -51 557 -52 q 611 -47 594 -50 q 616 -47 613 -47 q 621 -47 618 -47 q 727 -3 685 -38 q 791 100 769 31 q 802 139 797 120 q 810 181 807 158 q 817 232 813 204 q 826 302 821 261 q 839 397 832 342 q 856 525 846 451 q 860 552 859 540 q 862 567 862 563 q 852 632 862 606 q 749 700 830 700 q 679 691 713 700 q 615 667 645 682 q 560 636 585 653 q 517 603 535 619 l 430 0 l 278 0 l 417 960 l 132 960 l 149 1076 l 873 1076 l 857 960 l 569 960 l 529 683 q 595 744 564 719 q 658 784 626 768 q 722 806 689 799 q 790 812 754 812 q 953 757 898 812 q 1010 588 1009 701 q 1009 562 1011 579 q 1004 524 1007 546 q 995 461 1000 495 q 986 389 991 426 q 976 317 981 353 q 967 251 971 281 q 961 200 964 221 q 957 173 958 179 q 853 -59 936 23 q 629 -160 770 -143 q 573 -163 600 -163 q 518 -159 545 -163 l 537 -53 "},"º":{"x_min":144.140625,"x_max":705.015625,"ha":797,"o":"m 385 454 q 286 472 328 454 q 215 524 243 490 q 172 604 186 557 q 159 708 159 651 q 165 787 159 744 q 186 876 171 831 q 226 963 201 921 q 285 1038 250 1005 q 368 1090 321 1071 q 477 1110 416 1110 q 577 1091 534 1110 q 648 1039 619 1073 q 690 957 676 1005 q 705 852 705 910 q 697 763 705 809 q 672 672 689 717 q 630 588 656 628 q 569 519 605 548 q 488 471 534 489 q 385 454 442 454 m 397 538 q 470 554 439 538 q 525 595 502 569 q 563 653 548 620 q 588 720 579 685 q 601 789 597 755 q 606 850 606 822 q 572 978 606 932 q 466 1025 538 1025 q 394 1009 425 1025 q 339 969 363 994 q 300 911 316 943 q 275 843 285 878 q 261 774 265 808 q 257 711 257 740 q 291 584 257 629 q 397 538 325 538 m 157 358 l 588 358 l 576 262 l 144 262 l 157 358 "},"ź":{"x_min":56.609375,"x_max":724.703125,"ha":587,"o":"m 495 667 l 164 667 l 178 773 l 636 773 l 620 654 l 192 105 l 535 105 l 531 0 l 56 0 l 72 122 l 495 667 m 511 887 l 410 887 l 537 1320 l 724 1320 l 511 887 "},"ű":{"x_min":121,"x_max":984.3125,"ha":795,"o":"m 335 773 q 330 734 334 764 q 320 661 326 704 q 307 566 314 618 q 293 463 300 515 q 280 365 286 412 q 269 282 274 317 q 265 254 267 265 q 264 239 264 243 q 274 166 263 195 q 311 111 285 129 q 375 92 336 93 q 481 117 430 92 q 583 188 532 141 l 664 773 l 805 773 l 697 0 l 594 0 q 589 59 591 30 q 585 118 587 87 q 473 20 532 54 q 348 -13 414 -13 q 121 212 121 -13 q 126 261 121 222 q 138 353 131 300 q 149 439 144 395 q 161 528 155 484 q 172 612 167 571 q 182 686 178 653 q 190 742 187 719 q 194 773 193 765 l 335 773 m 441 887 l 340 887 l 467 1320 l 654 1320 l 441 887 m 702 887 l 601 887 l 797 1320 l 984 1320 l 702 887 "},"я":{"x_min":102,"x_max":788.765625,"ha":791,"o":"m 293 500 q 293 482 292 493 q 295 463 294 470 q 313 418 299 438 q 353 383 327 397 q 419 360 379 368 q 513 353 458 353 l 589 353 l 639 676 q 551 674 594 676 q 470 667 508 673 q 400 650 432 661 q 344 619 368 638 q 307 571 321 600 q 293 500 294 542 m 788 701 l 679 0 l 534 0 l 576 267 l 455 267 l 252 0 l 102 0 l 332 277 q 255 303 289 285 q 195 347 220 322 q 157 403 170 372 q 144 465 144 433 q 186 631 142 568 q 311 725 229 694 q 492 764 385 755 q 741 772 600 772 l 788 701 "},"Ё":{"x_min":85.453125,"x_max":856.59375,"ha":756,"o":"m 714 0 l 85 0 l 237 1075 l 856 1075 l 839 962 l 366 962 l 316 614 l 733 614 l 719 518 l 303 518 l 245 112 l 732 112 l 714 0 m 514 1246 q 505 1205 513 1225 q 482 1171 496 1186 q 451 1147 469 1156 q 415 1139 433 1139 q 385 1145 399 1139 q 360 1162 370 1151 q 344 1187 350 1172 q 339 1219 339 1202 q 347 1261 339 1241 q 369 1297 355 1281 q 402 1321 383 1312 q 440 1330 420 1330 q 493 1308 473 1330 q 514 1251 513 1286 l 514 1246 m 828 1245 q 819 1205 828 1224 q 797 1170 810 1185 q 765 1147 783 1155 q 729 1138 748 1138 q 675 1161 696 1138 q 654 1219 654 1184 q 662 1260 654 1240 q 684 1296 670 1280 q 717 1320 698 1311 q 755 1330 735 1330 q 807 1307 787 1330 q 828 1250 828 1284 l 828 1245 "},"Ǽ":{"x_min":18,"x_max":1372.71875,"ha":1337,"o":"m 838 614 l 1257 614 l 1246 518 l 825 518 l 772 115 l 1254 115 l 1240 0 l 624 0 l 657 248 l 324 248 l 168 0 l 18 0 l 711 1073 l 1372 1073 l 1357 957 l 884 957 l 838 614 m 670 345 l 747 920 l 385 345 l 670 345 "},"ń":{"x_min":86.734375,"x_max":779.109375,"ha":792,"o":"m 561 0 q 588 192 576 110 q 607 333 599 274 q 621 432 616 392 q 631 501 627 473 q 635 528 634 519 q 636 543 636 536 q 630 601 636 575 q 613 644 625 626 q 580 672 600 662 q 529 681 559 681 q 471 670 502 681 q 408 643 439 659 q 351 609 377 627 q 311 578 325 592 l 229 0 l 86 0 l 197 773 l 300 773 l 306 655 q 358 703 327 679 q 426 745 390 726 q 501 775 463 763 q 575 787 540 787 q 779 573 779 787 q 778 558 779 565 q 777 542 778 551 q 774 521 775 533 q 770 491 772 509 q 759 414 765 458 q 745 311 753 371 q 727 175 737 252 q 703 0 717 98 l 561 0 m 557 878 l 456 878 l 583 1311 l 770 1311 l 557 878 "},"Ș":{"x_min":106.734375,"x_max":851.953125,"ha":839,"o":"m 818 896 q 777 920 803 907 q 716 945 750 934 q 646 964 683 957 q 573 972 609 972 q 458 959 506 972 q 381 924 411 947 q 337 869 350 902 q 323 797 323 837 q 331 750 323 770 q 355 716 339 731 q 396 690 371 701 q 452 667 420 680 l 610 602 q 695 560 658 584 q 757 505 732 536 q 794 436 782 475 q 807 349 807 398 q 783 206 807 274 q 708 86 759 138 q 580 3 657 34 q 396 -27 502 -27 q 303 -20 348 -27 q 218 -3 257 -13 q 150 19 179 6 q 106 42 121 31 l 136 167 q 189 138 161 152 q 248 116 216 125 q 315 101 279 106 q 393 96 351 96 q 595 151 529 96 q 662 320 662 206 q 654 371 662 349 q 631 409 646 392 q 594 440 615 427 q 543 465 572 453 l 373 537 q 289 580 326 556 q 205 663 233 614 q 178 773 178 711 q 209 908 178 849 q 291 1009 240 968 q 410 1073 343 1051 q 549 1095 477 1095 q 640 1089 596 1095 q 723 1073 684 1084 q 794 1049 762 1063 q 851 1019 827 1035 l 818 896 m 295 -320 l 327 -99 l 529 -99 l 499 -319 q 479 -393 495 -362 q 440 -446 464 -424 q 385 -483 416 -468 q 318 -508 354 -497 l 287 -440 q 354 -396 327 -426 q 388 -320 382 -365 l 295 -320 "},";":{"x_min":113,"x_max":397.859375,"ha":515,"o":"m 116 0 l 144 221 l 348 221 l 323 10 q 302 -67 319 -34 q 260 -124 285 -100 q 204 -162 235 -148 q 143 -186 174 -177 l 113 -118 q 179 -74 152 -105 q 214 0 207 -44 l 116 0 m 171 437 l 196 643 l 397 643 l 373 437 l 171 437 "},"Г":{"x_min":86.8125,"x_max":883.71875,"ha":781,"o":"m 883 1075 l 868 962 l 375 962 l 238 0 l 86 0 l 238 1075 l 883 1075 "},"Ġ":{"x_min":134,"x_max":954.53125,"ha":950,"o":"m 134 375 q 146 539 134 454 q 185 703 159 623 q 254 854 212 782 q 356 979 296 925 q 493 1064 415 1033 q 669 1095 571 1095 q 807 1073 735 1094 q 954 1003 879 1052 l 902 896 q 775 951 833 930 q 659 972 717 972 q 529 944 585 972 q 431 869 473 916 q 361 762 389 823 q 316 636 333 701 q 292 505 299 571 q 284 382 284 439 q 299 251 284 305 q 344 163 315 197 q 417 112 373 128 q 518 96 461 96 q 617 109 572 96 q 693 143 661 122 q 747 193 726 165 q 774 254 767 222 q 776 261 775 258 q 777 269 776 265 l 801 456 l 555 456 l 571 562 l 944 562 l 865 0 l 782 0 l 779 111 q 741 64 765 89 q 682 19 717 40 q 601 -13 648 0 q 494 -27 554 -27 q 226 72 319 -27 q 134 375 134 171 m 781 1198 l 579 1198 l 609 1419 l 811 1419 l 781 1198 "},"6":{"x_min":132,"x_max":776.25,"ha":807,"o":"m 287 361 q 281 341 283 352 q 275 318 278 331 q 267 267 271 297 q 264 199 264 238 q 425 9 264 9 q 524 35 482 9 q 592 99 566 60 q 631 186 618 138 q 644 280 644 234 q 633 349 644 319 q 603 398 622 379 q 557 428 583 418 q 499 439 530 439 q 411 426 450 439 q 344 400 372 414 q 287 361 311 382 m 776 284 q 766 192 776 239 q 736 103 756 146 q 687 21 717 59 q 616 -44 656 -16 q 524 -89 575 -73 q 411 -106 472 -106 q 288 -81 341 -106 q 201 -13 236 -57 q 149 92 166 30 q 132 230 132 154 q 152 382 132 308 q 208 523 172 456 q 294 648 244 590 q 405 755 344 707 q 535 839 465 803 q 678 897 604 875 l 695 781 q 589 743 645 770 q 481 677 533 717 q 385 583 428 637 q 317 464 342 530 q 404 523 352 501 q 518 544 455 544 q 628 525 580 544 q 709 471 676 506 q 759 389 742 437 q 776 284 776 341 "},"Ь":{"x_min":134.96875,"x_max":909.265625,"ha":906,"o":"m 415 543 l 364 543 l 302 112 l 387 112 q 576 126 503 112 q 691 172 650 140 q 748 256 733 205 q 763 383 763 308 q 748 445 762 419 q 712 488 735 471 q 659 517 689 506 q 595 533 629 528 q 525 541 561 539 q 456 543 490 543 l 415 543 m 908 376 q 897 273 908 317 q 838 138 880 191 q 734 54 797 85 q 587 11 671 23 q 400 0 503 0 l 134 0 l 287 1075 l 439 1075 l 380 655 l 472 655 q 667 639 585 655 q 802 592 749 624 q 881 511 855 560 q 908 395 907 462 q 909 386 909 390 q 908 376 908 381 "},"n":{"x_min":86.734375,"x_max":779.109375,"ha":789,"o":"m 561 0 q 588 192 576 110 q 607 333 599 274 q 621 432 616 392 q 631 501 627 473 q 635 528 634 519 q 636 543 636 536 q 630 601 636 575 q 613 644 625 626 q 580 672 600 662 q 529 681 559 681 q 471 670 502 681 q 408 643 439 659 q 351 609 377 627 q 311 578 325 592 l 229 0 l 86 0 l 197 773 l 300 773 l 306 655 q 358 703 327 679 q 426 745 390 726 q 501 775 463 763 q 575 787 540 787 q 779 573 779 787 q 778 558 779 565 q 777 542 778 551 q 774 521 775 533 q 770 491 772 509 q 759 414 765 458 q 745 311 753 371 q 727 175 737 252 q 703 0 717 98 l 561 0 "},"ģ":{"x_min":37,"x_max":865.03125,"ha":768,"o":"m 296 532 q 307 477 296 500 q 337 437 319 453 q 377 413 355 421 q 421 404 399 405 q 507 419 472 407 q 566 453 543 432 q 599 505 589 475 q 610 572 610 534 q 599 623 610 601 q 569 660 588 645 q 525 682 550 674 q 471 690 499 690 q 391 679 424 690 q 336 647 357 668 q 305 597 315 627 q 296 532 296 568 m 163 -88 q 212 -164 163 -141 q 369 -188 262 -188 q 547 -157 488 -188 q 606 -60 606 -126 q 591 -14 606 -33 q 553 16 577 4 q 500 36 530 29 q 437 49 469 44 l 277 71 q 193 -8 223 33 q 163 -88 163 -50 m 737 569 q 667 399 737 466 q 456 299 596 332 l 285 260 q 215 216 222 247 q 242 183 220 195 q 299 166 264 171 q 373 154 334 160 q 443 143 412 148 q 570 117 516 132 q 660 78 624 101 q 714 21 696 54 q 732 -58 732 -12 q 716 -136 732 -102 q 673 -196 701 -171 q 609 -241 646 -222 q 529 -271 572 -260 q 440 -288 487 -283 q 348 -294 394 -294 q 220 -281 277 -294 q 122 -244 163 -268 q 59 -188 81 -221 q 37 -118 37 -156 q 59 -30 39 -66 q 108 30 78 4 q 137 53 121 41 q 168 73 154 64 q 192 90 182 83 q 206 99 203 96 q 195 104 206 99 q 168 117 183 108 q 139 138 153 126 q 120 164 125 150 q 110 230 108 193 q 145 300 112 273 q 248 345 179 328 l 319 363 q 266 380 293 367 q 218 415 240 393 q 183 465 197 436 q 170 533 170 495 q 189 631 170 585 q 246 712 208 678 q 338 767 283 747 q 463 787 392 787 q 563 776 520 787 q 646 737 607 764 q 716 765 685 754 q 777 780 747 775 q 820 789 799 786 q 865 794 841 792 l 860 681 l 693 681 q 727 617 717 644 q 737 569 737 591 m 566 1059 l 549 838 l 347 838 l 365 1057 q 383 1131 368 1100 q 421 1184 398 1162 q 476 1221 445 1207 q 542 1246 506 1236 l 573 1178 q 504 1130 528 1157 q 474 1059 479 1102 l 566 1059 "},"ѝ":{"x_min":121,"x_max":805.0625,"ha":795,"o":"m 569 874 l 502 860 l 354 1262 l 542 1309 l 569 874 m 335 773 q 330 736 334 764 q 321 666 326 707 q 308 575 315 625 q 295 474 302 524 q 281 376 288 423 q 270 290 275 328 q 265 258 267 271 q 264 237 264 244 q 274 164 263 193 q 311 110 285 128 q 375 92 336 92 q 481 117 430 92 q 583 188 532 141 l 664 773 l 805 773 l 697 0 l 594 0 q 589 59 591 30 q 585 118 587 87 q 473 20 532 54 q 348 -13 414 -13 q 121 212 121 -13 q 123 241 121 223 q 128 281 125 259 q 140 369 133 320 q 153 470 146 418 q 167 572 160 522 q 179 665 174 623 q 189 736 185 706 q 194 773 193 765 l 335 773 "},"¤":{"x_min":113,"x_max":891,"ha":911,"o":"m 679 703 q 667 764 679 736 q 635 813 655 792 q 588 845 615 833 q 531 858 561 858 q 455 839 493 858 q 388 790 417 820 q 340 720 358 759 q 322 639 322 681 q 334 576 322 604 q 367 527 346 548 q 415 495 387 506 q 473 483 442 483 q 549 502 512 483 q 614 553 586 522 q 661 623 643 584 q 679 703 679 662 m 754 829 q 771 781 766 806 q 777 725 776 755 q 704 514 777 609 l 815 376 l 724 290 l 612 429 q 451 378 534 378 q 319 419 374 378 l 181 290 l 113 376 l 249 504 q 225 616 225 557 q 297 824 223 730 l 191 957 l 281 1043 l 388 910 q 550 963 464 963 q 688 916 627 963 l 823 1043 l 891 957 l 754 829 "},"Ĝ":{"x_min":134,"x_max":954.53125,"ha":950,"o":"m 134 375 q 146 539 134 454 q 185 703 159 623 q 254 854 212 782 q 356 979 296 925 q 493 1064 415 1033 q 669 1095 571 1095 q 807 1073 735 1094 q 954 1003 879 1052 l 902 896 q 775 951 833 930 q 659 972 717 972 q 529 944 585 972 q 431 869 473 916 q 361 762 389 823 q 316 636 333 701 q 292 505 299 571 q 284 382 284 439 q 299 251 284 305 q 344 163 315 197 q 417 112 373 128 q 518 96 461 96 q 617 109 572 96 q 693 143 661 122 q 747 193 726 165 q 774 254 767 222 q 776 261 775 258 q 777 269 776 265 l 801 456 l 555 456 l 571 562 l 944 562 l 865 0 l 782 0 l 779 111 q 741 64 765 89 q 682 19 717 40 q 601 -13 648 0 q 494 -27 554 -27 q 226 72 319 -27 q 134 375 134 171 m 697 1526 l 794 1526 l 881 1149 l 776 1149 l 726 1364 l 604 1149 l 480 1149 l 697 1526 "},"p":{"x_min":45.796875,"x_max":800.109375,"ha":797,"o":"m 800 484 q 790 365 800 425 q 760 250 780 306 q 710 147 740 195 q 640 63 680 99 q 549 7 600 27 q 436 -13 498 -13 q 377 -4 405 -13 q 324 20 348 4 q 280 57 299 36 q 248 103 261 78 l 189 -305 l 45 -316 l 201 773 l 309 773 l 315 649 q 368 704 340 678 q 426 748 396 729 q 489 777 457 766 q 551 787 520 787 q 653 770 607 787 q 731 716 698 752 q 782 622 764 679 q 800 484 800 564 m 657 461 q 651 555 659 511 q 611 651 640 620 q 532 681 581 681 q 426 657 481 681 q 316 583 370 633 l 261 195 q 296 155 274 174 q 343 122 318 136 q 394 100 368 108 q 443 92 421 92 q 518 109 485 92 q 573 156 550 127 q 612 224 597 186 q 638 303 628 262 q 651 385 647 344 q 657 461 656 426 "},"‡":{"x_min":-65.421875,"x_max":555.890625,"ha":372,"o":"m 139 329 l -65 329 l -45 444 l 155 444 l 194 733 l -3 733 l 16 850 l 210 850 l 238 1048 l 375 1048 l 347 848 l 555 848 l 535 733 l 331 733 l 292 443 l 492 443 l 472 329 l 276 329 q 253 164 265 246 q 231 0 242 82 l 94 0 l 139 329 "},"ň":{"x_min":86.734375,"x_max":779.109375,"ha":792,"o":"m 561 0 q 588 192 576 110 q 607 333 599 274 q 621 432 616 392 q 631 501 627 473 q 635 528 634 519 q 636 543 636 536 q 630 601 636 575 q 613 644 625 626 q 580 672 600 662 q 529 681 559 681 q 471 670 502 681 q 408 643 439 659 q 351 609 377 627 q 311 578 325 592 l 229 0 l 86 0 l 197 773 l 300 773 l 306 655 q 358 703 327 679 q 426 745 390 726 q 501 775 463 763 q 575 787 540 787 q 779 573 779 787 q 778 558 779 565 q 777 542 778 551 q 774 521 775 533 q 770 491 772 509 q 759 414 765 458 q 745 311 753 371 q 727 175 737 252 q 703 0 717 98 l 561 0 m 511 864 l 416 864 l 337 1242 l 446 1242 l 491 1027 l 620 1242 l 738 1242 l 511 864 "},"Ю":{"x_min":86.8125,"x_max":1315.5625,"ha":1303,"o":"m 817 96 q 929 121 879 96 q 1019 190 980 146 q 1086 291 1058 233 q 1131 415 1114 349 q 1157 553 1149 482 q 1165 694 1165 625 q 1152 804 1164 753 q 1114 891 1141 854 q 1044 949 1088 928 q 937 971 1001 971 q 821 944 872 971 q 732 873 770 918 q 666 769 693 829 q 622 643 639 709 q 598 506 605 576 q 591 370 590 436 q 647 165 592 233 q 817 96 702 96 m 463 593 q 519 795 480 703 q 620 954 559 887 q 764 1057 681 1020 q 950 1094 847 1094 q 1125 1062 1055 1094 q 1237 975 1195 1031 q 1297 842 1280 919 q 1315 675 1315 765 q 1298 485 1314 575 q 1252 316 1282 394 q 1177 175 1222 238 q 1076 67 1133 111 q 949 -2 1019 22 q 798 -26 880 -26 q 646 0 713 -26 q 534 75 579 25 q 465 198 488 126 q 441 364 441 271 q 442 427 440 395 q 449 497 444 460 l 309 497 l 238 0 l 86 0 l 238 1075 l 390 1075 l 322 593 l 463 593 "},"ę":{"x_min":103,"x_max":745.15625,"ha":731,"o":"m 267 451 q 414 468 354 461 q 513 483 474 475 q 574 498 553 491 q 605 511 595 505 q 617 523 615 518 q 619 534 619 529 q 586 644 619 607 q 496 682 554 682 q 415 666 453 682 q 349 620 378 649 q 298 547 319 590 q 267 451 278 504 m 644 66 q 517 6 584 26 q 390 -13 450 -13 q 267 6 320 -13 q 176 65 213 27 q 121 158 140 103 q 103 282 103 213 q 114 403 103 342 q 148 519 126 463 q 204 624 171 575 q 281 709 238 673 q 378 767 324 746 q 495 788 432 788 q 684 720 624 788 q 745 525 745 653 q 742 498 745 513 q 724 468 739 483 q 679 438 710 453 q 592 409 648 423 q 454 387 537 396 q 254 365 372 378 q 248 319 250 341 q 246 279 246 298 q 292 138 246 185 q 420 92 338 92 q 522 113 473 92 q 619 171 570 134 l 644 66 m 571 -351 q 534 -360 554 -357 q 494 -366 516 -363 q 447 -369 471 -369 q 383 -362 415 -369 q 324 -338 350 -355 q 281 -289 298 -320 q 265 -207 265 -257 q 273 -160 265 -182 q 295 -117 281 -137 q 327 -79 309 -97 q 363 -47 345 -62 q 462 13 406 -14 l 534 13 q 446 -57 484 -20 q 413 -91 429 -73 q 385 -129 397 -109 q 365 -169 372 -148 q 357 -210 357 -189 q 367 -248 357 -233 q 391 -272 376 -263 q 425 -284 406 -281 q 463 -288 444 -288 q 502 -285 483 -288 q 537 -279 522 -283 q 571 -271 555 -276 l 571 -351 "},"S":{"x_min":106.734375,"x_max":851.953125,"ha":839,"o":"m 818 896 q 777 920 803 907 q 716 945 750 934 q 646 964 683 957 q 573 972 609 972 q 458 959 506 972 q 381 924 411 947 q 337 869 350 902 q 323 797 323 837 q 331 750 323 770 q 355 716 339 731 q 396 690 371 701 q 452 667 420 680 l 610 602 q 695 560 658 584 q 757 505 732 536 q 794 436 782 475 q 807 349 807 398 q 783 206 807 274 q 708 86 759 138 q 580 3 657 34 q 396 -27 502 -27 q 303 -20 348 -27 q 218 -3 257 -13 q 150 19 179 6 q 106 42 121 31 l 136 167 q 189 138 161 152 q 248 116 216 125 q 315 101 279 106 q 393 96 351 96 q 595 151 529 96 q 662 320 662 206 q 654 371 662 349 q 631 409 646 392 q 594 440 615 427 q 543 465 572 453 l 373 537 q 289 580 326 556 q 205 663 233 614 q 178 773 178 711 q 209 908 178 849 q 291 1009 240 968 q 410 1073 343 1051 q 549 1095 477 1095 q 640 1089 596 1095 q 723 1073 684 1084 q 794 1049 762 1063 q 851 1019 827 1035 l 818 896 "},"/":{"x_min":58,"x_max":739,"ha":663,"o":"m 58 -61 l 626 1176 l 739 1128 l 162 -115 l 58 -61 "},"į":{"x_min":118.6875,"x_max":400.5625,"ha":366,"o":"m 400 1009 q 392 969 399 988 q 373 937 385 951 q 346 915 362 923 q 313 907 331 907 q 267 928 285 907 q 250 981 249 950 q 257 1020 250 1001 q 276 1053 264 1039 q 304 1077 288 1068 q 337 1086 320 1086 q 383 1065 366 1086 q 400 1014 400 1045 l 400 1009 m 255 0 l 118 0 l 229 773 l 366 773 l 255 0 "},"Ŧ":{"x_min":119.328125,"x_max":847.78125,"ha":697,"o":"m 832 962 l 548 962 l 413 0 l 269 0 l 404 962 l 119 962 l 135 1075 l 847 1075 l 832 962 m 654 534 l 198 534 l 214 649 l 669 649 l 654 534 "},"ђ":{"x_min":92.234375,"x_max":790.109375,"ha":801,"o":"m 788 551 q 787 527 788 540 q 784 497 786 515 q 780 455 783 479 q 772 394 776 430 q 761 308 767 358 q 745 191 754 258 q 697 16 732 93 q 612 -114 662 -59 q 501 -203 563 -169 q 373 -250 440 -237 l 359 -148 q 419 -117 390 -132 q 472 -81 447 -101 q 517 -35 497 -61 q 554 29 538 -8 q 584 114 571 65 q 605 227 596 162 q 623 358 616 306 q 635 443 631 410 q 643 498 640 477 q 647 535 646 518 q 644 575 647 557 q 637 606 642 592 q 536 681 619 681 q 465 671 500 681 q 401 645 431 660 q 349 612 372 629 q 315 583 327 595 l 232 0 l 92 0 l 220 904 l 124 904 l 134 976 l 230 976 l 244 1076 l 389 1106 l 371 976 l 662 976 l 652 904 l 360 904 l 326 661 q 387 717 358 693 q 445 756 416 740 q 506 779 475 771 q 575 787 538 787 q 736 734 682 787 q 790 569 790 681 q 788 551 790 562 "},"y":{"x_min":43.5,"x_max":766.390625,"ha":698,"o":"m 43 -209 q 87 -199 67 -204 q 126 -185 108 -193 q 224 -108 183 -161 q 297 22 265 -54 l 280 97 l 126 773 l 260 773 l 377 197 l 638 773 l 766 773 l 422 46 q 375 -52 400 -1 q 324 -150 351 -103 q 255 -234 297 -197 q 160 -293 214 -272 q 116 -306 139 -301 q 67 -315 93 -312 l 43 -209 "},"ǿ":{"x_min":103.9375,"x_max":751.359375,"ha":734,"o":"m 352 87 q 372 84 362 84 q 392 83 382 83 q 484 108 446 83 q 549 172 523 132 q 591 263 575 212 q 613 364 606 313 q 618 421 616 395 q 620 467 621 447 q 574 627 620 578 l 352 87 m 104 289 q 110 382 103 331 q 133 487 116 434 q 178 590 150 540 q 248 679 206 640 q 347 742 290 718 q 477 765 403 765 q 569 755 525 765 l 618 873 l 667 851 l 619 735 q 715 631 684 697 q 750 477 747 564 q 751 440 751 459 q 749 403 750 422 q 730 304 740 355 q 699 207 720 253 q 648 121 678 161 q 578 50 618 80 q 488 3 539 21 q 375 -13 438 -13 q 313 -7 341 -13 l 265 -123 l 214 -99 l 259 8 q 189 51 219 24 q 142 114 160 78 q 114 194 123 151 q 104 289 104 238 m 528 658 q 469 669 496 669 q 380 648 418 669 q 314 592 341 627 q 269 511 287 556 q 243 414 252 465 q 232 347 235 379 q 230 287 230 314 q 300 109 231 159 l 528 658 "},"g":{"x_min":37,"x_max":865.03125,"ha":768,"o":"m 296 532 q 307 477 296 500 q 337 437 319 453 q 377 413 355 421 q 421 404 399 405 q 507 419 472 407 q 566 453 543 432 q 599 505 589 475 q 610 572 610 534 q 599 623 610 601 q 569 660 588 645 q 525 682 550 674 q 471 690 499 690 q 391 679 424 690 q 336 647 357 668 q 305 597 315 627 q 296 532 296 568 m 163 -88 q 212 -164 163 -141 q 369 -188 262 -188 q 547 -157 488 -188 q 606 -60 606 -126 q 591 -14 606 -33 q 553 16 577 4 q 500 36 530 29 q 437 49 469 44 l 277 71 q 193 -8 223 33 q 163 -88 163 -50 m 737 569 q 667 399 737 466 q 456 299 596 332 l 285 260 q 215 216 222 247 q 242 183 220 195 q 299 166 264 171 q 373 154 334 160 q 443 143 412 148 q 570 117 516 132 q 660 78 624 101 q 714 21 696 54 q 732 -58 732 -12 q 716 -136 732 -102 q 673 -196 701 -171 q 609 -241 646 -222 q 529 -271 572 -260 q 440 -288 487 -283 q 348 -294 394 -294 q 220 -281 277 -294 q 122 -244 163 -268 q 59 -188 81 -221 q 37 -118 37 -156 q 59 -30 39 -66 q 108 30 78 4 q 137 53 121 41 q 168 73 154 64 q 192 90 182 83 q 206 99 203 96 q 195 104 206 99 q 168 117 183 108 q 139 138 153 126 q 120 164 125 150 q 110 230 108 193 q 145 300 112 273 q 248 345 179 328 l 319 363 q 266 380 293 367 q 218 415 240 393 q 183 465 197 436 q 170 533 170 495 q 189 631 170 585 q 246 712 208 678 q 338 767 283 747 q 463 787 392 787 q 563 776 520 787 q 646 737 607 764 q 716 765 685 754 q 777 780 747 775 q 820 789 799 786 q 865 794 841 792 l 860 681 l 693 681 q 727 617 717 644 q 737 569 737 591 "},"́":{"x_min":184,"x_max":498.703125,"ha":530,"o":"m 285 87 l 184 87 l 311 520 l 498 520 l 285 87 "},"²":{"x_min":85.640625,"x_max":672.1875,"ha":751,"o":"m 546 667 q 525 731 546 706 q 405 780 494 780 q 359 775 384 780 q 310 763 335 770 q 261 747 285 756 q 218 731 237 738 l 189 827 q 208 835 199 832 q 227 842 217 838 q 269 857 245 848 q 321 872 293 866 q 378 882 349 878 q 436 886 408 886 q 610 833 549 886 q 672 680 670 780 q 622 526 673 600 q 464 374 571 452 l 263 221 l 583 221 l 568 109 l 85 109 l 97 210 l 331 393 q 359 415 344 403 q 392 440 374 426 q 452 493 424 465 q 500 549 480 520 q 532 607 520 578 q 546 667 544 637 "},"–":{"x_min":101.0625,"x_max":636.171875,"ha":698,"o":"m 102 362 l 101 467 l 634 467 l 636 362 l 102 362 "},"ë":{"x_min":103,"x_max":745.15625,"ha":709,"o":"m 267 451 q 414 468 354 461 q 513 483 474 475 q 574 498 553 491 q 605 511 595 505 q 617 523 615 518 q 619 534 619 529 q 586 644 619 607 q 496 682 554 682 q 415 666 453 682 q 349 620 378 649 q 298 547 319 590 q 267 451 278 504 m 644 66 q 517 6 584 26 q 390 -13 450 -13 q 267 6 320 -13 q 176 65 213 27 q 121 158 140 103 q 103 282 103 213 q 114 403 103 342 q 148 519 126 463 q 204 624 171 575 q 281 709 238 673 q 378 767 324 746 q 495 788 432 788 q 684 720 624 788 q 745 525 745 653 q 742 498 745 513 q 724 468 739 483 q 679 438 710 453 q 592 409 648 423 q 454 387 537 396 q 254 365 372 378 q 248 319 250 341 q 246 279 246 298 q 292 138 246 185 q 420 92 338 92 q 522 113 473 92 q 619 171 570 134 l 644 66 m 411 981 q 402 940 410 960 q 379 906 393 921 q 348 882 366 891 q 312 874 330 874 q 282 880 296 874 q 257 897 267 886 q 241 922 247 907 q 236 954 236 937 q 244 996 236 976 q 266 1032 252 1016 q 299 1056 280 1047 q 337 1065 317 1065 q 390 1043 370 1065 q 411 986 410 1021 l 411 981 m 725 980 q 716 940 725 959 q 694 905 707 920 q 662 882 680 890 q 626 873 645 873 q 572 896 593 873 q 551 954 551 919 q 559 995 551 975 q 581 1031 567 1015 q 614 1055 595 1046 q 652 1065 632 1065 q 704 1042 684 1065 q 725 985 725 1019 l 725 980 "},"б":{"x_min":114.953125,"x_max":803.15625,"ha":782,"o":"m 376 -14 q 262 6 311 -14 q 180 66 213 26 q 131 162 148 105 q 115 292 115 219 q 124 457 114 371 q 155 624 134 542 q 210 780 176 706 q 289 909 243 853 q 396 997 336 964 q 531 1030 456 1030 q 566 1029 548 1030 q 604 1028 585 1028 q 636 1030 623 1028 q 658 1037 650 1032 q 671 1054 667 1043 q 677 1083 675 1064 l 803 1084 q 786 1004 801 1034 q 740 958 771 974 q 660 938 709 943 q 541 933 611 933 q 453 910 493 933 q 381 850 413 888 q 327 761 350 812 q 289 653 304 711 q 408 736 348 711 q 533 761 467 761 q 634 744 589 761 q 710 694 679 727 q 759 614 742 661 q 777 505 776 566 q 767 380 777 443 q 734 259 756 317 q 679 151 712 201 q 601 64 646 101 q 500 6 556 27 q 376 -14 444 -14 m 453 637 q 355 582 394 621 q 293 493 316 543 q 261 388 270 443 q 252 284 252 333 q 286 139 252 187 q 396 91 320 91 q 476 111 441 91 q 538 164 512 131 q 583 239 564 196 q 612 327 601 282 q 628 417 623 372 q 634 499 634 462 q 613 599 633 561 q 547 648 594 636 q 453 637 507 656 "},"ƒ":{"x_min":-78.609375,"x_max":643.625,"ha":511,"o":"m 511 965 q 470 956 488 965 q 437 924 452 948 q 409 855 421 900 q 388 738 398 811 l 586 738 l 578 673 l 379 673 l 307 173 q 267 -12 291 60 q 210 -127 242 -85 q 136 -185 177 -169 q 43 -201 94 -201 q -6 -191 16 -201 q -44 -170 -28 -181 q -69 -148 -60 -158 q -78 -138 -78 -138 l -35 -40 q -15 -58 -27 -49 q 9 -74 -3 -67 q 35 -84 22 -81 q 57 -88 48 -88 q 95 -79 79 -88 q 125 -44 111 -71 q 150 31 139 -17 q 173 162 161 81 l 245 673 l 142 673 l 150 738 l 255 738 q 292 903 268 837 q 348 1009 315 969 q 423 1064 381 1048 q 515 1081 465 1081 q 561 1073 539 1081 q 600 1056 583 1066 q 628 1038 617 1046 q 643 1027 639 1029 l 600 923 q 511 965 561 965 "},"у":{"x_min":43.4375,"x_max":762.890625,"ha":692,"o":"m 43 -209 q 117 -188 86 -201 q 173 -152 147 -175 q 238 -85 210 -126 q 288 10 267 -44 q 279 48 284 29 q 271 85 275 67 l 120 773 l 255 773 l 374 201 l 632 773 l 762 773 l 423 45 q 377 -53 401 -2 q 325 -151 353 -104 q 255 -235 296 -197 q 161 -293 215 -272 q 117 -307 140 -301 q 69 -315 94 -312 l 43 -209 "},"J":{"x_min":41.546875,"x_max":535.171875,"ha":485,"o":"m 41 44 q 130 69 93 56 q 193 98 167 82 q 233 134 218 114 q 258 180 249 154 q 273 238 268 206 q 283 312 278 271 l 392 1075 l 535 1075 l 428 355 q 410 233 418 289 q 384 133 401 177 q 340 56 366 89 q 277 -1 315 22 q 188 -40 240 -25 q 65 -61 135 -54 l 41 44 "},"Ã":{"x_min":17.640625,"x_max":870.84375,"ha":893,"o":"m 595 952 l 484 706 l 319 341 l 680 341 l 630 701 l 595 952 m 504 1075 l 708 1075 l 860 0 l 728 0 l 691 262 l 283 262 l 165 0 l 17 0 l 504 1075 m 725 1144 q 656 1157 689 1144 q 592 1187 623 1171 q 537 1217 562 1203 q 493 1231 512 1231 q 475 1228 484 1231 q 460 1219 467 1226 q 449 1198 453 1212 q 445 1162 445 1185 l 338 1162 q 351 1242 339 1207 q 384 1299 363 1276 q 433 1332 405 1321 q 494 1343 461 1343 q 558 1327 529 1343 q 614 1297 587 1312 q 666 1269 641 1282 q 714 1256 690 1256 q 734 1258 725 1256 q 749 1268 743 1261 q 758 1288 755 1275 q 763 1321 762 1301 l 870 1321 q 857 1239 869 1273 q 826 1184 845 1205 q 780 1153 806 1163 q 725 1144 754 1144 "},"ŷ":{"x_min":43.5,"x_max":766.390625,"ha":698,"o":"m 43 -209 q 87 -199 67 -204 q 126 -185 108 -193 q 224 -108 183 -161 q 297 22 265 -54 l 280 97 l 126 773 l 260 773 l 377 197 l 638 773 l 766 773 l 422 46 q 375 -52 400 -1 q 324 -150 351 -103 q 255 -234 297 -197 q 160 -293 214 -272 q 116 -306 139 -301 q 67 -315 93 -312 l 43 -209 m 428 1231 l 525 1231 l 612 854 l 507 854 l 457 1069 l 335 854 l 211 854 l 428 1231 "},"ŕ":{"x_min":86.828125,"x_max":709.703125,"ha":490,"o":"m 306 615 q 355 685 327 653 q 411 738 382 716 q 468 773 440 760 q 521 786 497 785 q 556 784 539 786 q 578 782 574 782 l 563 656 q 546 660 560 657 q 519 662 532 662 q 455 649 487 662 q 395 615 424 636 q 340 571 365 595 q 297 526 315 547 l 222 0 l 86 0 l 197 773 l 300 773 l 306 615 m 496 887 l 395 887 l 522 1320 l 709 1320 l 496 887 "},"Ј":{"x_min":41.546875,"x_max":535.171875,"ha":485,"o":"m 41 44 q 130 69 93 56 q 193 98 167 82 q 233 134 218 114 q 258 180 249 154 q 273 238 268 206 q 283 312 278 271 l 392 1075 l 535 1075 l 428 355 q 410 233 418 289 q 384 133 401 177 q 340 56 366 89 q 277 -1 315 22 q 188 -40 240 -25 q 65 -61 135 -54 l 41 44 "},"‐":{"x_min":102,"x_max":529.953125,"ha":592,"o":"m 516 362 l 102 362 l 114 467 l 529 467 l 516 362 "},"©":{"x_min":102.984375,"x_max":1185.796875,"ha":1261,"o":"m 583 76 q 710 95 648 76 q 827 149 772 114 q 929 232 883 183 q 1009 341 976 281 q 1062 469 1043 401 q 1080 613 1080 538 q 1055 759 1079 689 q 985 885 1032 830 q 868 973 938 940 q 703 1007 798 1007 q 577 988 639 1007 q 460 933 516 969 q 358 849 405 898 q 277 739 311 800 q 225 609 244 678 q 207 462 206 539 q 235 307 208 378 q 312 185 263 237 q 430 105 362 134 q 583 76 499 76 m 716 1103 q 858 1084 793 1103 q 975 1031 923 1065 q 1066 952 1026 998 q 1131 852 1105 906 q 1171 741 1157 799 q 1185 624 1185 683 q 1175 509 1185 567 q 1142 393 1164 451 q 1085 280 1119 336 q 1003 174 1051 224 q 913 95 963 130 q 808 33 864 59 q 692 -6 752 7 q 568 -20 631 -20 q 385 13 469 -20 q 238 110 300 47 q 139 259 175 172 q 103 451 103 346 q 125 622 102 539 q 189 777 147 704 q 287 909 230 849 q 412 1012 344 969 q 558 1079 481 1055 q 716 1103 635 1103 m 458 481 q 472 385 458 426 q 525 311 488 334 q 619 287 562 287 q 706 301 662 287 q 802 338 750 314 l 786 242 q 691 203 735 216 q 606 191 647 191 q 486 213 535 191 q 408 274 437 236 q 364 363 378 312 q 351 467 351 413 q 375 637 350 559 q 445 772 399 715 q 555 861 491 829 q 696 892 619 892 q 767 884 731 892 q 831 864 803 876 q 849 856 841 860 q 865 847 857 851 l 857 754 q 841 763 853 756 q 809 776 829 769 q 761 788 788 783 q 699 796 733 794 q 672 796 686 796 q 646 792 659 795 q 562 755 597 783 q 504 685 527 727 q 470 591 481 643 q 458 481 459 538 "},"˘":{"x_min":160.734375,"x_max":524.515625,"ha":582,"o":"m 524 237 q 522 225 523 230 q 519 213 521 219 q 453 100 502 139 q 316 61 404 61 q 198 95 235 61 q 161 194 161 129 q 161 214 160 203 q 163 237 162 225 l 254 237 q 252 216 252 225 q 256 191 251 202 q 268 171 260 179 q 330 141 284 141 q 400 165 373 141 q 435 237 427 190 l 524 237 "},"Ă":{"x_min":17.640625,"x_max":892.515625,"ha":893,"o":"m 595 952 l 484 706 l 319 341 l 680 341 l 630 701 l 595 952 m 504 1075 l 708 1075 l 860 0 l 728 0 l 691 262 l 283 262 l 165 0 l 17 0 l 504 1075 m 892 1332 q 890 1320 891 1325 q 887 1308 889 1314 q 821 1195 870 1234 q 684 1156 772 1156 q 566 1190 603 1156 q 529 1289 529 1224 q 529 1309 528 1298 q 531 1332 530 1320 l 622 1332 q 620 1311 620 1320 q 624 1286 619 1297 q 636 1266 628 1274 q 698 1236 652 1236 q 768 1260 741 1236 q 803 1332 795 1285 l 892 1332 "},"D":{"x_min":85.453125,"x_max":947.078125,"ha":930,"o":"m 795 673 q 739 892 795 822 q 567 962 683 962 l 368 962 l 245 112 l 454 112 q 577 139 525 112 q 668 210 630 166 q 730 312 705 254 q 769 432 755 370 q 789 557 784 495 q 795 673 795 619 m 947 674 q 932 534 947 608 q 902 383 917 460 q 850 238 887 307 q 757 116 813 169 q 624 31 701 63 q 444 0 546 0 l 85 0 l 240 1075 l 584 1075 q 739 1051 671 1075 q 853 978 807 1027 q 923 853 899 929 q 947 674 947 777 "},"ÿ":{"x_min":43.5,"x_max":766.390625,"ha":698,"o":"m 43 -209 q 87 -199 67 -204 q 126 -185 108 -193 q 224 -108 183 -161 q 297 22 265 -54 l 280 97 l 126 773 l 260 773 l 377 197 l 638 773 l 766 773 l 422 46 q 375 -52 400 -1 q 324 -150 351 -103 q 255 -234 297 -197 q 160 -293 214 -272 q 116 -306 139 -301 q 67 -315 93 -312 l 43 -209 m 341 994 q 332 953 340 973 q 309 919 323 934 q 278 895 296 904 q 242 887 260 887 q 212 893 226 887 q 187 910 197 899 q 171 935 177 920 q 166 967 166 950 q 174 1009 166 989 q 196 1045 182 1029 q 229 1069 210 1060 q 267 1078 247 1078 q 320 1056 300 1078 q 341 999 340 1034 l 341 994 m 655 993 q 646 953 655 972 q 624 918 637 933 q 592 895 610 903 q 556 886 575 886 q 502 909 523 886 q 481 967 481 932 q 489 1008 481 988 q 511 1044 497 1028 q 544 1068 525 1059 q 582 1078 562 1078 q 634 1055 614 1078 q 655 998 655 1032 l 655 993 "},"ĺ":{"x_min":102,"x_max":599.703125,"ha":346,"o":"m 398 1123 l 237 0 l 102 0 l 259 1107 l 398 1123 m 386 1161 l 285 1161 l 412 1594 l 599 1594 l 386 1161 "},"ł":{"x_min":-0.9375,"x_max":534.171875,"ha":346,"o":"m 398 1123 l 237 0 l 102 0 l 259 1107 l 398 1123 m 0 742 l 0 847 l 532 847 l 534 742 l 0 742 "},"ц":{"x_min":121,"x_max":805.0625,"ha":796,"o":"m 335 773 q 330 734 334 764 q 320 661 326 704 q 307 566 314 618 q 293 463 300 515 q 280 365 286 412 q 269 282 274 317 q 265 254 267 265 q 264 239 264 243 q 274 166 263 195 q 310 111 285 129 q 375 92 336 93 q 480 117 430 92 q 581 188 530 141 l 664 773 l 805 773 l 705 65 l 794 65 l 764 -155 l 614 -155 l 635 0 l 593 0 q 589 59 591 30 q 585 118 586 87 q 473 20 532 54 q 348 -13 414 -13 q 121 212 121 -13 q 126 261 121 222 q 138 353 131 300 q 149 439 144 395 q 161 528 155 484 q 172 612 167 571 q 182 686 178 653 q 190 742 187 719 q 194 773 193 765 l 335 773 "},"Ł":{"x_min":45.0625,"x_max":703.625,"ha":711,"o":"m 689 0 l 86 0 l 238 1075 l 383 1075 l 247 112 l 703 112 l 689 0 m 46 530 l 45 635 l 578 635 l 580 530 l 46 530 "},"Л":{"x_min":24.421875,"x_max":1210.625,"ha":1158,"o":"m 1058 0 l 906 0 l 1042 962 l 588 962 l 515 570 q 480 398 496 477 q 442 254 465 318 q 388 139 420 189 q 308 56 357 90 q 190 5 259 22 q 24 -11 121 -11 l 44 112 q 118 119 84 114 q 179 135 151 125 q 229 162 207 146 q 269 204 252 179 q 295 258 284 226 q 314 327 307 290 q 331 407 322 365 q 349 493 339 449 l 454 1075 l 1210 1075 l 1058 0 "},"$":{"x_min":64.984375,"x_max":734.140625,"ha":799,"o":"m 703 255 q 674 133 703 185 q 597 45 646 80 q 484 -6 549 10 q 348 -24 420 -24 l 331 -121 l 268 -121 l 285 -21 q 167 2 223 -16 q 64 45 111 21 l 111 157 q 130 147 111 157 q 178 125 149 137 q 240 104 206 113 q 304 94 273 94 l 361 433 q 298 461 327 449 q 261 478 269 474 q 203 516 229 496 q 158 562 177 537 q 128 618 139 587 q 118 689 118 649 q 131 768 118 733 q 169 831 145 804 q 224 878 192 859 q 293 910 256 898 q 369 929 330 923 q 446 936 408 935 l 463 1039 l 526 1039 l 509 935 q 589 926 549 935 q 660 907 628 917 q 712 887 692 896 q 734 879 732 878 l 689 773 q 642 788 668 779 q 588 804 615 796 q 534 816 560 811 q 490 821 509 821 l 442 534 q 470 523 453 529 q 502 510 487 516 q 592 463 554 486 q 654 410 630 439 q 691 344 679 382 q 703 255 703 307 m 427 824 q 354 815 387 822 q 295 793 320 808 q 257 755 271 778 q 244 699 244 732 q 252 651 244 673 q 289 609 260 629 q 326 585 301 599 q 382 557 352 571 l 427 824 m 367 92 q 455 102 417 93 q 521 128 494 110 q 562 175 548 147 q 577 244 577 204 q 570 297 577 273 q 546 340 564 320 q 497 373 528 359 q 420 407 466 387 l 367 92 "},"w":{"x_min":122.765625,"x_max":1029.46875,"ha":960,"o":"m 599 0 l 565 646 l 338 0 l 185 0 l 122 773 l 246 773 l 296 134 l 514 773 l 637 773 l 681 113 l 919 773 l 1029 773 l 747 0 l 599 0 "},"\\":{"x_min":226,"x_max":572.578125,"ha":625,"o":"m 348 1169 l 572 -87 l 451 -111 l 226 1148 l 348 1169 "},"о":{"x_min":103,"x_max":785.703125,"ha":783,"o":"m 103 291 q 112 407 103 348 q 143 521 122 466 q 196 625 164 576 q 273 709 229 673 q 375 766 318 746 q 503 787 432 787 q 637 762 583 787 q 723 696 691 737 q 770 599 756 654 q 785 485 785 545 q 773 354 786 417 q 737 236 761 291 q 677 135 713 181 q 598 56 642 88 q 499 4 553 23 q 385 -13 446 -13 q 268 7 320 -13 q 180 67 216 27 q 123 163 143 106 q 103 291 103 219 m 401 92 q 484 109 447 92 q 547 156 520 126 q 594 224 574 185 q 625 305 613 262 q 642 392 637 348 q 648 477 648 437 q 639 558 648 521 q 612 623 631 596 q 563 666 593 650 q 488 681 532 681 q 403 663 440 681 q 339 613 366 644 q 292 542 311 582 q 262 459 273 502 q 245 373 250 416 q 240 293 240 329 q 249 214 240 251 q 276 150 257 177 q 326 107 295 123 q 401 92 356 92 "},"Д":{"x_min":63.75,"x_max":1161.125,"ha":1108,"o":"m 1026 111 l 1072 79 l 1024 -247 l 876 -247 l 910 -11 l 248 -11 l 213 -247 l 63 -247 l 113 94 q 189 124 159 94 q 243 201 219 162 q 286 284 267 241 q 319 377 305 328 q 346 479 334 425 q 374 630 362 551 q 398 801 385 710 l 437 1075 l 1161 1075 l 1026 111 m 870 94 l 994 978 l 575 978 l 543 756 q 517 576 530 665 q 480 402 503 486 q 423 240 457 318 q 339 94 389 162 l 870 94 "},"Ì":{"x_min":84.09375,"x_max":634.8125,"ha":583,"o":"m 96 82 l 221 82 l 352 978 l 228 978 l 242 1075 l 634 1075 l 621 978 l 495 978 l 363 82 l 489 82 l 476 0 l 84 0 l 96 82 m 533 1158 l 461 1158 l 305 1594 l 506 1594 l 533 1158 "},"Ç":{"x_min":134,"x_max":920,"ha":807,"o":"m 134 367 q 148 551 134 460 q 191 722 163 641 q 263 872 220 803 q 363 990 306 940 q 491 1067 420 1039 q 647 1095 563 1095 q 717 1091 684 1095 q 781 1077 750 1087 q 847 1057 813 1067 q 920 1036 881 1047 l 869 918 q 755 954 808 937 q 648 972 702 972 q 533 949 585 972 q 441 885 482 926 q 371 789 401 845 q 322 667 342 733 q 293 527 303 601 q 284 378 284 454 q 341 165 284 234 q 510 96 398 96 q 565 102 535 96 q 627 118 595 108 q 692 142 659 129 q 758 170 725 156 l 783 56 q 714 25 748 41 q 644 -1 680 10 q 569 -20 608 -13 q 489 -27 531 -27 q 225 72 316 -27 q 134 367 134 171 m 378 -345 l 382 -285 q 427 -303 402 -294 q 481 -315 452 -313 q 497 -316 489 -316 q 512 -315 505 -316 q 552 -307 536 -315 q 578 -288 568 -300 q 591 -262 587 -277 q 596 -233 596 -248 q 551 -176 595 -200 q 419 -153 508 -153 l 479 24 l 545 24 q 501 -93 508 -67 q 538 -95 517 -93 q 579 -102 558 -97 q 619 -117 599 -108 q 654 -141 639 -127 q 679 -175 669 -155 q 688 -221 688 -194 l 688 -226 q 672 -299 687 -267 q 632 -353 657 -331 q 573 -388 607 -376 q 501 -399 539 -399 q 429 -389 460 -399 q 378 -365 399 -378 l 378 -345 "},"ъ":{"x_min":74.4375,"x_max":842.140625,"ha":835,"o":"m 188 0 l 284 676 l 74 676 l 88 773 l 442 773 l 408 529 q 532 525 476 529 q 663 507 606 520 q 760 469 720 493 q 820 407 799 445 q 842 315 840 369 q 825 194 842 245 q 777 108 808 143 q 700 51 745 73 q 599 18 654 29 q 480 2 544 6 q 346 0 416 0 l 188 0 m 346 96 q 445 98 403 96 q 517 103 487 100 q 619 135 578 110 q 679 203 659 159 q 699 323 699 247 q 669 391 699 368 q 571 424 639 414 q 498 430 540 428 q 394 433 456 433 l 346 96 "},"Ŝ":{"x_min":106.734375,"x_max":851.953125,"ha":839,"o":"m 818 896 q 777 920 803 907 q 716 945 750 934 q 646 964 683 957 q 573 972 609 972 q 458 959 506 972 q 381 924 411 947 q 337 869 350 902 q 323 797 323 837 q 331 750 323 770 q 355 716 339 731 q 396 690 371 701 q 452 667 420 680 l 610 602 q 695 560 658 584 q 757 505 732 536 q 794 436 782 475 q 807 349 807 398 q 783 206 807 274 q 708 86 759 138 q 580 3 657 34 q 396 -27 502 -27 q 303 -20 348 -27 q 218 -3 257 -13 q 150 19 179 6 q 106 42 121 31 l 136 167 q 189 138 161 152 q 248 116 216 125 q 315 101 279 106 q 393 96 351 96 q 595 151 529 96 q 662 320 662 206 q 654 371 662 349 q 631 409 646 392 q 594 440 615 427 q 543 465 572 453 l 373 537 q 289 580 326 556 q 205 663 233 614 q 178 773 178 711 q 209 908 178 849 q 291 1009 240 968 q 410 1073 343 1051 q 549 1095 477 1095 q 640 1089 596 1095 q 723 1073 684 1084 q 794 1049 762 1063 q 851 1019 827 1035 l 818 896 m 495 1526 l 592 1526 l 679 1149 l 574 1149 l 524 1364 l 402 1149 l 278 1149 l 495 1526 "},"C":{"x_min":134,"x_max":920,"ha":807,"o":"m 134 367 q 148 551 134 460 q 191 722 163 641 q 263 872 220 803 q 363 990 306 940 q 491 1067 420 1039 q 647 1095 563 1095 q 717 1091 684 1095 q 781 1077 750 1087 q 847 1057 813 1067 q 920 1036 881 1047 l 869 918 q 755 954 808 937 q 648 972 702 972 q 533 949 585 972 q 441 885 482 926 q 371 789 401 845 q 322 667 342 733 q 293 527 303 601 q 284 378 284 454 q 341 165 284 234 q 510 96 398 96 q 565 102 535 96 q 627 118 595 108 q 692 142 659 129 q 758 170 725 156 l 783 56 q 714 25 748 41 q 644 -1 680 10 q 569 -20 608 -13 q 489 -27 531 -27 q 225 72 316 -27 q 134 367 134 171 "},"Ē":{"x_min":85.453125,"x_max":856.59375,"ha":752,"o":"m 714 0 l 85 0 l 237 1075 l 856 1075 l 839 962 l 366 962 l 316 614 l 733 614 l 719 518 l 303 518 l 245 112 l 732 112 l 714 0 m 792 1173 l 336 1173 l 352 1288 l 807 1288 l 792 1173 "},"!":{"x_min":57,"x_max":396.96875,"ha":413,"o":"m 396 1074 l 231 296 l 148 296 l 208 1074 l 396 1074 m 259 0 l 57 0 l 88 221 l 290 221 l 259 0 "},"ç":{"x_min":103.984375,"x_max":729.328125,"ha":662,"o":"m 104 287 q 137 493 104 401 q 225 651 170 586 q 351 752 280 716 q 500 787 423 787 q 625 767 570 787 q 729 709 680 748 l 676 606 q 646 633 665 619 q 604 657 627 647 q 555 674 581 668 q 504 681 529 681 q 411 661 451 681 q 341 605 371 640 q 292 524 312 571 q 262 425 273 477 q 250 355 254 389 q 247 291 247 321 q 286 141 246 190 q 402 92 327 92 q 477 103 441 92 q 544 130 514 114 q 576 150 561 139 q 607 172 592 160 l 626 71 q 501 8 563 29 q 370 -13 439 -12 q 265 5 314 -12 q 180 59 216 23 q 123 153 144 96 q 104 287 103 209 m 264 -346 l 268 -286 q 313 -304 288 -295 q 367 -316 338 -314 q 383 -317 375 -317 q 398 -316 391 -317 q 438 -308 422 -316 q 464 -289 454 -301 q 477 -263 473 -278 q 482 -234 482 -249 q 437 -177 481 -201 q 305 -154 394 -154 l 365 23 l 431 23 q 387 -94 394 -68 q 424 -96 403 -94 q 465 -103 444 -98 q 505 -118 485 -109 q 540 -142 525 -128 q 565 -176 555 -156 q 574 -222 574 -195 l 574 -227 q 558 -300 573 -268 q 518 -354 543 -332 q 459 -389 493 -377 q 387 -400 425 -400 q 315 -390 346 -400 q 264 -366 285 -379 l 264 -346 "},"Ĵ":{"x_min":41.546875,"x_max":652.515625,"ha":452,"o":"m 41 44 q 130 69 93 56 q 193 98 167 82 q 233 134 218 114 q 258 180 249 154 q 273 238 268 206 q 283 312 278 271 l 392 1075 l 535 1075 l 428 355 q 410 233 418 289 q 384 133 401 177 q 340 56 366 89 q 277 -1 315 22 q 188 -40 240 -25 q 65 -61 135 -54 l 41 44 m 468 1480 l 565 1480 l 652 1103 l 547 1103 l 497 1318 l 375 1103 l 251 1103 l 468 1480 "},"Й":{"x_min":86.8125,"x_max":1072.953125,"ha":1021,"o":"m 891 1250 l 885 1226 q 819 1113 869 1153 q 683 1073 769 1073 q 565 1108 602 1073 q 526 1206 527 1143 q 526 1227 526 1216 q 529 1250 527 1239 l 619 1250 l 617 1229 q 637 1173 616 1192 q 696 1153 657 1153 q 767 1178 741 1153 q 801 1250 793 1203 l 891 1250 m 86 0 l 239 1075 l 383 1075 l 269 270 l 868 1075 l 1072 1075 l 921 0 l 775 0 l 910 957 l 244 90 l 231 0 l 86 0 "},"È":{"x_min":85.453125,"x_max":856.59375,"ha":752,"o":"m 714 0 l 85 0 l 237 1075 l 856 1075 l 839 962 l 366 962 l 316 614 l 733 614 l 719 518 l 303 518 l 245 112 l 732 112 l 714 0 m 670 1158 l 598 1158 l 442 1594 l 643 1594 l 670 1158 "},"ﬁ":{"x_min":150.0625,"x_max":901.5625,"ha":868,"o":"m 756 0 l 619 0 l 721 708 l 388 708 l 287 0 l 151 0 l 253 708 l 150 708 l 158 774 l 262 774 q 296 923 273 864 q 353 1018 319 983 q 428 1067 386 1053 q 517 1081 470 1081 q 563 1073 541 1081 q 602 1056 585 1066 q 630 1038 619 1046 q 645 1027 641 1029 l 602 924 q 513 965 563 965 q 472 957 491 965 q 439 929 453 950 q 414 871 424 908 q 398 773 404 834 l 868 773 l 756 0 m 900 1008 q 893 969 900 987 q 875 937 886 950 q 847 915 863 923 q 814 907 832 907 q 768 928 785 907 q 751 981 750 950 q 758 1020 751 1001 q 777 1053 765 1039 q 805 1077 789 1068 q 838 1086 820 1086 q 884 1065 866 1086 q 901 1013 901 1044 q 901 1011 901 1012 q 900 1008 900 1010 "},"X":{"x_min":15,"x_max":955.5625,"ha":826,"o":"m 566 545 l 805 0 l 651 0 l 473 419 l 165 0 l 15 0 l 413 542 l 181 1075 l 335 1075 l 510 674 l 805 1075 l 955 1075 l 566 545 "},"ô":{"x_min":104,"x_max":786.671875,"ha":783,"o":"m 104 291 q 114 407 104 348 q 145 521 124 466 q 199 625 167 576 q 276 709 232 673 q 378 766 321 746 q 506 787 435 787 q 639 762 586 787 q 726 696 693 738 q 772 600 758 654 q 786 486 786 545 q 758 294 786 384 q 677 134 729 203 q 550 26 624 66 q 384 -13 475 -13 q 268 7 319 -13 q 179 67 216 27 q 123 163 143 106 q 104 291 104 219 m 400 92 q 483 109 447 92 q 547 156 520 126 q 594 224 575 185 q 625 305 613 262 q 643 392 638 348 q 649 477 649 437 q 640 558 649 521 q 614 623 632 596 q 565 666 595 650 q 490 681 535 681 q 406 663 442 681 q 341 613 369 644 q 294 542 313 582 q 263 459 275 502 q 246 373 251 416 q 241 293 241 329 q 249 214 241 251 q 276 150 257 177 q 325 107 295 123 q 400 92 356 92 m 527 1218 l 624 1218 l 711 841 l 606 841 l 556 1056 l 434 841 l 310 841 l 527 1218 "},"Б":{"x_min":86.8125,"x_max":865.828125,"ha":868,"o":"m 856 373 q 854 328 856 350 q 847 286 852 306 q 785 147 829 202 q 676 59 742 91 q 525 13 611 26 q 340 0 440 0 l 86 0 l 238 1075 l 865 1075 l 850 969 l 375 969 l 331 655 l 412 655 q 603 639 520 655 q 741 592 685 624 q 827 510 798 559 q 857 393 856 461 q 857 384 857 388 q 856 373 857 379 m 365 543 l 315 543 l 254 112 l 372 112 q 513 125 454 112 q 612 164 572 138 q 675 231 652 190 q 704 327 697 271 q 706 351 705 339 q 707 376 707 363 q 693 442 706 415 q 657 488 679 469 q 604 517 634 506 q 542 533 575 528 q 474 541 509 539 q 406 543 439 543 l 365 543 "},"Ė":{"x_min":85.453125,"x_max":856.59375,"ha":752,"o":"m 714 0 l 85 0 l 237 1075 l 856 1075 l 839 962 l 366 962 l 316 614 l 733 614 l 719 518 l 303 518 l 245 112 l 732 112 l 714 0 m 640 1198 l 438 1198 l 468 1419 l 670 1419 l 640 1198 "},"г":{"x_min":89,"x_max":664.15625,"ha":657,"o":"m 664 612 q 648 520 664 560 q 604 452 632 481 q 535 401 575 422 q 446 363 495 380 l 336 324 q 281 300 304 312 q 246 274 259 288 q 226 241 232 259 q 221 199 221 223 q 256 118 221 144 q 363 92 291 92 q 417 100 387 92 q 478 119 448 107 q 531 142 507 130 q 567 163 556 154 l 594 66 q 550 40 577 54 q 489 14 524 26 q 412 -5 454 2 q 320 -13 369 -13 q 230 0 272 -13 q 156 38 187 12 q 107 101 125 63 q 89 188 89 139 q 107 287 89 245 q 159 360 126 329 q 236 414 192 391 q 330 456 280 437 l 436 495 q 485 516 465 506 q 516 539 505 527 q 533 564 528 550 q 538 596 538 578 q 504 661 538 642 q 412 681 471 681 q 354 676 383 681 q 298 661 326 670 q 247 638 271 651 q 204 610 223 625 l 177 710 q 224 736 195 723 q 288 761 254 750 q 359 780 322 772 q 429 787 395 787 q 523 776 480 787 q 597 743 566 765 q 646 688 628 720 q 664 612 664 655 "},"Ā":{"x_min":17.640625,"x_max":930.75,"ha":893,"o":"m 595 952 l 484 706 l 319 341 l 680 341 l 630 701 l 595 952 m 504 1075 l 708 1075 l 860 0 l 728 0 l 691 262 l 283 262 l 165 0 l 17 0 l 504 1075 m 915 1173 l 459 1173 l 475 1288 l 930 1288 l 915 1173 "},"ċ":{"x_min":103.984375,"x_max":729.328125,"ha":662,"o":"m 104 287 q 137 493 104 401 q 225 651 170 586 q 351 752 280 716 q 500 787 423 787 q 625 767 570 787 q 729 709 680 748 l 676 606 q 646 633 665 619 q 604 657 627 647 q 555 674 581 668 q 504 681 529 681 q 411 661 451 681 q 341 605 371 640 q 292 524 312 571 q 262 425 273 477 q 250 355 254 389 q 247 291 247 321 q 286 141 246 190 q 402 92 327 92 q 477 103 441 92 q 544 130 514 114 q 576 150 561 139 q 607 172 592 160 l 626 71 q 501 8 563 29 q 370 -13 439 -12 q 265 5 314 -12 q 180 59 216 23 q 123 153 144 96 q 104 287 103 209 m 584 903 l 382 903 l 412 1124 l 614 1124 l 584 903 "},"đ":{"x_min":102,"x_max":878.3125,"ha":759,"o":"m 438 787 q 502 776 473 787 q 555 748 532 765 q 595 710 578 731 q 622 671 612 690 l 684 1107 l 823 1124 l 662 0 l 568 0 l 561 121 q 513 68 540 93 q 457 25 487 43 q 395 -3 427 6 q 328 -13 362 -13 q 223 9 266 -13 q 152 72 179 32 q 114 166 126 112 q 102 281 102 219 q 110 391 102 333 q 137 505 119 449 q 183 612 155 561 q 248 702 211 663 q 333 764 285 741 q 438 787 380 787 m 234 302 q 233 265 232 284 q 236 229 234 247 q 248 175 240 200 q 271 132 256 150 q 306 102 285 113 q 358 92 328 92 q 419 102 389 92 q 474 127 448 112 q 520 160 499 142 q 554 193 541 177 q 573 327 565 270 q 587 425 582 384 q 597 494 593 466 q 604 539 601 522 q 607 568 606 557 q 610 585 609 578 q 594 604 607 588 q 559 637 581 619 q 506 668 536 654 q 438 681 476 681 q 369 661 399 681 q 316 609 338 641 q 278 536 294 577 q 253 453 263 495 q 239 371 243 411 q 234 302 234 332 m 864 872 l 449 872 l 463 977 l 878 977 l 864 872 "},"Ẃ":{"x_min":188,"x_max":1334.078125,"ha":1341,"o":"m 646 1073 l 849 1073 l 898 127 l 1211 1075 l 1334 1075 l 976 0 l 780 0 l 740 953 l 406 0 l 194 0 l 188 1075 l 320 1075 l 329 125 l 646 1073 m 933 1182 l 832 1182 l 959 1615 l 1146 1615 l 933 1182 "},"Ŀ":{"x_min":86.8125,"x_max":702.953125,"ha":703,"o":"m 688 0 l 86 0 l 238 1075 l 383 1075 l 247 112 l 702 112 l 688 0 m 662 746 l 460 746 l 490 967 l 692 967 l 662 746 "},"х":{"x_min":33,"x_max":772.5625,"ha":679,"o":"m 401 286 l 183 0 l 33 0 l 330 390 l 142 773 l 296 773 l 407 491 l 622 773 l 772 773 l 475 383 l 654 0 l 507 0 l 401 286 "},"ŋ":{"x_min":86.734375,"x_max":779.109375,"ha":789,"o":"m 423 -152 q 487 -100 461 -127 q 531 -40 514 -73 q 559 33 548 -7 q 576 127 569 75 q 597 276 588 213 q 612 383 606 339 q 623 457 619 428 q 629 501 627 485 q 635 528 634 519 q 636 543 636 537 q 630 601 636 575 q 613 644 625 626 q 580 672 600 662 q 529 681 559 681 q 471 670 502 681 q 408 643 439 659 q 351 609 377 627 q 311 578 325 592 l 229 0 l 86 0 l 197 773 l 300 773 l 306 655 q 358 703 327 679 q 426 745 390 726 q 501 775 463 763 q 575 787 540 787 q 779 573 779 787 q 778 558 779 565 q 777 542 778 551 q 774 521 776 533 q 770 491 772 509 q 762 435 767 469 q 753 362 758 401 q 742 284 748 324 q 732 209 737 243 q 724 148 728 174 q 719 112 721 122 q 685 -19 709 41 q 625 -126 661 -79 q 545 -205 590 -173 q 447 -250 499 -237 l 423 -152 "},"}":{"x_min":80.21875,"x_max":503.765625,"ha":608,"o":"m 322 595 q 324 645 322 620 q 331 694 327 669 q 337 745 334 719 q 340 797 340 770 q 333 852 340 831 q 315 885 327 873 q 284 899 303 896 q 240 903 265 903 l 258 1018 q 335 1010 297 1018 q 401 978 372 1002 q 448 913 430 955 q 466 804 466 871 q 463 756 466 783 q 457 700 460 729 q 450 645 453 672 q 448 600 448 619 q 503 503 449 503 l 484 375 q 417 327 444 375 q 374 178 390 280 q 345 59 363 109 q 305 -25 327 9 q 256 -83 283 -60 q 200 -118 229 -105 q 140 -135 171 -131 q 80 -140 110 -140 l 97 -24 q 150 -19 127 -24 q 193 8 173 -13 q 227 75 212 30 q 255 198 242 120 q 278 294 263 253 q 313 364 293 335 q 355 412 332 394 q 401 439 378 430 q 343 492 364 455 q 322 595 322 529 "},"â":{"x_min":103,"x_max":770.90625,"ha":762,"o":"m 770 711 l 667 0 l 564 0 l 560 128 q 519 69 542 96 q 467 24 495 43 q 405 -3 438 6 q 337 -13 372 -13 q 229 8 273 -13 q 156 69 184 30 q 115 159 128 107 q 103 272 103 211 q 116 385 103 326 q 156 502 130 445 q 219 611 182 560 q 301 702 256 663 q 401 764 347 741 q 514 787 454 787 q 578 781 545 787 q 641 766 611 775 q 697 746 672 757 q 739 727 723 736 l 770 711 m 235 280 q 270 136 235 181 q 376 92 304 92 q 436 103 408 92 q 490 131 465 114 q 533 168 514 148 q 563 203 552 187 l 632 659 q 619 664 630 660 q 593 671 609 667 q 558 678 577 675 q 519 681 538 681 q 450 666 485 681 q 384 625 416 651 q 325 560 353 598 q 278 479 298 523 q 246 384 258 434 q 235 280 235 333 m 524 1218 l 621 1218 l 708 841 l 603 841 l 553 1056 l 431 841 l 307 841 l 524 1218 "},"ø":{"x_min":103.9375,"x_max":751.359375,"ha":746,"o":"m 352 87 q 372 84 362 84 q 392 83 382 83 q 484 108 446 83 q 549 172 523 132 q 591 263 575 212 q 613 364 606 313 q 618 421 616 395 q 620 467 621 447 q 574 627 620 578 l 352 87 m 104 289 q 110 382 103 331 q 133 487 116 434 q 178 590 150 540 q 248 679 206 640 q 347 742 290 718 q 477 765 403 765 q 569 755 525 765 l 618 873 l 667 851 l 619 735 q 715 631 684 697 q 750 477 747 564 q 751 440 751 459 q 749 403 750 422 q 730 304 740 355 q 699 207 720 253 q 648 121 678 161 q 578 50 618 80 q 488 3 539 21 q 375 -13 438 -13 q 313 -7 341 -13 l 265 -123 l 214 -99 l 259 8 q 189 51 219 24 q 142 114 160 78 q 114 194 123 151 q 104 289 104 238 m 528 658 q 469 669 496 669 q 380 648 418 669 q 314 592 341 627 q 269 511 287 556 q 243 414 252 465 q 232 347 235 379 q 230 287 230 314 q 300 109 231 159 l 528 658 "},"‰":{"x_min":0,"x_max":0,"ha":1158},"Ä":{"x_min":17.640625,"x_max":860.828125,"ha":893,"o":"m 595 952 l 484 706 l 319 341 l 680 341 l 630 701 l 595 952 m 504 1075 l 708 1075 l 860 0 l 728 0 l 691 262 l 283 262 l 165 0 l 17 0 l 504 1075 m 532 1252 q 523 1211 531 1231 q 500 1177 514 1192 q 469 1153 487 1162 q 433 1145 451 1145 q 403 1151 417 1145 q 378 1168 388 1157 q 362 1193 368 1178 q 357 1225 357 1208 q 365 1267 357 1247 q 387 1303 373 1287 q 420 1327 401 1318 q 458 1336 438 1336 q 511 1314 491 1336 q 532 1257 531 1292 l 532 1252 m 846 1251 q 837 1211 846 1230 q 815 1176 828 1191 q 783 1153 801 1161 q 747 1144 766 1144 q 693 1167 714 1144 q 672 1225 672 1190 q 680 1266 672 1246 q 702 1302 688 1286 q 735 1326 716 1317 q 773 1336 753 1336 q 825 1313 805 1336 q 846 1256 846 1290 l 846 1251 "},"ř":{"x_min":86.828125,"x_max":681.515625,"ha":490,"o":"m 306 615 q 355 685 327 653 q 411 738 382 716 q 468 773 440 760 q 521 786 497 785 q 556 784 539 786 q 578 782 574 782 l 563 656 q 546 660 560 657 q 519 662 532 662 q 455 649 487 662 q 395 615 424 636 q 340 571 365 595 q 297 526 315 547 l 222 0 l 86 0 l 197 773 l 300 773 l 306 615 m 454 873 l 359 873 l 280 1251 l 389 1251 l 434 1036 l 563 1251 l 681 1251 l 454 873 "},"Ч":{"x_min":169.609375,"x_max":899.328125,"ha":853,"o":"m 653 390 q 605 337 631 359 q 548 301 579 315 q 474 272 512 281 q 395 263 437 263 q 230 319 290 263 q 169 490 171 374 q 171 514 169 498 q 176 554 173 530 q 188 642 181 591 q 201 746 194 692 q 216 856 209 801 q 229 956 223 910 q 239 1033 235 1001 q 245 1075 244 1066 l 392 1075 q 386 1033 391 1065 q 376 956 382 1001 q 362 857 370 911 q 348 749 355 803 q 334 646 340 695 q 322 560 327 596 q 318 531 320 542 q 316 516 317 520 q 345 408 315 441 q 432 376 375 376 q 505 385 470 376 q 570 408 540 394 q 624 439 600 422 q 665 471 648 455 l 750 1075 l 899 1075 l 746 0 l 598 0 l 653 390 "},"—":{"x_min":101.0625,"x_max":1334.0625,"ha":1395,"o":"m 102 362 l 101 467 l 1332 467 l 1334 362 l 102 362 "},"N":{"x_min":86.8125,"x_max":1072.28125,"ha":1022,"o":"m 921 0 l 727 0 l 604 307 l 357 924 l 227 0 l 86 0 l 238 1075 l 435 1075 l 557 769 l 804 152 l 933 1075 l 1072 1075 l 921 0 "},"2":{"x_min":69.296875,"x_max":678.25,"ha":684,"o":"m 546 589 q 534 642 546 621 q 502 676 522 663 q 455 695 482 690 q 399 701 428 701 q 347 693 374 700 q 293 678 319 687 q 243 661 267 669 q 202 648 220 654 l 173 751 q 222 771 194 762 q 283 792 251 781 q 353 808 316 803 q 430 813 390 813 q 532 799 486 813 q 610 758 578 785 q 660 691 643 731 q 678 601 678 652 q 627 436 678 516 q 470 274 577 356 l 271 123 l 591 123 l 575 0 l 69 0 l 83 108 l 314 298 q 404 372 361 337 q 478 444 447 407 q 528 516 510 480 q 546 589 546 552 "},"М":{"x_min":86.8125,"x_max":1252.671875,"ha":1200,"o":"m 519 0 l 479 238 l 360 941 l 225 0 l 86 0 l 201 801 l 240 1075 l 462 1075 l 507 802 l 575 399 l 615 158 l 712 372 l 921 834 l 1030 1075 l 1252 1075 l 1198 682 l 1103 0 l 963 0 l 1090 921 l 735 130 l 676 0 l 519 0 "},"ü":{"x_min":121,"x_max":805.0625,"ha":795,"o":"m 335 773 q 330 734 334 764 q 320 661 326 704 q 307 566 314 618 q 293 463 300 515 q 280 365 286 412 q 269 282 274 317 q 265 254 267 265 q 264 239 264 243 q 274 166 263 195 q 311 111 285 129 q 375 92 336 93 q 481 117 430 92 q 583 188 532 141 l 664 773 l 805 773 l 697 0 l 594 0 q 589 59 591 30 q 585 118 587 87 q 473 20 532 54 q 348 -13 414 -13 q 121 212 121 -13 q 126 261 121 222 q 138 353 131 300 q 149 439 144 395 q 161 528 155 484 q 172 612 167 571 q 182 686 178 653 q 190 742 187 719 q 194 773 193 765 l 335 773 m 393 994 q 384 953 392 973 q 361 919 375 934 q 330 895 348 904 q 294 887 312 887 q 264 893 278 887 q 239 910 249 899 q 223 935 229 920 q 218 967 218 950 q 226 1009 218 989 q 248 1045 234 1029 q 281 1069 262 1060 q 319 1078 299 1078 q 372 1056 352 1078 q 393 999 392 1034 l 393 994 m 707 993 q 698 953 707 972 q 676 918 689 933 q 644 895 662 903 q 608 886 627 886 q 554 909 575 886 q 533 967 533 932 q 541 1008 533 988 q 563 1044 549 1028 q 596 1068 577 1059 q 634 1078 614 1078 q 686 1055 666 1078 q 707 998 707 1032 l 707 993 "},"ь":{"x_min":86.8125,"x_max":741.15625,"ha":734,"o":"m 86 0 l 196 773 l 341 773 l 306 529 q 370 528 339 529 q 427 524 400 527 q 558 502 500 517 q 656 461 616 487 q 718 396 696 435 q 741 304 740 358 q 705 153 742 213 q 601 59 667 94 q 443 11 534 25 q 244 0 351 -1 l 86 0 m 244 96 q 386 106 321 96 q 498 140 451 116 q 571 204 545 164 q 598 302 598 243 q 566 379 597 351 q 467 420 535 407 q 394 429 437 426 q 292 433 352 433 l 244 96 "},"˜":{"x_min":22,"x_max":554.84375,"ha":574,"o":"m 409 86 q 340 99 373 86 q 276 129 307 113 q 221 159 246 145 q 177 173 196 173 q 159 170 168 173 q 144 161 151 168 q 133 140 137 154 q 129 104 129 127 l 22 104 q 35 184 23 149 q 68 241 47 218 q 117 274 89 263 q 178 285 145 285 q 242 269 213 285 q 298 239 271 254 q 350 211 325 224 q 398 198 374 198 q 418 200 409 198 q 433 210 427 203 q 442 230 439 217 q 447 263 446 243 l 554 263 q 541 181 553 215 q 510 126 529 147 q 464 95 490 105 q 409 86 438 86 "},"Ó":{"x_min":134,"x_max":1002.5625,"ha":990,"o":"m 1002 694 q 963 401 1002 534 q 855 174 925 269 q 691 25 786 78 q 483 -27 596 -27 q 338 -3 402 -27 q 228 67 273 19 q 158 188 182 116 q 134 361 134 261 q 151 561 134 465 q 200 737 168 656 q 278 884 232 819 q 380 997 323 950 q 505 1069 437 1044 q 647 1094 572 1094 q 807 1066 740 1094 q 917 987 874 1038 q 981 860 961 935 q 1002 694 1002 786 m 852 696 q 840 807 852 756 q 803 894 828 857 q 735 950 777 930 q 633 971 694 971 q 525 946 574 971 q 438 880 477 922 q 370 780 399 838 q 322 655 341 722 q 294 514 303 587 q 284 364 284 440 q 339 162 284 228 q 501 96 394 96 q 608 119 559 96 q 695 184 656 143 q 763 282 734 225 q 812 406 793 339 q 842 546 832 472 q 852 696 852 620 m 603 1145 l 502 1145 l 629 1578 l 816 1578 l 603 1145 "},"ˇ":{"x_min":136,"x_max":537.515625,"ha":602,"o":"m 310 73 l 215 73 l 136 451 l 245 451 l 290 236 l 419 451 l 537 451 l 310 73 "},"Ў":{"x_min":141.078125,"x_max":898.609375,"ha":860,"o":"m 755 1296 q 753 1283 754 1289 q 750 1272 752 1278 q 683 1159 733 1198 q 547 1120 634 1120 q 428 1154 465 1120 q 391 1253 391 1189 q 391 1274 390 1263 q 393 1296 392 1284 l 484 1296 q 482 1285 483 1290 q 481 1276 482 1280 q 501 1218 481 1237 q 560 1199 521 1199 q 631 1224 604 1199 q 666 1296 658 1249 l 755 1296 m 456 467 l 747 1075 l 898 1075 l 496 309 l 473 160 q 445 63 464 109 q 390 -17 426 17 q 299 -74 354 -53 q 164 -96 244 -96 l 141 9 q 225 18 189 10 q 286 43 261 25 q 326 89 311 61 q 348 162 341 118 l 371 308 l 197 1075 l 340 1075 l 456 467 "},"Ÿ":{"x_min":142,"x_max":916.71875,"ha":785,"o":"m 445 483 l 778 1073 l 916 1073 l 500 358 l 451 0 l 308 0 l 357 352 l 142 1073 l 279 1073 l 445 483 m 464 1289 q 455 1248 463 1268 q 432 1214 446 1229 q 401 1190 419 1199 q 365 1182 383 1182 q 335 1188 349 1182 q 310 1205 320 1194 q 294 1230 300 1215 q 289 1262 289 1245 q 297 1304 289 1284 q 319 1340 305 1324 q 352 1364 333 1355 q 390 1373 370 1373 q 443 1351 423 1373 q 464 1294 463 1329 l 464 1289 m 778 1288 q 769 1248 778 1267 q 747 1213 760 1228 q 715 1190 733 1198 q 679 1181 698 1181 q 625 1204 646 1181 q 604 1262 604 1227 q 612 1303 604 1283 q 634 1339 620 1323 q 667 1363 648 1354 q 705 1373 685 1373 q 757 1350 737 1373 q 778 1293 778 1327 l 778 1288 "},"ų":{"x_min":121,"x_max":805.0625,"ha":795,"o":"m 335 773 q 330 734 334 764 q 320 661 326 704 q 307 566 314 618 q 293 463 300 515 q 280 365 286 412 q 269 282 274 317 q 265 254 267 265 q 264 239 264 243 q 274 166 263 195 q 311 111 285 129 q 375 92 336 93 q 481 117 430 92 q 583 188 532 141 l 664 773 l 805 773 l 697 0 l 594 0 q 589 59 591 30 q 585 118 587 87 q 473 20 532 54 q 348 -13 414 -13 q 121 212 121 -13 q 126 261 121 222 q 138 353 131 300 q 149 439 144 395 q 161 528 155 484 q 172 612 167 571 q 182 686 178 653 q 190 742 187 719 q 194 773 193 765 l 335 773 m 712 -351 q 675 -360 695 -357 q 635 -366 657 -363 q 588 -369 612 -369 q 524 -362 556 -369 q 465 -338 491 -355 q 422 -289 439 -320 q 406 -207 406 -257 q 414 -160 406 -182 q 436 -117 422 -137 q 468 -79 450 -97 q 504 -47 486 -62 q 603 13 547 -14 l 675 13 q 587 -57 625 -20 q 554 -91 570 -73 q 526 -129 538 -109 q 506 -169 513 -148 q 498 -210 498 -189 q 508 -248 498 -233 q 532 -272 517 -263 q 566 -284 547 -281 q 604 -288 585 -288 q 643 -285 624 -288 q 678 -279 663 -283 q 712 -271 696 -276 l 712 -351 "},"€":{"x_min":79.59375,"x_max":832.796875,"ha":790,"o":"m 558 484 l 544 388 l 317 388 q 316 374 317 385 q 315 349 316 363 q 313 320 314 335 q 314 295 313 306 q 329 199 316 238 q 365 134 343 159 q 414 98 386 109 q 472 86 442 86 q 553 94 517 86 q 617 112 590 102 q 659 132 643 123 q 678 143 675 141 l 703 43 q 681 28 698 39 q 634 4 664 16 q 560 -16 603 -7 q 462 -26 517 -26 q 355 -5 405 -26 q 267 56 305 14 q 207 160 230 98 q 182 307 184 223 q 182 324 182 314 q 184 343 182 334 l 186 365 q 185 376 185 371 q 185 388 185 381 l 79 388 l 93 484 l 191 484 q 197 519 194 501 q 204 558 200 537 l 89 558 l 102 654 l 231 654 q 284 800 249 734 q 369 911 319 865 q 484 982 419 957 q 626 1007 549 1007 q 705 999 669 1007 q 769 983 741 990 q 813 967 797 976 q 832 957 830 959 l 785 852 q 776 857 785 852 q 745 868 766 863 q 696 882 725 874 q 629 891 667 889 q 572 889 601 893 q 446 818 500 877 q 364 654 392 759 l 618 654 l 604 558 l 342 558 q 335 522 338 540 q 328 484 331 503 l 558 484 "},"в":{"x_min":92,"x_max":740.15625,"ha":727,"o":"m 481 785 q 581 772 534 785 q 663 736 627 760 q 719 680 698 713 q 740 605 740 646 q 724 526 740 560 q 678 467 707 492 q 609 428 650 443 q 518 408 568 414 q 579 395 547 406 q 638 364 611 384 q 683 315 665 344 q 701 247 701 285 q 675 137 701 185 q 606 56 649 89 q 506 6 563 23 q 387 -11 449 -11 q 265 8 319 -11 q 171 64 210 27 q 112 158 133 101 q 92 287 92 214 q 118 481 92 391 q 195 639 144 572 q 317 746 245 707 q 481 785 390 785 m 254 459 q 391 462 325 459 q 505 477 456 465 q 584 516 554 490 q 614 587 614 542 q 580 655 614 631 q 481 679 547 679 q 413 668 447 679 q 349 631 379 657 q 294 564 318 606 q 254 459 269 522 m 241 363 q 236 314 237 339 q 235 268 234 290 q 275 140 237 186 q 392 94 314 94 q 466 104 433 94 q 524 134 500 114 q 561 183 548 154 q 575 248 575 211 q 555 306 575 284 q 505 342 535 329 q 436 359 474 354 q 360 365 397 364 q 291 364 323 366 q 241 363 259 363 "},"Ŭ":{"x_min":125,"x_max":1020.84375,"ha":957,"o":"m 490 88 q 608 108 559 88 q 693 174 658 128 q 751 296 728 220 q 790 484 774 372 l 874 1075 l 1020 1075 l 937 487 q 872 235 916 334 q 769 77 829 135 q 634 -3 709 19 q 474 -27 559 -27 q 326 -1 391 -27 q 216 73 261 23 q 148 196 171 122 q 125 366 125 269 q 125 384 125 375 q 125 404 125 393 q 128 430 126 415 q 133 464 130 444 q 145 557 138 503 q 162 683 152 610 q 185 853 172 757 q 215 1075 198 949 l 359 1075 q 329 850 342 948 q 306 678 316 753 q 288 549 296 603 q 276 454 281 495 q 271 418 273 433 q 268 391 269 403 q 268 371 268 380 q 268 354 268 362 q 279 245 268 294 q 316 161 290 196 q 384 107 342 126 q 490 88 426 88 m 871 1332 q 869 1320 870 1325 q 866 1308 868 1314 q 800 1195 849 1234 q 663 1156 751 1156 q 545 1190 582 1156 q 508 1289 508 1224 q 508 1309 507 1298 q 510 1332 509 1320 l 601 1332 q 599 1311 599 1320 q 603 1286 598 1297 q 615 1266 607 1274 q 677 1236 631 1236 q 747 1260 720 1236 q 782 1332 774 1285 l 871 1332 "},"С":{"x_min":136,"x_max":922,"ha":809,"o":"m 136 367 q 150 551 136 460 q 193 722 165 641 q 265 872 222 803 q 365 990 308 940 q 493 1067 422 1039 q 649 1095 565 1095 q 719 1091 686 1095 q 783 1077 752 1087 q 849 1057 815 1067 q 922 1036 883 1047 l 871 918 q 757 954 810 937 q 650 972 704 972 q 535 949 587 972 q 443 885 484 926 q 373 789 403 845 q 324 667 344 733 q 295 527 305 601 q 286 378 286 454 q 343 165 286 234 q 512 96 400 96 q 567 102 537 96 q 629 118 597 108 q 694 142 661 129 q 760 170 727 156 l 785 56 q 716 25 750 41 q 646 -1 682 10 q 571 -20 610 -13 q 491 -27 533 -27 q 227 72 318 -27 q 136 367 136 171 "},"ĝ":{"x_min":37,"x_max":865.03125,"ha":768,"o":"m 296 532 q 307 477 296 500 q 337 437 319 453 q 377 413 355 421 q 421 404 399 405 q 507 419 472 407 q 566 453 543 432 q 599 505 589 475 q 610 572 610 534 q 599 623 610 601 q 569 660 588 645 q 525 682 550 674 q 471 690 499 690 q 391 679 424 690 q 336 647 357 668 q 305 597 315 627 q 296 532 296 568 m 163 -88 q 212 -164 163 -141 q 369 -188 262 -188 q 547 -157 488 -188 q 606 -60 606 -126 q 591 -14 606 -33 q 553 16 577 4 q 500 36 530 29 q 437 49 469 44 l 277 71 q 193 -8 223 33 q 163 -88 163 -50 m 737 569 q 667 399 737 466 q 456 299 596 332 l 285 260 q 215 216 222 247 q 242 183 220 195 q 299 166 264 171 q 373 154 334 160 q 443 143 412 148 q 570 117 516 132 q 660 78 624 101 q 714 21 696 54 q 732 -58 732 -12 q 716 -136 732 -102 q 673 -196 701 -171 q 609 -241 646 -222 q 529 -271 572 -260 q 440 -288 487 -283 q 348 -294 394 -294 q 220 -281 277 -294 q 122 -244 163 -268 q 59 -188 81 -221 q 37 -118 37 -156 q 59 -30 39 -66 q 108 30 78 4 q 137 53 121 41 q 168 73 154 64 q 192 90 182 83 q 206 99 203 96 q 195 104 206 99 q 168 117 183 108 q 139 138 153 126 q 120 164 125 150 q 110 230 108 193 q 145 300 112 273 q 248 345 179 328 l 319 363 q 266 380 293 367 q 218 415 240 393 q 183 465 197 436 q 170 533 170 495 q 189 631 170 585 q 246 712 208 678 q 338 767 283 747 q 463 787 392 787 q 563 776 520 787 q 646 737 607 764 q 716 765 685 754 q 777 780 747 775 q 820 789 799 786 q 865 794 841 792 l 860 681 l 693 681 q 727 617 717 644 q 737 569 737 591 m 460 1231 l 557 1231 l 644 854 l 539 854 l 489 1069 l 367 854 l 243 854 l 460 1231 "},"ß":{"x_min":86.8125,"x_max":857.671875,"ha":912,"o":"m 402 621 q 539 635 484 621 q 627 676 594 650 q 673 742 659 703 q 687 830 687 781 q 647 930 687 898 q 521 963 607 963 q 429 938 465 963 q 373 873 394 913 q 341 785 351 834 q 325 690 331 737 l 229 0 l 86 0 l 181 676 q 216 835 193 762 q 280 963 239 909 q 385 1048 321 1017 q 539 1079 448 1079 q 662 1059 611 1079 q 747 1006 714 1039 q 797 928 781 972 q 813 834 813 883 q 799 733 813 779 q 755 654 785 688 q 680 600 726 620 q 570 574 634 579 q 684 550 632 568 q 776 500 737 531 q 836 426 815 469 q 857 327 857 383 q 837 186 857 248 q 780 78 817 125 q 693 0 743 32 q 585 -54 644 -33 q 461 -85 526 -75 q 329 -99 396 -96 l 332 23 q 518 59 443 33 q 637 124 593 85 q 701 215 682 163 q 720 329 720 267 q 636 471 720 426 q 386 516 552 516 l 402 621 "},"њ":{"x_min":86.8125,"x_max":1238.4375,"ha":1237,"o":"m 196 773 l 341 773 l 296 461 l 655 461 l 699 773 l 844 773 l 809 529 q 992 519 917 529 q 1118 485 1067 508 q 1196 428 1169 462 q 1234 347 1224 394 q 1238 316 1237 331 q 1238 283 1238 300 q 1220 189 1236 230 q 1175 116 1204 147 q 1105 62 1146 84 q 1013 27 1064 41 q 884 5 956 11 q 723 0 812 0 l 589 0 l 641 365 l 283 365 l 231 0 l 86 0 l 196 773 m 1095 287 q 1096 301 1096 292 q 1094 316 1095 311 q 1080 357 1090 339 q 1048 390 1069 376 q 995 413 1027 404 q 917 428 962 423 q 858 431 889 430 q 795 433 828 433 l 747 96 q 771 97 759 96 q 794 97 783 97 q 846 100 819 99 q 892 104 872 101 q 975 122 938 110 q 1038 156 1011 135 q 1078 209 1064 177 q 1095 287 1093 241 "},"s":{"x_min":58.28125,"x_max":646.234375,"ha":629,"o":"m 127 574 q 147 665 127 626 q 205 732 168 705 q 292 773 242 759 q 401 787 343 787 q 470 780 436 787 q 535 763 504 774 q 595 737 567 752 q 646 709 623 723 l 602 615 q 563 636 586 624 q 514 657 541 647 q 458 674 487 668 q 399 681 428 681 q 292 659 332 681 q 253 590 253 636 q 257 558 253 572 q 269 535 261 545 q 293 516 278 524 q 328 498 307 507 l 423 460 q 491 428 458 446 q 549 387 524 410 q 590 333 575 363 q 606 263 606 302 q 582 146 606 198 q 517 59 558 94 q 422 5 476 23 q 309 -13 368 -13 q 227 -6 265 -13 q 156 12 188 0 q 99 38 124 24 q 58 67 74 53 l 101 157 q 134 135 113 147 q 181 114 155 124 q 239 98 208 105 q 307 92 271 92 q 374 101 343 92 q 427 129 405 111 q 461 174 449 147 q 474 235 474 201 q 469 264 474 251 q 453 287 464 276 q 425 309 443 299 q 382 330 407 319 l 282 372 q 214 407 244 388 q 165 449 185 425 q 136 503 146 473 q 127 574 127 533 "},"Ű":{"x_min":125,"x_max":1094.3125,"ha":957,"o":"m 490 88 q 608 108 559 88 q 693 174 658 128 q 751 296 728 220 q 790 484 774 372 l 874 1075 l 1020 1075 l 937 487 q 872 235 916 334 q 769 77 829 135 q 634 -3 709 19 q 474 -27 559 -27 q 326 -1 391 -27 q 216 73 261 23 q 148 196 171 122 q 125 366 125 269 q 125 384 125 375 q 125 404 125 393 q 128 430 126 415 q 133 464 130 444 q 145 557 138 503 q 162 683 152 610 q 185 853 172 757 q 215 1075 198 949 l 359 1075 q 329 850 342 948 q 306 678 316 753 q 288 549 296 603 q 276 454 281 495 q 271 418 273 433 q 268 391 269 403 q 268 371 268 380 q 268 354 268 362 q 279 245 268 294 q 316 161 290 196 q 384 107 342 126 q 490 88 426 88 m 551 1182 l 450 1182 l 577 1615 l 764 1615 l 551 1182 m 812 1182 l 711 1182 l 907 1615 l 1094 1615 l 812 1182 "},"?":{"x_min":111,"x_max":707.671875,"ha":718,"o":"m 570 815 q 531 899 570 874 q 410 924 492 924 q 356 919 383 924 q 303 908 329 915 q 250 892 276 900 q 202 874 225 883 l 169 986 q 225 1008 194 997 q 289 1028 255 1019 q 359 1041 323 1036 q 434 1047 396 1047 q 560 1031 508 1047 q 645 987 612 1015 q 692 919 677 958 q 707 835 707 880 q 687 724 707 775 q 636 630 668 672 q 563 553 603 587 q 480 492 522 518 q 400 447 438 466 q 333 417 361 428 l 313 303 l 187 303 l 208 485 l 231 495 q 256 508 241 501 q 288 523 271 514 q 380 571 331 544 q 472 635 430 599 q 542 716 514 671 q 570 815 570 761 m 313 0 l 111 0 l 142 221 l 344 221 l 313 0 "},"Ņ":{"x_min":86.8125,"x_max":1072.28125,"ha":1022,"o":"m 921 0 l 727 0 l 604 307 l 357 924 l 227 0 l 86 0 l 238 1075 l 435 1075 l 557 769 l 804 152 l 933 1075 l 1072 1075 l 921 0 m 386 -320 l 418 -99 l 620 -99 l 590 -319 q 570 -393 586 -362 q 531 -446 555 -424 q 476 -483 507 -468 q 409 -508 445 -497 l 378 -440 q 445 -396 418 -426 q 479 -320 473 -365 l 386 -320 "},"c":{"x_min":103.984375,"x_max":729.328125,"ha":662,"o":"m 104 287 q 137 493 104 401 q 225 651 170 586 q 351 752 280 716 q 500 787 423 787 q 625 767 570 787 q 729 709 680 748 l 676 606 q 646 633 665 619 q 604 657 627 647 q 555 674 581 668 q 504 681 529 681 q 411 661 451 681 q 341 605 371 640 q 292 524 312 571 q 262 425 273 477 q 250 355 254 389 q 247 291 247 321 q 286 141 246 190 q 402 92 327 92 q 477 103 441 92 q 544 130 514 114 q 576 150 561 139 q 607 172 592 160 l 626 71 q 501 8 563 29 q 370 -13 439 -12 q 265 5 314 -12 q 180 59 216 23 q 123 153 144 96 q 104 287 103 209 "},"¶":{"x_min":95.609375,"x_max":796.234375,"ha":809,"o":"m 796 1075 l 644 0 l 516 0 l 653 969 l 567 969 l 431 0 l 300 0 l 383 585 q 274 595 326 585 q 182 628 222 605 q 119 690 143 651 q 95 788 95 729 q 113 900 95 854 q 161 979 130 947 q 230 1030 191 1011 q 315 1059 270 1049 q 405 1072 359 1069 q 495 1075 452 1075 l 796 1075 "},"Ī":{"x_min":84.09375,"x_max":696.75,"ha":583,"o":"m 96 82 l 221 82 l 352 978 l 228 978 l 242 1075 l 634 1075 l 621 978 l 495 978 l 363 82 l 489 82 l 476 0 l 84 0 l 96 82 m 681 1173 l 225 1173 l 241 1288 l 696 1288 l 681 1173 "},"•":{"x_min":214,"x_max":673.171875,"ha":811,"o":"m 214 435 q 221 487 214 459 q 252 570 229 530 q 309 638 275 609 q 385 685 343 668 q 473 702 426 702 q 552 687 515 702 q 615 645 589 672 q 657 582 641 619 q 673 503 672 546 q 652 403 673 451 q 595 318 631 355 q 512 259 559 281 q 412 237 464 237 q 333 251 369 237 q 270 293 297 266 q 229 356 244 319 q 214 435 214 392 "},"н":{"x_min":86.8125,"x_max":868.125,"ha":857,"o":"m 205 773 l 350 773 l 302 460 l 675 460 l 723 773 l 868 773 l 749 0 l 604 0 l 660 364 l 287 364 l 231 0 l 86 0 l 205 773 "},"(":{"x_min":167,"x_max":579.359375,"ha":538,"o":"m 579 1016 q 483 908 531 972 q 394 757 434 843 q 329 561 354 670 q 304 320 304 453 q 315 179 304 241 q 344 69 326 117 q 383 -12 361 22 q 427 -70 405 -46 l 346 -155 q 264 -62 298 -118 q 209 57 230 -6 q 177 190 187 122 q 167 320 167 259 q 189 542 167 432 q 256 754 211 653 q 368 945 301 856 q 523 1102 434 1034 l 579 1016 "},"м":{"x_min":86.8125,"x_max":1043.78125,"ha":1033,"o":"m 527 132 l 839 774 l 1043 774 l 924 0 l 799 0 l 902 670 l 576 0 l 436 0 l 316 669 l 211 0 l 86 0 l 207 774 l 412 774 l 527 132 "},"­":{"x_min":105,"x_max":551.953125,"ha":611,"o":"m 537 358 l 105 358 l 119 470 l 551 470 l 537 358 "},"Ħ":{"x_min":84.78125,"x_max":1089.21875,"ha":966,"o":"m 1073 834 l 109 834 l 125 949 l 1089 949 l 1073 834 m 722 0 l 795 511 l 302 511 l 229 0 l 84 0 l 239 1075 l 383 1075 l 316 607 l 809 607 l 876 1075 l 1020 1075 l 866 0 l 722 0 "},"з":{"x_min":77.421875,"x_max":681.25,"ha":686,"o":"m 217 342 l 234 454 q 368 458 309 454 q 467 478 427 463 q 528 521 508 493 q 549 599 549 550 q 514 661 549 641 q 415 681 479 681 q 342 675 378 681 q 276 662 305 669 q 227 649 246 655 l 209 643 l 197 743 q 225 754 204 747 q 278 769 247 762 q 348 782 309 776 q 432 787 388 787 q 616 749 553 787 q 681 628 679 710 q 665 538 681 578 q 622 468 649 497 q 564 421 596 439 q 499 397 531 404 q 550 380 526 392 q 592 349 574 368 q 622 302 611 329 q 634 239 633 275 q 610 132 634 179 q 545 52 587 85 q 446 2 504 19 q 322 -14 389 -14 q 170 1 230 -14 q 77 36 110 16 l 121 136 q 160 120 137 129 q 210 106 182 112 q 269 95 237 99 q 337 91 301 91 q 408 101 377 91 q 459 131 438 112 q 491 177 480 150 q 502 236 502 203 q 450 317 502 292 q 293 342 399 342 l 217 342 "},":":{"x_min":106,"x_max":394.921875,"ha":497,"o":"m 168 437 l 198 643 l 394 643 l 365 437 l 168 437 m 106 0 l 135 206 l 332 206 l 302 0 l 106 0 "},"Ѝ":{"x_min":86.8125,"x_max":1072.953125,"ha":1021,"o":"m 687 990 l 615 990 l 459 1426 l 660 1426 l 687 990 m 86 0 l 239 1075 l 383 1075 l 269 270 l 868 1075 l 1072 1075 l 921 0 l 775 0 l 910 957 l 244 90 l 231 0 l 86 0 "},"і":{"x_min":124.109375,"x_max":404.5625,"ha":394,"o":"m 404 1014 q 403 1009 404 1010 q 396 969 403 988 q 377 937 389 951 q 350 915 366 923 q 317 907 335 907 q 270 928 287 907 q 254 981 254 950 q 260 1020 254 1001 q 279 1053 267 1039 q 307 1077 291 1068 q 341 1086 323 1086 q 386 1065 369 1086 q 404 1014 403 1045 m 261 0 l 124 0 l 233 773 l 370 773 l 261 0 "},"Û":{"x_min":125,"x_max":1020.84375,"ha":957,"o":"m 490 88 q 608 108 559 88 q 693 174 658 128 q 751 296 728 220 q 790 484 774 372 l 874 1075 l 1020 1075 l 937 487 q 872 235 916 334 q 769 77 829 135 q 634 -3 709 19 q 474 -27 559 -27 q 326 -1 391 -27 q 216 73 261 23 q 148 196 171 122 q 125 366 125 269 q 125 384 125 375 q 125 404 125 393 q 128 430 126 415 q 133 464 130 444 q 145 557 138 503 q 162 683 152 610 q 185 853 172 757 q 215 1075 198 949 l 359 1075 q 329 850 342 948 q 306 678 316 753 q 288 549 296 603 q 276 454 281 495 q 271 418 273 433 q 268 391 269 403 q 268 371 268 380 q 268 354 268 362 q 279 245 268 294 q 316 161 290 196 q 384 107 342 126 q 490 88 426 88 m 693 1489 l 790 1489 l 877 1112 l 772 1112 l 722 1327 l 600 1112 l 476 1112 l 693 1489 "},"ś":{"x_min":58.28125,"x_max":727.703125,"ha":629,"o":"m 127 574 q 147 665 127 626 q 205 732 168 705 q 292 773 242 759 q 401 787 343 787 q 470 780 436 787 q 535 763 504 774 q 595 737 567 752 q 646 709 623 723 l 602 615 q 563 636 586 624 q 514 657 541 647 q 458 674 487 668 q 399 681 428 681 q 292 659 332 681 q 253 590 253 636 q 257 558 253 572 q 269 535 261 545 q 293 516 278 524 q 328 498 307 507 l 423 460 q 491 428 458 446 q 549 387 524 410 q 590 333 575 363 q 606 263 606 302 q 582 146 606 198 q 517 59 558 94 q 422 5 476 23 q 309 -13 368 -13 q 227 -6 265 -13 q 156 12 188 0 q 99 38 124 24 q 58 67 74 53 l 101 157 q 134 135 113 147 q 181 114 155 124 q 239 98 208 105 q 307 92 271 92 q 374 101 343 92 q 427 129 405 111 q 461 174 449 147 q 474 235 474 201 q 469 264 474 251 q 453 287 464 276 q 425 309 443 299 q 382 330 407 319 l 282 372 q 214 407 244 388 q 165 449 185 425 q 136 503 146 473 q 127 574 127 533 m 514 887 l 413 887 l 540 1320 l 727 1320 l 514 887 "},"V":{"x_min":46.125,"x_max":847.390625,"ha":836,"o":"m 185 1074 l 311 128 l 710 1075 l 847 1075 l 394 0 l 191 0 l 46 1074 l 185 1074 "},"Ŗ":{"x_min":84.78125,"x_max":897.25,"ha":872,"o":"m 653 0 q 667 106 661 60 q 677 185 673 152 q 685 243 682 219 q 690 282 688 266 q 693 310 692 298 q 696 326 695 321 q 687 390 696 364 q 651 448 677 429 q 578 477 625 467 q 505 490 547 486 q 408 495 463 495 l 300 495 l 229 0 l 84 0 l 239 1075 l 501 1075 q 604 1073 556 1075 q 694 1063 653 1070 q 776 1039 739 1055 q 840 998 813 1023 q 882 934 866 972 q 897 845 897 897 q 869 707 897 763 q 798 614 841 650 q 701 561 754 578 q 596 544 647 544 q 700 522 656 537 q 776 480 745 506 q 822 415 806 453 q 839 324 838 376 q 837 305 839 317 q 832 262 835 292 q 818 157 826 220 q 798 0 810 94 l 653 0 m 393 591 q 540 599 473 591 q 658 630 608 606 q 736 698 708 653 q 765 819 765 743 q 744 896 765 868 q 686 939 723 924 q 603 958 650 954 q 502 962 555 962 l 368 962 l 314 591 l 393 591 m 297 -320 l 329 -99 l 531 -99 l 501 -319 q 481 -393 497 -362 q 442 -446 466 -424 q 387 -483 418 -468 q 320 -508 356 -497 l 289 -440 q 356 -396 329 -426 q 390 -320 384 -365 l 297 -320 "},"Ỹ":{"x_min":142,"x_max":916.84375,"ha":775,"o":"m 445 483 l 778 1073 l 916 1073 l 500 358 l 451 0 l 308 0 l 357 352 l 142 1073 l 279 1073 l 445 483 m 771 1157 q 702 1170 735 1157 q 638 1200 669 1184 q 583 1230 608 1216 q 539 1244 558 1244 q 521 1241 530 1244 q 506 1232 513 1239 q 495 1211 499 1225 q 491 1175 491 1198 l 384 1175 q 397 1255 385 1220 q 430 1312 409 1289 q 479 1345 451 1334 q 540 1356 507 1356 q 604 1340 575 1356 q 660 1310 633 1325 q 712 1282 687 1295 q 760 1269 736 1269 q 780 1271 771 1269 q 795 1281 789 1274 q 804 1301 801 1288 q 809 1334 808 1314 l 916 1334 q 903 1252 915 1286 q 872 1197 891 1218 q 826 1166 852 1176 q 771 1157 800 1157 "},"У":{"x_min":185.046875,"x_max":899.015625,"ha":783,"o":"m 456 467 l 747 1075 l 899 1075 l 496 309 l 473 160 q 403 6 457 60 q 250 -62 348 -48 l 185 3 q 246 20 218 11 q 294 47 273 30 q 328 91 314 64 q 348 162 341 118 l 371 308 l 197 1075 l 340 1075 l 456 467 "},"@":{"x_min":138.984375,"x_max":1235.203125,"ha":1314,"o":"m 739 678 q 676 664 707 676 q 618 634 646 653 q 567 591 590 616 q 526 536 543 565 q 493 456 505 497 q 482 369 482 415 q 509 277 482 305 q 588 249 535 249 q 674 272 636 249 q 742 335 712 294 q 788 417 768 370 q 822 522 808 464 l 860 677 q 837 679 850 678 q 809 681 824 680 q 780 682 795 681 q 754 683 766 683 q 739 678 745 683 m 875 156 q 819 173 836 156 q 802 226 802 191 q 804 247 802 234 q 810 277 806 261 q 818 311 814 293 q 827 347 823 329 q 792 276 813 311 q 740 214 771 242 q 667 169 709 186 q 568 153 625 153 q 487 167 523 153 q 426 208 451 181 q 387 274 401 235 q 373 363 373 313 q 388 477 372 423 q 434 577 405 531 q 503 661 463 623 q 588 726 543 699 q 677 766 631 752 q 770 780 723 780 q 799 777 781 780 q 838 770 817 774 q 879 760 859 766 q 917 749 900 755 q 944 736 933 743 q 954 725 954 730 q 957 714 954 724 q 963 695 959 704 q 969 677 966 685 q 971 668 971 669 l 871 245 q 951 265 916 248 q 1013 308 987 282 q 1057 370 1039 335 q 1087 443 1076 405 q 1104 522 1099 482 q 1109 599 1109 562 q 1084 733 1108 676 q 1015 828 1060 790 q 906 884 970 865 q 760 903 842 903 q 631 883 692 903 q 517 830 569 864 q 421 749 464 795 q 346 648 378 703 q 285 504 305 580 q 265 348 264 428 q 291 214 265 273 q 364 115 316 155 q 481 53 412 74 q 638 31 550 31 q 739 40 693 31 q 819 61 784 48 q 882 90 855 75 q 927 120 909 106 q 933 104 928 116 q 946 80 939 93 q 958 57 952 68 q 964 41 963 46 q 913 4 945 24 q 837 -33 881 -16 q 738 -62 793 -50 q 615 -74 682 -74 q 420 -45 508 -74 q 271 35 333 -17 q 174 164 208 88 q 139 336 139 240 q 159 501 138 419 q 220 658 180 584 q 317 797 260 733 q 444 907 374 861 q 600 982 518 956 q 774 1008 682 1008 q 954 983 870 1008 q 1100 908 1037 958 q 1198 783 1162 859 q 1235 608 1234 708 q 1225 499 1235 554 q 1194 394 1215 445 q 1143 301 1173 344 q 1072 225 1112 258 q 983 175 1032 193 q 875 156 933 156 "}}}
